<?xml version="1.0" encoding="UTF-8"?>
<svg xmlns="http://www.w3.org/2000/svg" viewBox="0 0 590 1052">
  <defs>
    <linearGradient id="bg" x1="0" y1="0" x2="0" y2="1">
      <stop offset="0" stop-color="#319241"/>
      <stop offset="0.45" stop-color="#60B64B"/>
      <stop offset="1" stop-color="#B5F75E"/>
    </linearGradient>
    <linearGradient id="waveA" x1="0" y1="0" x2="1" y2="1">
      <stop offset="0" stop-color="#ffffff" stop-opacity="0.15"/>
      <stop offset="1" stop-color="#ffffff" stop-opacity="0.38"/>
    </linearGradient>
    <linearGradient id="waveB" x1="1" y1="0" x2="0" y2="1">
      <stop offset="0" stop-color="#ffffff" stop-opacity="0.10"/>
      <stop offset="1" stop-color="#ffffff" stop-opacity="0.30"/>
    </linearGradient>
    <linearGradient id="leaf" x1="0" y1="0" x2="1" y2="1">
      <stop offset="0" stop-color="#33CC33"/>
      <stop offset="1" stop-color="#CCFF66"/>
    </linearGradient>
  </defs>

  <rect width="590" height="1052" fill="url(#bg)"/>

  <path d="M-40 510 C120 710, 280 600, 420 640 C510 665, 560 735, 640 740 L640 1150 L-40 1150 Z" fill="url(#waveA)"/>
  <path d="M-80 585 C40 730, 220 670, 350 700 C470 730, 530 790, 650 810 L650 1150 L-80 1150 Z" fill="url(#waveB)"/>

  <path d="M485 292 C542 350, 530 420, 472 482 C555 425, 574 358, 508 274 Z" fill="#319241" opacity="0.9"/>
  <path d="M462 301 C424 375, 468 430, 447 512 C506 462, 524 384, 462 301 Z" fill="url(#leaf)"/>
  <path d="M500 322 C486 352, 472 374, 452 392 C489 372, 506 350, 500 322 Z" fill="#319241"/>

  <g opacity="0.22">
    <path d="M62 875 C103 921, 94 971, 51 1013 C115 969, 129 916, 80 852 Z" fill="#319241"/>
    <path d="M48 882 C24 928, 50 964, 37 1015 C74 983, 85 935, 48 882 Z" fill="url(#leaf)"/>
  </g>
</svg>
