<?xml version="1.0" encoding="UTF-8"?><svg id="Layer_1" xmlns="http://www.w3.org/2000/svg" viewBox="0 0 1024 504"><defs><style>.cls-1{fill:#fff;}.cls-2{fill:#2ca32c;}.cls-3{fill:#172928;}</style></defs><path class="cls-2" d="M442.43,164.6c-7.2,1.31-14.26,4.09-19.79,8.89-4.73,4.1-6.84,9.37-7.85,15.5,0,0,13.72-11.21,28.28-13.72-.26.13-14.69,7.61-27.91,21.08-2.1,2.14-5.04,4.98-5.04,4.98,0,0-.12-16.25-1.21-27.97-2.09-22.54-5.97-36.67-6.11-36.99,11.25,13.69,14.92,34.62,14.92,34.62,3.88-6.36,6.09-12.8,5.02-20.23-1.26-8.69-5.49-16.75-11-23.58-5.51-6.83-12.28-12.54-19.22-17.92-9.4,10.93-12.62,26.84-8.21,40.56,3.07,9.54,9.75,17.8,18.25,23.09-.21,5.56-.66,16.71-1.22,27.04-1.36-1.85-2.78-3.6-4.23-5.24-11.79-13.41-25.34-19.97-25.58-20.09,13.77,2.38,26.75,12.98,26.75,12.98-.96-5.8-2.96-10.78-7.43-14.66-5.23-4.54-11.91-7.17-18.72-8.41-6.81-1.24-13.79-1.16-20.71-.79.02,11.37,6.3,22.53,16,28.45,7.26,4.43,16.25,5.81,24.55,4.06,2.87,2.47,6.29,6.08,8.95,10.92-.26,4.16-.54,12.84-.82,17.46-16.07,1.01-33.99,2.21-44.53,9.19,12.72,9.5,32.45,18.64,50.05,18.64s35.63-8.18,48.5-18.13c-10.51-6.62-25.59-8.8-41.24-9.72-.3-4.7-.57-12.56-.79-15.1h0c2.8-5.04,6.38-8.81,9.38-11.39,8.78,1.85,18.28.39,25.95-4.29,10.26-6.26,16.89-18.06,16.91-30.07-7.31-.39-14.69-.48-21.89.83Z"/><path class="cls-2" d="M405.15,407.97c-28.04,0-49.96-7.81-65.77-23.43-15.81-15.62-23.71-37.91-23.71-66.89v-110.64h35.57c5.61,0,10.16,4.55,10.16,10.16v98.79c0,18.82,3.85,32.37,11.57,40.65,7.71,8.28,18.53,12.42,32.46,12.42s24.74-4.14,32.46-12.42c7.71-8.28,11.57-21.83,11.57-40.65v-99.9c0-5,4.05-9.05,9.05-9.05h36.11v110.64c0,28.98-7.9,51.28-23.71,66.89-15.81,15.62-37.73,23.43-65.77,23.43Z"/><path class="cls-1" d="M354.21,236.89h101.34v102.36c0,16.21-13.16,29.38-29.38,29.38h-42.59c-16.21,0-29.38-13.16-29.38-29.38v-102.36h0Z"/><path class="cls-3" d="M657.72,364.76c.25-.25,3.08.26,4.47-.79,1.58-1.19,1.18-3.93,2.02-4.75,2.23-2.17,17.07-15.58,18.29-15.58,12.35,10.45,24.55,22.35,42.07,22.7,13.67.27,40.5-9.59,29.91-27.04-6.18-10.18-49.7-18.49-63.23-25.39-53.57-27.28-38.21-95.5,17.2-106.51,17.73-3.52,38.22-.63,55.2,5.57,5.77,2.11,30.66,15.51,27.09,22.52-1.64,3.21-13.26,15.33-16.56,18.1-2.49,2.09-5.01,4.13-7.83,5.77-13.66-13.67-53.7-25.83-64.39-4.4-14.03,28.12,43.58,34.71,60.44,41.88,29.85,12.7,45.27,37.38,31.28,69.37-17.94,41.03-83.13,45.27-116.92,22.28-3.7-2.52-23.49-19.37-19.03-23.75Z"/><polygon class="cls-3" points="295.69 208.51 295.69 244.56 244.62 244.56 244.62 399.28 205.56 399.28 205.56 244.56 154.49 244.56 154.49 208.51 295.69 208.51"/><path class="cls-3" d="M558.57,207v156.22h75.11v36.05h-115.67v-190.02c0-.16,2.09-2.25,2.25-2.25h38.3Z"/><rect class="cls-3" x="830.46" y="208.51" width="39.06" height="190.77"/><rect class="cls-2" x="376.24" y="275.18" width="57.19" height="12.77"/><rect class="cls-2" x="376.55" y="304.16" width="57.19" height="12.77"/></svg>