<?xml version="1.0" encoding="UTF-8"?><svg id="Layer_1" xmlns="http://www.w3.org/2000/svg" viewBox="0 0 55.49 48.33"><defs><style>.cls-1{fill:currentColor;}</style></defs><path class="cls-1" d="M51.86,40.97c-.04-.1-.19-.41-.6-.41h-1.94c-.48,0-.86-.39-.86-.86V15.53c0-.48-.39-.86-.86-.86h-6.91c-.48,0-.86.39-.86.86v.32c1.63,2.36,2.59,5.22,2.59,8.31s-.96,5.94-2.59,8.31v7.23c0,.48-.39.86-.86.86h-1.94c-.41,0-.56.31-.6.41-.05.12-.12.43.16.69l7.12,6.5c.25.23.63.23.88,0l7.12-6.5c.29-.26.21-.57.16-.69Z"/><path class="cls-1" d="M27.74,11.22c-7.14,0-12.95,5.81-12.95,12.95s5.81,12.95,12.95,12.95,12.95-5.81,12.95-12.95-5.81-12.95-12.95-12.95ZM32.92,27.19c0,1.96-1.84,3.53-4.31,3.83v.92c0,.48-.39.86-.86.86s-.86-.39-.86-.86v-.92c-2.48-.3-4.31-1.87-4.31-3.83,0-.48.39-.86.86-.86s.86.39.86.86c0,.98,1.12,1.83,2.59,2.08v-4.43c-2.07-.54-4.31-1.33-4.31-3.69,0-1.96,1.84-3.53,4.31-3.83v-.92c0-.48.39-.86.86-.86s.86.39.86.86v.92c2.48.3,4.31,1.87,4.31,3.83,0,.48-.39.86-.86.86s-.86-.39-.86-.86c0-.98-1.12-1.83-2.59-2.08v4.43c2.07.54,4.31,1.33,4.31,3.69Z"/><path class="cls-1" d="M4.23,7.77h1.94c.48,0,.86.39.86.86v24.17c0,.48.39.86.86.86h6.91c.48,0,.86-.39.86-.86v-.32c-1.63-2.36-2.59-5.22-2.59-8.31s.96-5.94,2.59-8.31v-7.23c0-.48.39-.86.86-.86h1.94c.41,0,.56-.31.6-.41.05-.12.12-.43-.16-.69L11.79.17c-.25-.23-.63-.23-.88,0L3.79,6.67c-.29.26-.21.57-.16.69.04.1.19.41.6.41Z"/><path class="cls-1" d="M28.61,29.26c1.47-.25,2.59-1.09,2.59-2.08s-.96-1.44-2.59-1.9v3.98Z"/><path class="cls-1" d="M24.29,21.14c0,.98.96,1.44,2.59,1.9v-3.98c-1.47.25-2.59,1.09-2.59,2.08Z"/></svg>