<?xml version="1.0" encoding="UTF-8"?><svg id="Layer_1" xmlns="http://www.w3.org/2000/svg" xmlns:xlink="http://www.w3.org/1999/xlink" viewBox="0 0 55.49 48.33"><defs><style>.cls-1{fill:none;}.cls-2{fill:#aeb5ba;}.cls-3{clip-path:url(#clippath);}</style><clipPath id="clippath"><rect class="cls-1" x="2.02" width="48.33" height="48.33"/></clipPath></defs><g class="cls-3"><path class="cls-2" d="M24.75,21.24l-6.63-6.62,5.66-5.66,6.62,6.63-5.66,5.66ZM48.34,34.68l-17.44-17.44-4.51,4.5,17.45,17.45c2.98,2.94,7.47-1.54,4.5-4.51ZM18.21,28.56c.28.28.61.5.98.65s.76.23,1.16.23.79-.08,1.16-.23c.37-.15.7-.37.98-.65l1.59-1.59c.28-.28.5-.61.66-.98.15-.37.23-.76.23-1.16s-.08-.79-.23-1.16c-.15-.37-.37-.7-.66-.98l-7.4-7.4c-.57-.57-1.34-.88-2.14-.88s-1.57.32-2.14.88l-1.59,1.59c-.28.28-.5.61-.65.98-.15.37-.23.76-.23,1.16s.08.79.23,1.16c.15.37.37.7.65.98l7.4,7.4ZM31.86,14.91c.28.28.61.5.98.65.37.15.76.23,1.16.23s.79-.08,1.16-.23.7-.37.98-.65l1.59-1.59c.28-.28.5-.61.65-.98.15-.37.23-.76.23-1.16s-.08-.79-.23-1.16c-.15-.37-.37-.7-.65-.98l-7.4-7.4c-.57-.57-1.34-.88-2.14-.88s-1.57.32-2.14.88l-1.59,1.59c-.57.57-.88,1.33-.88,2.14s.32,1.57.88,2.14l7.4,7.4ZM20.49,30.95c1.1,1.29,1.71,2.93,1.73,4.62.02,1.7-.56,3.34-1.63,4.66-1.07,1.31-2.57,2.21-4.23,2.53-1.66.32-3.39.05-4.87-.77-1.49-.82-2.64-2.13-3.25-3.71-.62-1.58-.66-3.32-.13-4.93.54-1.61,1.62-2.98,3.06-3.87,1.44-.89,3.15-1.25,4.83-1.01.78.78,2.41,2.78,4.5,2.48ZM14.98,34.98c-1.93,0-.94-3.22.92-1.75.16.12.35.18.55.16.2-.02.38-.12.5-.28.12-.15.18-.35.16-.55-.02-.2-.12-.38-.27-.5-.33-.27-.7-.47-1.11-.59v-.96c0-.2-.08-.39-.22-.53-.14-.14-.33-.22-.53-.22s-.39.08-.53.22c-.14.14-.22.33-.22.53v.96c-.58.18-1.09.57-1.41,1.09-.33.52-.45,1.14-.36,1.74.09.61.4,1.16.86,1.56.46.4,1.06.62,1.67.63.28,0,.55.12.74.32.2.2.31.47.31.75s-.11.55-.31.75c-.2.2-.46.31-.74.32-.19,0-.37-.05-.53-.14-.16-.09-.3-.23-.39-.39-.1-.17-.27-.3-.46-.35-.19-.05-.4-.02-.57.08-.17.1-.3.26-.35.45-.05.19-.03.4.07.57.33.56.85.97,1.47,1.16v.81c0,.2.08.39.22.53.14.14.33.22.53.22s.39-.08.53-.22c.14-.14.22-.33.22-.53v-.82c.58-.18,1.08-.57,1.41-1.09.32-.52.45-1.14.36-1.74-.09-.61-.4-1.16-.86-1.56-.46-.4-1.06-.62-1.67-.62ZM26.87,35.24c-.09-2.39-.89-4.7-2.3-6.62-1.06,1.06-1.48,1.58-2.45,1.98,1.12,1.58,1.69,3.49,1.61,5.43s-.8,3.8-2.05,5.28c-1.25,1.48-2.95,2.51-4.85,2.92-1.9.41-3.88.18-5.63-.65-1.75-.84-3.18-2.23-4.05-3.96-.87-1.73-1.15-3.71-.78-5.61.37-1.9,1.36-3.63,2.82-4.92,1.46-1.28,3.3-2.04,5.23-2.17l-2.71-2.72c-3.46.69-8.65,4.99-8.65,11.46,0,1.58.31,3.15.92,4.61.61,1.46,1.51,2.78,2.64,3.89,1.13,1.11,2.47,1.98,3.94,2.57,1.47.59,3.04.87,4.62.85,1.58-.03,3.14-.37,4.59-1.01,1.45-.64,2.75-1.56,3.84-2.71,1.09-1.15,1.94-2.5,2.5-3.98.56-1.48.82-3.06.76-4.64Z"/></g></svg>