<?xml version="1.0" encoding="UTF-8"?><svg id="Layer_1" xmlns="http://www.w3.org/2000/svg" viewBox="0 0 500 500"><g id="Layer_2"><path d="M109.8,151.76H40.45c-22.33-.03-40.43-18.12-40.45-40.45V41.96C.03,19.63,18.12,1.53,40.45,1.5h69.35c22.33.03,40.43,18.12,40.45,40.45v69.35c-.03,22.33-18.12,40.43-40.45,40.45ZM40.45,36.18c-3.19,0-5.78,2.59-5.78,5.78v69.35c0,3.19,2.59,5.78,5.78,5.78h69.35c3.19,0,5.78-2.59,5.78-5.78V41.96c0-3.19-2.59-5.78-5.78-5.78H40.45Z" fill="#319241"/><path d="M109.8,325.13H40.45c-22.33-.03-40.43-18.12-40.45-40.45v-69.35c.03-22.33,18.12-40.43,40.45-40.45h69.35c22.33.03,40.43,18.12,40.45,40.45v69.35c-.03,22.33-18.12,40.43-40.45,40.45ZM40.45,209.55c-3.19,0-5.78,2.59-5.78,5.78v69.35c0,3.19,2.59,5.78,5.78,5.78h69.35c3.19,0,5.78-2.59,5.78-5.78v-69.35c0-3.19-2.59-5.78-5.78-5.78H40.45Z" fill="#319241"/><path d="M109.8,498.5H40.45c-22.33-.03-40.43-18.12-40.45-40.45v-69.35c.03-22.33,18.12-40.43,40.45-40.45h69.35c22.33.03,40.43,18.12,40.45,40.45v69.35c-.03,22.33-18.12,40.43-40.45,40.45ZM40.45,382.92c-3.19,0-5.78,2.59-5.78,5.78v69.35c0,3.19,2.59,5.78,5.78,5.78h69.35c3.19,0,5.78-2.59,5.78-5.78v-69.35c0-3.19-2.59-5.78-5.78-5.78H40.45Z" fill="#319241"/><path d="M479.15,93.97h-250.25c-11.52,0-20.85-7.76-20.85-17.34s9.34-17.34,20.85-17.34h250.25c11.52,0,20.85,7.76,20.85,17.34s-9.34,17.34-20.85,17.34Z" fill="#319241"/><path d="M479.15,267.34h-250.25c-11.52,0-20.85-7.76-20.85-17.34s9.34-17.34,20.85-17.34h250.25c11.52,0,20.85,7.76,20.85,17.34s-9.34,17.34-20.85,17.34Z" fill="#319241"/><path d="M479.15,440.71h-250.25c-11.52,0-20.85-7.76-20.85-17.34s9.34-17.34,20.85-17.34h250.25c11.52,0,20.85,7.76,20.85,17.34s-9.34,17.34-20.85,17.34Z" fill="#319241"/></g></svg>