<?xml version="1.0" encoding="UTF-8"?><svg id="Layer_1" xmlns="http://www.w3.org/2000/svg" viewBox="0 0 500 500"><path d="M17.54,224.3h188.87c9.88,0,17.88-8.01,17.88-17.88V17.54c0-9.87-8-17.88-17.88-17.88H17.54C7.66-.34-.34,7.67-.34,17.54v188.87c0,9.87,8,17.88,17.88,17.88ZM35.42,35.42h153.11v153.11H35.42V35.42Z" fill="#319241"/><path d="M17.54,500.34h188.87c9.88,0,17.88-8.01,17.88-17.88v-188.87c0-9.87-8-17.88-17.88-17.88H17.54c-9.88,0-17.88,8.01-17.88,17.88v188.87c0,9.87,8,17.88,17.88,17.88ZM35.42,311.47h153.11v153.11H35.42v-153.11Z" fill="#319241"/><path d="M482.46,275.7h-188.87c-9.88,0-17.88,8.01-17.88,17.88v188.87c0,9.87,8,17.88,17.88,17.88h188.87c9.88,0,17.88-8.01,17.88-17.88v-188.87c0-9.87-8-17.88-17.88-17.88ZM464.58,464.58h-153.11v-153.11h153.11v153.11Z" fill="#319241"/><path d="M423.79,94.1h-17.88v-17.88c0-9.87-8-17.88-17.88-17.88s-17.88,8.01-17.88,17.88v17.88h-17.88c-9.88,0-17.88,8.01-17.88,17.88s8,17.88,17.88,17.88h17.88v17.88c0,9.87,8,17.88,17.88,17.88s17.88-8.01,17.88-17.88v-17.88h17.88c9.88,0,17.88-8.01,17.88-17.88s-8-17.88-17.88-17.88Z" fill="#319241"/><path d="M388.02-.34c-61.94,0-112.32,50.39-112.32,112.32s50.38,112.32,112.32,112.32,112.32-50.39,112.32-112.32S449.96-.34,388.02-.34ZM388.02,188.53c-42.21,0-76.56-34.34-76.56-76.55s34.35-76.55,76.56-76.55,76.55,34.34,76.55,76.55-34.35,76.55-76.55,76.55Z" fill="#319241"/></svg>