<?xml version="1.0" encoding="UTF-8"?><svg id="Layer_1" xmlns="http://www.w3.org/2000/svg" viewBox="0 0 500 500"><path d="M113.08,49.35c-.64,1.7-.98,3.57-1.26,5.77-.13,1.08-.26,2.61-.4,4.4-.59,7.43-1.57,19.68-5.2,22.91-1.33,1.19-3.44.61-6.74-3.09-3.66-4.12-6.77-9.85-10.01-15.8-2.59-4.79-5.27-9.72-8.41-14.18h-3.64v-3.58h41.52v3.58h-5.87Z" fill="#a4d0fc" fill-rule="evenodd"/><path d="M155.8,444.44h267.04V64.92c0-12.79-10.47-23.26-23.27-23.26H138.08v2.47c10.41,4.58,17.72,15,17.72,27.06v373.25Z" fill="#fff" fill-rule="evenodd"/><path d="M155.8,446.02h268.62V64.92c0-6.83-2.8-13.05-7.3-17.55-4.5-4.5-10.71-7.3-17.55-7.3H138.08l-7.65-.59,6.06,2.19v3.5c5.58,2.46,9.78,5.61,13.17,10.79,2.87,4.38,4.55,9.62,4.55,15.24v374.83h1.59Z" fill="#61a0e0" fill-rule="evenodd"/><path d="M421.24,442.85H157.4V71.19c0-6.24-1.87-12.08-5.08-16.98-3.05-4.67-7.35-8.48-12.39-10.96h259.64c5.97,0,11.39,2.45,15.31,6.36,3.92,3.92,6.36,9.35,6.36,15.31v377.93Z" fill="#61a0e0" fill-rule="evenodd"/><rect x="173.41" y="332.83" width="230.68" height="18.13" fill="#fff"/><path d="M404.09,352.56h-232.26v-21.32h233.85v21.32h-1.59ZM175,349.38h227.49v-14.96h-227.49v14.96Z" fill="#a4d0fc" fill-rule="evenodd"/><rect x="173.41" y="314.7" width="230.68" height="18.13" fill="#fff"/><path d="M402.49,316.29h-227.49v14.94h227.49v-14.94h0ZM173.41,313.11h232.27v21.31h-233.85v-21.31h1.58Z" fill="#a4d0fc" fill-rule="evenodd"/><rect x="173.41" y="296.56" width="230.68" height="18.13" fill="#fff"/><path d="M404.09,316.29h-232.26v-21.32h233.85v21.32h-1.59ZM175,313.11h227.49v-14.96h-227.49v14.96Z" fill="#a4d0fc" fill-rule="evenodd"/><rect x="173.41" y="278.43" width="230.68" height="18.13" fill="#fff"/><path d="M402.49,280.03h-227.49v14.94h227.49v-14.94h0ZM173.41,276.84h232.27v21.31h-233.85v-21.31h1.58Z" fill="#a4d0fc" fill-rule="evenodd"/><rect x="173.41" y="260.3" width="230.68" height="18.13" fill="#fff"/><path d="M404.09,280.03h-232.26v-21.32h233.85v21.32h-1.59ZM175,276.84h227.49v-14.95h-227.49v14.95Z" fill="#a4d0fc" fill-rule="evenodd"/><polygon points="352.2 278.43 352.2 260.3 404.09 260.3 404.09 278.43 404.09 296.56 404.09 314.7 404.09 332.83 404.09 350.96 352.2 350.96 352.2 332.83 352.2 314.7 352.2 296.56 352.2 278.43" fill="#fff" fill-rule="evenodd"/><path d="M350.61,278.43v-19.73h55.06v93.86h-55.06v-74.13h0ZM353.79,261.89v87.49h48.7v-87.49h-48.7Z" fill="#a4d0fc" fill-rule="evenodd"/><path d="M350.61,278.43v-16.54h-133.82v87.49h133.82v-70.95h0ZM353.79,260.3v92.26h-140.18v-93.86h140.18v1.59Z" fill="#a4d0fc" fill-rule="evenodd"/><rect x="171.82" y="231.56" width="115.34" height="18.13" fill="#dfedfa"/><rect x="173.41" y="202.82" width="230.68" height="18.13" fill="#fff"/><path d="M404.09,222.53h-232.26v-21.32h233.85v21.32h-1.59ZM175,219.36h227.49v-14.96h-227.49v14.96Z" fill="#a4d0fc" fill-rule="evenodd"/><rect x="173.41" y="184.68" width="230.68" height="18.13" fill="#fff"/><path d="M402.49,186.27h-227.49v14.95h227.49v-14.95h0ZM173.41,183.1h232.27v21.31h-233.85v-21.31h1.58Z" fill="#a4d0fc" fill-rule="evenodd"/><rect x="173.41" y="166.55" width="230.68" height="18.13" fill="#fff"/><path d="M404.09,186.27h-232.26v-21.31h233.85v21.31h-1.59ZM175,183.1h227.49v-14.96h-227.49v14.96Z" fill="#a4d0fc" fill-rule="evenodd"/><rect x="173.41" y="148.42" width="230.68" height="18.13" fill="#fff"/><path d="M402.49,150h-227.49v14.95h227.49v-14.95h0ZM173.41,146.82h232.27v21.31h-233.85v-21.31h1.58Z" fill="#a4d0fc" fill-rule="evenodd"/><rect x="173.41" y="130.28" width="230.68" height="18.13" fill="#fff"/><path d="M404.09,150h-232.26v-21.31h233.85v21.31h-1.59ZM175,146.82h227.49v-14.94h-227.49v14.94Z" fill="#a4d0fc" fill-rule="evenodd"/><polygon points="352.2 148.42 352.2 130.28 404.09 130.28 404.09 148.42 404.09 166.55 404.09 184.68 404.09 202.82 404.09 220.95 352.2 220.95 352.2 202.82 352.2 184.68 352.2 166.55 352.2 148.42" fill="#fff" fill-rule="evenodd"/><path d="M350.61,148.42v-19.73h55.06v93.85h-55.06v-74.12h0ZM353.79,131.88v87.49h48.7v-87.49h-48.7Z" fill="#a4d0fc" fill-rule="evenodd"/><path d="M350.61,148.42v-16.54h-133.82v87.49h133.82v-70.95h0ZM353.79,130.28v92.25h-140.18v-93.85h140.18v1.6Z" fill="#a4d0fc" fill-rule="evenodd"/><rect x="287.09" y="400.89" width="107.42" height="6.63" fill="#dfedfa"/><path d="M136.24,44.87c.81.58,1.93.39,2.51-.42.57-.81.39-1.93-.42-2.51-2.46-1.74-5.89-2.54-9.29-2.5-3.57.03-7.19.94-9.71,2.6-2.71,1.76-4.41,3.58-5.54,5.73-1.11,2.11-1.61,4.44-1.96,7.35-.13,1.08-.26,2.61-.4,4.4-.59,7.43-1.57,19.68-5.2,22.91-1.33,1.19-3.44.61-6.74-3.09-3.66-4.12-6.77-9.85-10.01-15.8-3.2-5.9-6.52-12.02-10.7-17.22-.62-.77-1.76-.9-2.54-.27-.77.63-.9,1.76-.27,2.54,3.98,4.95,7.21,10.92,10.34,16.67,3.34,6.16,6.56,12.08,10.48,16.48,5.04,5.67,8.87,6.01,11.83,3.4,4.71-4.2,5.76-17.36,6.4-25.33.13-1.73.26-3.2.39-4.25.31-2.52.72-4.49,1.56-6.12.83-1.58,2.16-2.97,4.33-4.38,1.96-1.28,4.86-2,7.77-2.02,2.71-.03,5.37.55,7.18,1.83Z" fill="#61a0e0" fill-rule="evenodd"/><path d="M115.02,59.81c.13-1.73.26-3.2.39-4.25.31-2.52.72-4.49,1.56-6.12.28-.51.6-1.01.99-1.5.8-1,1.88-1.93,3.34-2.89,1.96-1.28,4.86-2,7.77-2.02,2.71-.03,5.37.55,7.18,1.83.08.06.17.12.26.15l.19.11.77.45c4.99,2.19,9.25,5.83,12.21,10.37,2.87,4.38,4.55,9.62,4.55,15.23v13.44c-13.49.21-29.03.64-46.61,1.27.34-.21.68-.47,1.01-.75,4.71-4.2,5.76-17.36,6.4-25.33Z" fill="#dfedfa" fill-rule="evenodd"/><path d="M205.75,109.98h6.65v-34.56h-6.65v34.56h0ZM244.3,75.42h-6.02v10.38c0,5.62.18,10.51.59,14.92h-.09c-1.4-3.59-3.33-7.82-5.18-11.28l-7.27-14.02h-7.19v34.56h6.01v-10.61c0-6.16-.13-11.01-.4-15.28h.18c1.44,3.77,3.47,8.05,5.3,11.59l7.42,14.29h6.65v-34.56h0ZM269.06,75.42l-4,15.28c-1.08,4.05-2.11,8.27-2.88,12.4h-.13c-.73-4.17-1.76-8.31-2.79-12.4l-3.92-15.28h-7.27l10.02,34.56h7.6l10.52-34.56h-7.15ZM292.79,74.89c-9.03,0-14.74,7.59-14.74,17.93s5.17,17.66,14.3,17.66c8.58,0,14.69-6.15,14.69-18.2,0-9.21-4.67-17.39-14.25-17.39h0ZM292.62,80.32c5.07,0,7.45,5.88,7.45,12.22,0,6.97-2.56,12.49-7.51,12.49s-7.54-5.57-7.54-12.35c0-6.34,2.37-12.36,7.6-12.36h0ZM312.12,109.98h6.65v-34.56h-6.65v34.56h0ZM346.63,103.78c-1.35.58-3.55.99-5.63.99-6.24,0-10.24-4.18-10.24-12,0-8.36,4.58-12.27,10.3-12.27,2.38,0,4.17.54,5.53,1.12l1.3-5.39c-.99-.54-3.42-1.3-7.14-1.3-9.18,0-16.94,6.11-16.94,18.2,0,10.25,5.75,17.3,16.13,17.3,3.56,0,6.33-.67,7.64-1.3l-.94-5.35h0ZM371.76,104.41h-12.68v-9.61h11.28v-5.44h-11.28v-8.36h11.95v-5.57h-18.6v34.56h19.33v-5.57Z" fill="#fff" fill-rule="evenodd"/><rect x="168.95" y="400.89" width="107.43" height="6.63" fill="#dfedfa"/><circle cx="153.91" cy="381.94" r="74" fill="#00a651"/><path d="M177.03,372.69h-13.88v-13.88c0-5.11-4.14-9.25-9.25-9.25s-9.25,4.14-9.25,9.25v13.88h-13.88c-5.11,0-9.25,4.14-9.25,9.25s4.14,9.25,9.25,9.25h13.88v13.88c0,5.11,4.14,9.25,9.25,9.25s9.25-4.14,9.25-9.25v-13.88h13.88c5.11,0,9.25-4.14,9.25-9.25s-4.14-9.25-9.25-9.25Z" fill="#fff"/></svg>