<?xml version="1.0" encoding="UTF-8"?><svg id="Layer_1" xmlns="http://www.w3.org/2000/svg" viewBox="0 0 500 500"><path d="M424.7,286.4v-156.57c0-.65-.04-1.3-.13-1.94-.04-.32-.1-.64-.16-.95-.31-1.52-.86-3.02-1.68-4.44-.22-.39-.46-.76-.71-1.11-.13-.19-.27-.37-.41-.55-.17-.23-.35-.44-.53-.65-.21-.24-.43-.47-.65-.7-.17-.17-.34-.33-.52-.49-.3-.28-.61-.54-.93-.78-.25-.19-.51-.38-.78-.56-.27-.18-.53-.35-.81-.51-.06-.03-.11-.06-.16-.09L219.84,3.1c-4.53-2.62-10.11-2.62-14.65,0L7.77,117.08c-.11.06-.21.11-.31.18-.22.13-.43.26-.63.4-.58.38-1.14.82-1.67,1.3-.59.53-1.13,1.11-1.61,1.72-.05.05-.09.1-.13.16-.14.18-.28.36-.41.55-.25.35-.49.72-.71,1.11-.65,1.13-1.13,2.3-1.45,3.5-.09.31-.16.62-.22.94-.07.31-.12.63-.16.95-.09.65-.13,1.29-.13,1.94v228.09c0,5.23,2.79,10.07,7.32,12.68l197.26,113.89c.14.08.27.16.4.23.21.12.42.23.63.34.07.03.15.07.22.11.25.12.51.23.77.34.23.1.46.18.69.26.13.05.26.09.39.13.25.08.49.16.74.22.22.06.44.11.67.16.05.01.09.02.14.03.17.04.34.07.52.09.1.03.21.04.32.05.17.03.34.06.51.07.09.01.18.02.27.02.16.03.33.04.5.04.27.02.55.03.83.03.54,0,1.08-.03,1.61-.09.16-.02.33-.04.49-.06.13-.02.25-.04.38-.07.15-.02.31-.04.46-.08h.01c.27-.06.54-.12.8-.19.25-.06.5-.13.74-.22.13-.04.26-.08.39-.13.23-.08.46-.16.69-.26.26-.11.52-.22.77-.34.08-.04.15-.08.22-.11.21-.11.42-.22.63-.34.13-.07.27-.15.4-.23l74.61-43.07c18.4,34.17,54.53,57.45,95.99,57.45,60.08,0,108.95-48.87,108.95-108.95,0-48.21-31.47-89.21-74.96-103.52ZM212.52,32.69l168.24,97.13-168.24,97.14L44.28,129.82,212.52,32.69ZM29.63,155.2l168.24,97.13v194.27L29.63,349.46v-194.26ZM227.16,446.61v-194.28l168.25-97.14v125.89c-1.56-.08-3.13-.11-4.7-.11-60.07,0-108.95,48.88-108.95,108.95,0,8.12.89,16.04,2.6,23.66l-57.2,33.03ZM390.71,469.58c-43.92,0-79.66-35.73-79.66-79.66s35.74-79.66,79.66-79.66,79.66,35.74,79.66,79.66-35.73,79.66-79.66,79.66Z" fill="#319241"/><path d="M5.16,118.96c-.59.53-1.13,1.11-1.61,1.72.49-.63,1.03-1.2,1.61-1.72Z" fill="#319241"/><path d="M452.07,391.05c0,8.09-6.55,14.65-14.64,14.65h-31.92v31.92c0,8.09-6.56,14.64-14.65,14.64s-14.64-6.55-14.64-14.64v-31.92h-31.92c-8.09,0-14.65-6.56-14.65-14.65s6.56-14.64,14.65-14.64h31.92v-31.92c0-8.09,6.55-14.65,14.64-14.65s14.65,6.56,14.65,14.65v31.92h31.92c8.09,0,14.64,6.55,14.64,14.64Z" fill="#319241"/></svg>