<?xml version="1.0" encoding="UTF-8"?><svg id="Layer_1" xmlns="http://www.w3.org/2000/svg" xmlns:xlink="http://www.w3.org/1999/xlink" viewBox="0 0 55.49 48.33"><defs><style>.cls-1{fill:none;}.cls-2{fill:currentColor;}.cls-3{clip-path:url(#clippath);}</style><clipPath id="clippath"><rect class="cls-1" x="13.56" y="-8.42" width="28.37" height="28.37"/></clipPath></defs><g class="cls-3"><path class="cls-2" d="M31.32,5.81c.11-.49.56-2.41.66-2.86h-2.85v1.97c.8.05,1.58.37,2.18.89Z"/><path class="cls-2" d="M25.15,8.68s0-1.34,0-1.37c0-.76-.41-1.15-.85-1.7-.53-.66-.7-1.4-.67-2.23h-2.14c.04.83-.13,1.57-.67,2.23-.44.55-.85.94-.85,1.7v1.37h5.17Z"/><path class="cls-2" d="M24.33,2.23V.78h-3.52v1.44h3.52Z"/><path class="cls-2" d="M32.64,8.68h2.61l1.32-5.69c.22-.87-.37-1.81-1.24-2-.89-.21-1.79.35-1.99,1.24,0,0,0,0,0,0-.09.41-.98,4.23-1.1,4.73.26.51.41,1.1.4,1.71Z"/><path class="cls-2" d="M31.48,8.68c.03-1.32-1.01-2.49-2.34-2.6-1.48-.16-2.86,1.07-2.83,2.6h5.17Z"/><path class="cls-2" d="M18.1,9.84h19.29v1.44h-19.29v-1.44Z"/><path class="cls-2" d="M19.18,12.44l1.35,8.07h14.45l1.35-8.07h-17.15ZM23.32,18.79h-1.16v-4.98h1.16v4.98ZM32.18,13.81h1.16v4.98h-1.16v-4.98ZM28.84,13.81h1.16v4.98h-1.16v-4.98ZM26.66,13.81v4.98h-1.16v-4.98h1.16Z"/></g><path class="cls-2" d="M31.52,37.55h-7.54c-.89,0-1.62.72-1.62,1.62v7.54c0,.89.72,1.62,1.62,1.62h7.54c.89,0,1.62-.72,1.62-1.62v-7.54c0-.89-.72-1.62-1.62-1.62Z"/><path class="cls-2" d="M53.75,37.55h-7.54c-.89,0-1.62.72-1.62,1.62v7.54c0,.89.72,1.62,1.62,1.62h7.54c.89,0,1.62-.72,1.62-1.62v-7.54c0-.89-.72-1.62-1.62-1.62Z"/><path class="cls-2" d="M9.28,37.55H1.74c-.89,0-1.62.72-1.62,1.62v7.54c0,.89.72,1.62,1.62,1.62h7.54c.89,0,1.62-.72,1.62-1.62v-7.54c0-.89-.72-1.62-1.62-1.62Z"/><path class="cls-2" d="M7.1,29.88h19v4.44h3.24v-4.44h19v4.44h3.24v-6.06c0-.9-.72-1.62-1.62-1.62h-20.62v-4.52c-.53.05-1.07.08-1.62.08s-1.09-.03-1.62-.08v4.52H5.48c-.89,0-1.62.73-1.62,1.62v6.06h3.24v-4.44Z"/></svg>