<svg width="36" height="36" viewBox="0 0 36 36" fill="none" xmlns="http://www.w3.org/2000/svg">
<path d="M2.18676 13.5016L18 4.50272L33.8132 13.5015C34.6862 13.4735 35.4677 12.9458 35.8151 12.1429C36.3088 11.0017 35.78 9.67796 34.6339 9.18631L18.8936 0.183597C18.323 -0.0611991 17.6764 -0.0611991 17.1058 0.183597L1.36548 9.18631C0.536819 9.54181 0 10.3542 0 11.2527C0 12.4711 0.972547 13.4634 2.18676 13.5016Z" fill="black"/>
<path d="M18 8.38594L3.375 16.7086V33.75C3.375 34.9926 4.38236 36 5.625 36H13.5V24.75C13.5 23.5074 14.5074 22.5 15.75 22.5H20.25C21.4926 22.5 22.5 23.5074 22.5 24.75V36H30.375C31.6176 36 32.625 34.9926 32.625 33.75V16.7086L18 8.38594Z" fill="black"/>
</svg>
