<?xml version="1.0" encoding="UTF-8"?><svg id="Layer_1" xmlns="http://www.w3.org/2000/svg" viewBox="0 0 512 512"><path d="M457.03,136.67c-4.55-5.07-12.03-13.4-13.32-16.78v-18.75c0-19.05-15.55-34.55-34.67-34.55h-89.61c-19.12,0-34.67,15.5-34.67,34.55v18.7c-1.33,3.47-8.78,11.77-13.32,16.83-21.1,23.51-52.99,59.04-52.99,132.7v194.91c0,29.82,26.22,54.07,58.46,54.07h174.65c32.23,0,58.46-24.25,58.46-54.07v-194.91c0-73.65-31.89-109.19-52.99-132.7ZM441.91,450.24h-155.35v-180.87c0-47.57,17.28-66.82,35.57-87.2,11.6-12.93,24.56-27.36,29.16-47.47h25.88c4.61,20.11,17.57,34.54,29.17,47.47,18.29,20.38,35.57,39.63,35.57,87.2v180.87Z"/><path d="M441.31,81.17h-151.38c-7.7,0-13.97-8.09-13.97-18.03V18.35c0-9.94,6.27-18.03,13.97-18.03h151.38c7.7,0,13.97,8.09,13.97,18.03v44.78c0,9.94-6.27,18.03-13.97,18.03Z"/><path d="M201.74,189.61c-3.87-4.31-10.22-11.38-11.31-14.25v-15.92c0-16.17-13.2-29.33-29.44-29.33h-76.07c-16.23,0-29.43,13.16-29.43,29.33v15.88c-1.13,2.94-7.46,9.99-11.31,14.29C26.27,209.56-.81,239.73-.81,302.26v165.47c0,25.32,22.26,45.9,49.63,45.9h148.27c27.36,0,49.63-20.58,49.63-45.9v-165.47c0-62.52-27.07-92.7-44.98-112.65ZM188.9,455.81H57.02v-153.55c0-40.38,14.67-56.73,30.19-74.03,9.85-10.97,20.85-23.22,24.76-40.3h21.97c3.91,17.08,14.91,29.33,24.76,40.3,15.53,17.3,30.2,33.65,30.2,74.03v153.55Z"/><path d="M188.39,142.49H59.87c-6.54,0-11.86-6.87-11.86-15.31v-38.02c0-8.44,5.32-15.31,11.86-15.31h128.52c6.54,0,11.86,6.87,11.86,15.31v38.02c0,8.44-5.32,15.31-11.86,15.31Z"/></svg>