<?xml version="1.0" encoding="UTF-8"?><svg id="Layer_1" xmlns="http://www.w3.org/2000/svg" viewBox="0 0 500 500"><path d="M404.24,93.98v349.44c0,3.56-2.89,6.45-6.45,6.45H114.32c-3.56,0-6.45-2.89-6.45-6.45V45.9c0-3.56,2.89-6.45,6.45-6.45h234.97l54.95,54.53Z" fill="#61a0e0"/><path d="M157.26,39.45v-2.15c0-6.4-5.19-11.59-11.59-11.59h0c-6.4,0-11.59,5.19-11.59,11.59v45.09c0,6.4,5.19,11.59,11.59,11.59h0c6.4,0,11.59-5.19,11.59-11.59v-26.85c0-3.2-2.59-5.79-5.79-5.79h0c-3.2,0-5.79,2.59-5.79,5.79v16.27" fill="none" stroke="#1e375b" stroke-miterlimit="10" stroke-width="4.08"/><path d="M404.24,93.98h-47.66c-4.02,0-7.29-3.26-7.29-7.29v-47.25l54.95,54.53Z" fill="#1e375b"/><rect x="130.34" y="103.27" width="82.7" height="14.43" fill="#fff" opacity=".62"/><rect x="130.34" y="150.72" width="49.95" height="7.22" fill="#fff" opacity=".62"/><rect x="331.81" y="150.72" width="49.95" height="7.22" fill="#fff" opacity=".62"/><rect x="225.73" y="150.72" width="90.33" height="7.22" fill="#fff" opacity=".62"/><rect x="130.34" y="164.18" width="49.95" height="7.22" fill="#fff" opacity=".62"/><rect x="331.81" y="164.18" width="49.95" height="7.22" fill="#fff" opacity=".62"/><rect x="225.73" y="164.18" width="90.33" height="7.22" fill="#fff" opacity=".62"/><rect x="130.34" y="177.64" width="49.95" height="7.22" fill="#fff" opacity=".62"/><rect x="331.81" y="177.64" width="49.95" height="7.22" fill="#fff" opacity=".62"/><rect x="225.73" y="177.64" width="90.33" height="7.22" fill="#fff" opacity=".62"/><rect x="130.34" y="191.1" width="49.95" height="7.22" fill="#fff" opacity=".62"/><rect x="331.81" y="191.1" width="49.95" height="7.22" fill="#fff" opacity=".62"/><rect x="225.73" y="191.1" width="90.33" height="7.22" fill="#fff" opacity=".62"/><rect x="130.34" y="204.56" width="49.95" height="7.22" fill="#fff" opacity=".62"/><rect x="331.81" y="204.56" width="49.95" height="7.22" fill="#fff" opacity=".62"/><rect x="225.73" y="204.56" width="90.33" height="7.22" fill="#fff" opacity=".62"/><rect x="130.34" y="218.02" width="49.95" height="7.22" fill="#fff" opacity=".62"/><rect x="331.81" y="218.02" width="49.95" height="7.22" fill="#fff" opacity=".62"/><rect x="225.73" y="218.02" width="90.33" height="7.22" fill="#fff" opacity=".62"/><rect x="130.34" y="231.48" width="49.95" height="7.22" fill="#fff" opacity=".62"/><rect x="331.81" y="231.48" width="49.95" height="7.22" fill="#fff" opacity=".62"/><rect x="225.73" y="231.48" width="90.33" height="7.22" fill="#fff" opacity=".62"/><rect x="130.34" y="244.94" width="49.95" height="7.22" fill="#fff" opacity=".62"/><rect x="331.81" y="244.94" width="49.95" height="7.22" fill="#fff" opacity=".62"/><rect x="225.73" y="244.94" width="90.33" height="7.22" fill="#fff" opacity=".62"/><rect x="130.34" y="127" width="251.42" height="14.43" fill="#1e375b"/><rect x="136.3" y="131.58" width="91.86" height="5.27" fill="#fff"/><rect x="130.34" y="290.17" width="49.95" height="7.22" fill="#fff" opacity=".62"/><rect x="331.81" y="290.17" width="49.95" height="7.22" fill="#fff" opacity=".62"/><rect x="225.73" y="290.17" width="90.33" height="7.22" fill="#fff" opacity=".62"/><rect x="130.34" y="303.63" width="49.95" height="7.22" fill="#fff" opacity=".62"/><rect x="331.81" y="303.63" width="49.95" height="7.22" fill="#fff" opacity=".62"/><rect x="225.73" y="303.63" width="90.33" height="7.22" fill="#fff" opacity=".62"/><rect x="130.34" y="317.09" width="49.95" height="7.22" fill="#fff" opacity=".62"/><rect x="331.81" y="317.09" width="49.95" height="7.22" fill="#fff" opacity=".62"/><rect x="225.73" y="317.09" width="90.33" height="7.22" fill="#fff" opacity=".62"/><rect x="130.34" y="330.55" width="49.95" height="7.22" fill="#fff" opacity=".62"/><rect x="331.81" y="330.55" width="49.95" height="7.22" fill="#fff" opacity=".62"/><rect x="225.73" y="330.55" width="90.33" height="7.22" fill="#fff" opacity=".62"/><rect x="130.34" y="344" width="49.95" height="7.22" fill="#fff" opacity=".62"/><rect x="331.81" y="344" width="49.95" height="7.22" fill="#fff" opacity=".62"/><rect x="225.73" y="344" width="90.33" height="7.22" fill="#fff" opacity=".62"/><rect x="130.34" y="357.46" width="49.95" height="7.22" fill="#fff" opacity=".62"/><rect x="331.81" y="357.46" width="49.95" height="7.22" fill="#fff" opacity=".62"/><rect x="225.73" y="357.46" width="90.33" height="7.22" fill="#fff" opacity=".62"/><rect x="130.34" y="370.92" width="49.95" height="7.22" fill="#fff" opacity=".62"/><rect x="331.81" y="370.92" width="49.95" height="7.22" fill="#fff" opacity=".62"/><rect x="225.73" y="370.92" width="90.33" height="7.22" fill="#fff" opacity=".62"/><rect x="130.34" y="384.38" width="49.95" height="7.22" fill="#fff" opacity=".62"/><rect x="331.81" y="384.38" width="49.95" height="7.22" fill="#fff" opacity=".62"/><rect x="225.73" y="384.38" width="90.33" height="7.22" fill="#fff" opacity=".62"/><rect x="130.34" y="266.44" width="251.42" height="14.43" fill="#1e375b"/><rect x="136.3" y="271.02" width="91.86" height="5.27" fill="#fff"/><rect x="155.63" y="406.77" width="46.92" height="6.78" fill="#fff" opacity=".67"/><rect x="155.63" y="417.92" width="29.98" height="6.78" fill="#fff" opacity=".67"/><rect x="130.34" y="406.15" width="19.16" height="19.16" rx="7.91" ry="7.91" fill="#1e375b"/><polyline points="134.36 415.19 137.88 418.71 145.48 412.76" fill="none" stroke="#fff" stroke-miterlimit="10" stroke-width="2.04"/><rect x="245.23" y="406.77" width="46.92" height="6.78" fill="#fff" opacity=".67"/><rect x="245.23" y="417.92" width="29.98" height="6.78" fill="#fff" opacity=".67"/><rect x="219.95" y="406.15" width="19.16" height="19.16" rx="7.91" ry="7.91" fill="#1e375b"/><polyline points="223.97 415.19 227.49 418.71 235.09 412.76" fill="none" stroke="#fff" stroke-miterlimit="10" stroke-width="2.04"/><rect x="334.84" y="406.77" width="46.92" height="6.78" fill="#fff" opacity=".67"/><rect x="334.84" y="417.92" width="29.98" height="6.78" fill="#fff" opacity=".67"/><rect x="309.55" y="406.15" width="19.16" height="19.16" rx="7.91" ry="7.91" fill="#1e375b"/><polyline points="313.57 415.19 317.09 418.71 324.7 412.76" fill="none" stroke="#fff" stroke-miterlimit="10" stroke-width="2.04"/><circle cx="110.16" cy="381.46" r="72.59" fill="#009245"/><path d="M88.13,348.85c-7.36,0-13.45,6.09-13.45,13.45v47.07c0,7.36,6.09,13.45,13.45,13.45h47.07c7.36,0,13.45-6.09,13.45-13.45v-47.07c0-7.36-6.09-13.45-13.45-13.45h-47.07ZM100.66,385.83c0-1.86,1.51-3.36,3.36-3.36h27.51c1.86,0,3.36,1.51,3.36,3.36s-1.51,3.36-3.36,3.36h-27.51c-1.86,0-3.36-1.51-3.36-3.36h0ZM104.02,400.81c-1.86,0-3.36,1.51-3.36,3.36s1.51,3.36,3.36,3.36h27.51c1.86,0,3.36-1.51,3.36-3.36s-1.51-3.36-3.36-3.36h-27.51ZM100.66,367.5c0-1.86,1.51-3.36,3.36-3.36h27.51c1.86,0,3.36,1.51,3.36,3.36s-1.51,3.36-3.36,3.36h-27.51c-1.86,0-3.36-1.51-3.36-3.36h0ZM95.77,367.5c0,2.19-1.78,3.97-3.97,3.97s-3.97-1.78-3.97-3.97,1.78-3.97,3.97-3.97,3.97,1.78,3.97,3.97ZM91.79,389.81c2.19,0,3.97-1.78,3.97-3.97s-1.78-3.97-3.97-3.97-3.97,1.78-3.97,3.97,1.78,3.97,3.97,3.97ZM95.77,404.17c0,2.19-1.78,3.97-3.97,3.97s-3.97-1.78-3.97-3.97,1.78-3.97,3.97-3.97,3.97,1.78,3.97,3.97Z" fill="#fff" fill-rule="evenodd"/></svg>