<svg width="49" height="49" viewBox="0 0 49 49" fill="none" xmlns="http://www.w3.org/2000/svg">
<circle cx="24.5" cy="24.5" r="24.5" fill="#2CA32C"/>
<path d="M29.8966 10.7291C28.8764 10.912 27.8759 11.3003 27.0923 11.9707C26.422 12.5433 26.123 13.2793 25.9799 14.1355C25.9799 14.1355 27.9241 12.5698 29.9873 12.2193C29.9505 12.2374 27.9057 13.2821 26.0323 15.1634C25.7347 15.4623 25.3181 15.8589 25.3181 15.8589C25.3181 15.8589 25.3011 13.5894 25.1467 11.9525C24.8505 8.80447 24.3007 6.831 24.2808 6.78631C25.875 8.69832 26.3951 11.6215 26.3951 11.6215C26.9449 10.7332 27.2581 9.8338 27.1065 8.79609C26.9279 7.5824 26.3285 6.4567 25.5477 5.50279C24.7669 4.54888 23.8075 3.7514 22.8241 3C21.4921 4.52654 21.0358 6.7486 21.6607 8.6648C22.0957 9.99721 23.0423 11.1508 24.2468 11.8897C24.2171 12.6662 24.1533 14.2235 24.074 15.6662C23.8812 15.4078 23.68 15.1634 23.4745 14.9344C21.8038 13.0615 19.8837 12.1453 19.8497 12.1285C21.801 12.4609 23.6403 13.9413 23.6403 13.9413C23.5043 13.1313 23.2209 12.4358 22.5875 11.8939C21.8463 11.2598 20.8997 10.8925 19.9347 10.7193C18.9697 10.5461 17.9806 10.5573 17 10.6089C17.0028 12.1969 17.8927 13.7556 19.2673 14.5824C20.2961 15.2011 21.57 15.3939 22.7462 15.1494C23.1529 15.4944 23.6375 15.9986 24.0144 16.6746C23.9776 17.2556 23.9379 18.4679 23.8982 19.1131C21.621 19.2542 19.0817 19.4218 17.5881 20.3966C19.3906 21.7235 22.1864 23 24.6805 23C27.1745 23 29.7294 21.8575 31.5532 20.4679C30.0639 19.5433 27.9269 19.2388 25.7092 19.1103C25.6667 18.4539 25.6285 17.3561 25.5973 17.0014C25.9941 16.2975 26.5014 15.7709 26.9265 15.4106C28.1707 15.669 29.5169 15.4651 30.6038 14.8115C32.0577 13.9372 32.9972 12.2891 33 10.6117C31.9641 10.5573 30.9183 10.5447 29.8981 10.7277L29.8966 10.7291Z" fill="white"/>
<path d="M24.5007 45C20.5834 45 17.5211 43.9118 15.3124 41.7355C13.1037 39.5591 12 36.4534 12 32.4156V17H16.9693C17.753 17 18.3887 17.634 18.3887 18.4156V32.1801C18.3887 34.8023 18.9265 36.6903 20.005 37.8439C21.0821 38.9976 22.5937 39.5744 24.5398 39.5744C26.4859 39.5744 27.9961 38.9976 29.0746 37.8439C30.1517 36.6903 30.691 34.8023 30.691 32.1801V18.2609C30.691 17.5643 31.2568 17 31.9553 17H37V32.4156C37 36.4534 35.8963 39.5605 33.6876 41.7355C31.4789 43.9118 28.4166 45 24.4993 45H24.5007Z" fill="white"/>
<path d="M17.0015 21H32V35.7627C32 38.1006 30.0523 40 27.6517 40H21.3483C18.9492 40 17 38.102 17 35.7627V21H17.0015Z" fill="#2CA32C"/>
<path d="M29 26H20V28H29V26Z" fill="white"/>
<path d="M29 30H20V32H29V30Z" fill="white"/>
</svg>
