<?xml version="1.0" encoding="UTF-8"?><svg id="Layer_1" xmlns="http://www.w3.org/2000/svg" viewBox="0 0 500 500"><path d="M304.79,325.12c-2.65-3.4-4.23-7.67-4.23-12.3,0-3.58.95-6.95,2.61-9.86,3.44-6.04,9.95-10.12,17.39-10.12,10.96,0,19.98,8.95,19.98,19.98s-9.02,20.01-19.98,20.01c-6.4,0-12.11-3.02-15.77-7.71Z" fill="#319241"/><path d="M389.85,309.01l-73.11,73.18c-1.26,1.21-2.9,1.83-4.46,1.83s-3.2-.62-4.44-1.83c-2.45-2.43-2.45-6.45,0-8.88l73.18-73.13c2.43-2.5,6.4-2.5,8.83,0,2.5,2.43,2.5,6.4,0,8.83Z" fill="#319241"/><path d="M397.19,369.47c0,11.03-8.95,20-19.98,20s-20.01-8.97-20.01-20,8.98-19.98,20.01-19.98,19.98,8.95,19.98,19.98Z" fill="#319241"/><g id="new-release"><circle cx="414.43" cy="273.72" r="10.47" fill="#319241"/><path d="M166.74,322.56H41.09c-5.78,0-10.47-4.69-10.47-10.47v-125.65c0-5.78,4.69-10.47,10.47-10.47h125.65c5.78,0,10.47,4.69,10.47,10.47v125.65c0,5.78-4.69,10.47-10.47,10.47ZM51.56,301.62h104.71v-104.71H51.56v104.71Z" fill="#319241"/><path d="M166.74,155.02H41.09c-5.78,0-10.47-4.69-10.47-10.47V18.9c0-5.78,4.69-10.47,10.47-10.47h125.65c5.78,0,10.47,4.69,10.47,10.47v125.65c0,5.78-4.69,10.47-10.47,10.47ZM51.56,134.08h104.71V29.37H51.56v104.71Z" fill="#319241"/><path d="M462.55,245.18c-.71-10.45-9.03-18.77-19.48-19.48l-98.32-6.49v-32.77c0-5.78-4.69-10.47-10.47-10.47h-125.65c-5.78,0-10.47,4.69-10.47,10.47v125.65c0,5.78,4.69,10.47,10.47,10.47h23.77l-32.67,32.67c-4.06,4.08-4.06,10.68,0,14.76l118.43,118.53c4.08,4.06,10.68,4.06,14.76,0l133.4-133.3c2.12-2.13,3.23-5.06,3.04-8.06l-6.81-101.99ZM219.1,301.62v-104.71h104.71v34.24l-70.47,70.47h-34.24ZM325.59,466.33l-103.66-103.66,122.83-122.51,97.17,6.49,6.18,96.86-122.51,122.83Z" fill="#319241"/><path d="M334.28,155.02h-125.65c-5.78,0-10.47-4.69-10.47-10.47V18.9c0-5.78,4.69-10.47,10.47-10.47h125.65c5.78,0,10.47,4.69,10.47,10.47v125.65c0,5.78-4.69,10.47-10.47,10.47ZM219.1,134.08h104.71V29.37h-104.71v104.71Z" fill="#319241"/></g></svg>