<?xml version="1.0" encoding="UTF-8"?><svg id="Layer_1" xmlns="http://www.w3.org/2000/svg" viewBox="0 0 500 500"><rect x="107.67" y="49.39" width="214.95" height="16.65" fill="#ffd11d"/><rect x="107.67" y="66.03" width="214.95" height="300.21" fill="#ebe5ee"/><rect x="126.18" y="126.55" width="80.52" height="7.08" fill="#b0b0b0"/><rect x="126.18" y="155.54" width="177.93" height="7.08" fill="#b0b0b0"/><rect x="126.18" y="171.64" width="177.93" height="7.08" fill="#b0b0b0"/><rect x="126.18" y="187.74" width="177.93" height="7.08" fill="#b0b0b0"/><rect x="126.18" y="203.84" width="177.93" height="7.09" fill="#b0b0b0"/><rect x="126.18" y="219.96" width="177.93" height="7.08" fill="#b0b0b0"/><rect x="126.18" y="236.06" width="177.93" height="7.08" fill="#b0b0b0"/><rect x="126.18" y="252.17" width="177.93" height="7.08" fill="#b0b0b0"/><rect x="126.18" y="268.27" width="177.93" height="7.09" fill="#b0b0b0"/><rect x="126.18" y="284.29" width="177.93" height="7.09" fill="#b0b0b0"/><rect x="126.18" y="300.39" width="177.93" height="7.08" fill="#b0b0b0"/><rect x="126.18" y="316.49" width="177.93" height="7.09" fill="#b0b0b0"/><rect x="142.53" y="87.56" width="214.95" height="16.65" fill="#ffd11d"/><rect x="142.53" y="104.21" width="214.95" height="300.21" fill="#cddaeb"/><rect x="161.03" y="164.72" width="80.52" height="7.08" fill="#b0b0b0"/><rect x="161.03" y="193.71" width="177.93" height="7.08" fill="#b0b0b0"/><rect x="161.03" y="209.81" width="177.93" height="7.09" fill="#b0b0b0"/><rect x="161.03" y="225.91" width="177.93" height="7.08" fill="#b0b0b0"/><rect x="161.03" y="242.01" width="177.93" height="7.09" fill="#b0b0b0"/><rect x="161.03" y="258.14" width="177.93" height="7.08" fill="#b0b0b0"/><rect x="161.03" y="274.24" width="177.93" height="7.08" fill="#b0b0b0"/><rect x="161.03" y="290.34" width="177.93" height="7.08" fill="#b0b0b0"/><rect x="161.03" y="306.44" width="177.93" height="7.09" fill="#b0b0b0"/><rect x="161.03" y="322.46" width="177.93" height="7.09" fill="#b0b0b0"/><rect x="161.03" y="338.56" width="177.93" height="7.08" fill="#b0b0b0"/><rect x="161.03" y="354.66" width="177.93" height="7.09" fill="#b0b0b0"/><rect x="177.38" y="125.83" width="214.95" height="16.65" fill="#ffd11d"/><rect x="177.38" y="142.48" width="214.95" height="300.21" fill="#ece4df"/><rect x="195.89" y="202.99" width="80.52" height="7.08" fill="#b0b0b0"/><rect x="195.89" y="231.98" width="177.93" height="7.08" fill="#b0b0b0"/><rect x="195.89" y="248.08" width="177.93" height="7.08" fill="#b0b0b0"/><rect x="195.89" y="264.18" width="177.93" height="7.08" fill="#b0b0b0"/><rect x="195.89" y="280.28" width="177.93" height="7.09" fill="#b0b0b0"/><rect x="195.89" y="296.41" width="177.93" height="7.08" fill="#b0b0b0"/><rect x="195.89" y="312.51" width="177.93" height="7.09" fill="#b0b0b0"/><rect x="195.89" y="328.61" width="177.93" height="7.08" fill="#b0b0b0"/><rect x="195.89" y="344.71" width="177.93" height="7.09" fill="#b0b0b0"/><rect x="195.89" y="360.73" width="177.93" height="7.09" fill="#b0b0b0"/><rect x="195.89" y="376.83" width="177.93" height="7.08" fill="#b0b0b0"/><rect x="195.89" y="392.93" width="177.93" height="7.09" fill="#b0b0b0"/><g id="Layer_1-2"><path d="M177.27,374.51c.02,38.06-30.82,68.92-68.87,68.94-20.62.01-40.16-9.21-53.26-25.14l53.18-43.81v-68.95c38.06.04,68.9,30.89,68.95,68.95h0Z" fill="#00a651"/></g><g id="Layer_2"><path d="M50.69,415.43c-2.1,1.77-2.37,4.9-.61,7,0,0,0,0,0,0,26.39,31.72,73.49,36.05,105.22,9.66,31.72-26.39,36.05-73.49,9.66-105.22-14.22-17.1-35.32-26.97-57.56-26.94-2.75,0-4.97,2.23-4.97,4.97s2.23,4.97,4.97,4.97c35.69.12,64.52,29.14,64.41,64.83-.12,35.69-29.14,64.52-64.83,64.41-19.03-.06-37.06-8.5-49.29-23.08-1.78-2.09-4.9-2.36-7.01-.61h0Z"/><path d="M112.65,334.74c0-2.75-2.23-4.97-4.97-4.97s-4.97,2.23-4.97,4.97v37.43l-28.04,23.36c-2.11,1.76-2.39,4.89-.64,7,1.78,2.07,4.88,2.35,7.01.64l29.82-24.85c1.09-.97,1.73-2.35,1.78-3.81v-39.76Z"/><path d="M55.31,333.1c1.43,0,2.79-.62,3.74-1.69,1.82-2.05,1.63-5.2-.42-7.02-2.05-1.82-5.2-1.63-7.02.42-1.81,2.04-1.64,5.17.39,6.99.91.82,2.08,1.28,3.3,1.29Z"/><path d="M41.39,397.87c-2.5,1.06-3.66,3.94-2.6,6.44.02.04.03.08.05.12,1.11,2.51,4.05,3.65,6.56,2.53,2.51-1.11,3.65-4.05,2.53-6.56-1.11-2.51-4.04-3.64-6.55-2.54Z"/><path d="M70.58,320.27c2.75-.02,4.95-2.26,4.93-5.01,0-.88-.25-1.74-.69-2.49-1.46-2.36-4.54-3.09-6.9-1.64-2.33,1.42-3.06,4.45-1.64,6.78.91,1.49,2.54,2.39,4.29,2.36h.02Z"/><path d="M88.79,312.37c2.75-.03,4.95-2.28,4.92-5.02-.03-2.75-2.28-4.95-5.02-4.92-2.75.03-4.95,2.28-4.92,5.02,0,.44.07.88.19,1.3.66,2.13,2.61,3.59,4.84,3.62Z"/><path d="M37.65,368.44c2.69.36,5.2-1.45,5.69-4.13.43-2.72-1.42-5.28-4.14-5.72-2.67-.46-5.21,1.33-5.67,4,0,.04-.01.09-.02.13-.44,2.71,1.39,5.27,4.1,5.71.01,0,.03,0,.04,0Z"/><path d="M42.19,349.06c2.49,1.16,5.45.09,6.61-2.4,1.16-2.49.09-5.45-2.4-6.61-2.49-1.16-5.44-.09-6.61,2.39-1.15,2.49-.08,5.44,2.4,6.61Z"/><path d="M38.09,388.27c2.75,0,4.97-2.23,4.96-4.98,0-2.75-2.23-4.97-4.98-4.96s-4.97,2.23-4.96,4.98c0,.21.01.43.04.64.34,2.47,2.44,4.32,4.94,4.32Z"/></g></svg>