<?xml version="1.0" encoding="UTF-8"?><svg id="Layer_1" xmlns="http://www.w3.org/2000/svg" viewBox="0 0 55.49 48.33"><defs><style>.cls-1,.cls-2{fill:currentColor;}.cls-2{fill-rule:evenodd;}</style></defs><path class="cls-1" d="M43.19,42.84h-1.82l-15.07,4.97c-.47.24-2.37,1.09-4.35-.05h-.01S1.29,36.27,1.29,36.27c-.08-.04-.14-.09-.2-.15-.06-.06-1.84-1.87-.72-3.97,0-.01,1.24-2.62,3.62-1.97,5.99,1.66,9.86,5.11,13.43,5.99,4.65.83,7.9.55,12.28-1.31-1.33-.13-3.44-.01-5.62.08-.67.03-1.33.05-2,.08-6.59.18-6.89-1.98-5.49-3.56,1.34-1.51,2.52-1.55,4.25-1.55h6.59c1.05-.47,6.47-2.88,9.37-3.41h.04c1.31-.23,2.92-.31,4.38-.31.7,0,1.38.01,1.96.03v16.61h0Z"/><path class="cls-1" d="M45.99,22.38h7.55c.52,0,1.01.22,1.37.56.35.36.56.83.56,1.37v20.38c0,.52-.22,1.01-.56,1.37-.36.35-.83.56-1.37.56h-7.55c-.5,0-.96-.19-1.31-.51-.03-.01-.04-.04-.06-.06-.35-.35-.56-.83-.56-1.37v-20.38c0-.54.22-1.02.56-1.37.36-.36.83-.58,1.37-.58v.03Z"/><path class="cls-2" d="M17.79,20.28c-.09.01-.2.03-.35.03-.18,0-.32-.01-.42-.03-.1-.01-.19-.04-.26-.08-.06-.03-.1-.08-.13-.12-.01-.05-.03-.1-.01-.17l.18-1.69c-.24-.04-.46-.08-.67-.13-.22-.05-.4-.12-.58-.17-.17-.06-.32-.13-.45-.19-.13-.06-.22-.13-.28-.19-.06-.06-.12-.15-.14-.28-.03-.13-.04-.31-.04-.55,0-.19,0-.35.01-.46.01-.13.03-.22.05-.28.03-.06.06-.12.1-.14.04-.03.09-.04.14-.04.08,0,.18.04.32.13.14.08.32.18.52.27.22.1.47.19.78.27.31.08.67.13,1.08.13.65,0,1.13-.13,1.43-.36.32-.24.47-.56.47-.96,0-.27-.06-.49-.2-.65-.14-.17-.32-.32-.54-.45-.23-.13-.49-.24-.77-.35-.28-.1-.58-.22-.87-.33-.29-.12-.59-.26-.87-.41-.28-.15-.54-.35-.77-.58-.23-.23-.41-.5-.54-.83-.14-.32-.2-.72-.2-1.18,0-.41.06-.79.2-1.13.14-.35.35-.64.6-.9.26-.26.58-.46.96-.61.38-.15.81-.27,1.29-.32l.17-1.66c0-.05.01-.08.04-.12.03-.03.05-.05.1-.08.05-.03.13-.04.22-.05.09-.01.2-.01.35-.01.17,0,.32.01.42.03.12.01.2.04.26.08.06.03.1.08.12.12.01.05.03.1.03.17l-.17,1.57c.15.03.32.05.49.09.17.04.33.09.49.14.14.05.28.12.41.17.13.05.2.12.26.15.05.05.09.09.1.14.03.05.05.1.06.17.01.08.03.15.03.24,0,.1.01.2.01.33,0,.17,0,.32-.01.42-.01.12-.03.19-.05.26-.03.05-.05.1-.08.12-.03.03-.06.03-.1.03-.08,0-.18-.04-.32-.1-.14-.08-.31-.15-.51-.23-.2-.08-.44-.17-.7-.23-.26-.08-.55-.1-.87-.1-.28,0-.54.03-.73.08-.2.05-.37.13-.5.23s-.22.22-.28.36c-.06.14-.09.29-.09.46,0,.26.06.47.2.65.14.18.32.33.55.46.23.13.49.24.78.35.29.1.59.22.88.33.31.12.6.26.88.4.29.15.55.35.78.56.23.22.41.5.55.81.14.32.2.7.2,1.15,0,.47-.09.91-.26,1.29-.17.38-.41.7-.72.99-.31.28-.68.5-1.13.67-.44.17-.92.27-1.45.32l-.18,1.78c0,.05-.01.08-.04.12-.03.04-.05.06-.1.09-.05.03-.13.04-.22.05l.05-.03ZM27.43,3.79c-2.34-2.34-5.58-3.79-9.17-3.79s-6.81,1.45-9.17,3.79c-2.34,2.34-3.79,5.58-3.79,9.17s1.45,6.81,3.79,9.17c2.34,2.34,5.58,3.79,9.17,3.79s6.81-1.45,9.17-3.79c2.34-2.34,3.79-5.58,3.79-9.17s-1.45-6.81-3.79-9.17Z"/></svg>