<?xml version="1.0" encoding="UTF-8"?><svg id="Layer_1" xmlns="http://www.w3.org/2000/svg" viewBox="0 0 38 38"><defs><style>.cls-1{fill-rule:evenodd;}</style></defs><path d="M11.08,19c.87,0,1.58-.71,1.58-1.58s-.71-1.58-1.58-1.58-1.58.71-1.58,1.58.71,1.58,1.58,1.58Z"/><path class="cls-1" d="M11.08,3.17c-.87,0-1.58.71-1.58,1.58v6.33h-1.58c-2.63,0-4.75,2.12-4.75,4.75v7.92c0,2.63,2.12,4.75,4.75,4.75h1.58v4.75c0,.87.71,1.58,1.58,1.58h15.83c.87,0,1.58-.71,1.58-1.58v-4.75h1.58c2.63,0,4.75-2.12,4.75-4.75v-7.92c0-2.63-2.12-4.75-4.75-4.75h-1.58v-2.38c0-.43-.17-.82-.46-1.12l-3.96-3.96c-.3-.3-.7-.46-1.12-.46h-11.88ZM8.64,24.38v1.77h-1.77c-.98,0-1.77-.79-1.77-1.77v-8.9c0-.98.79-1.77,1.77-1.77h24.94c.98,0,1.77.79,1.77,1.77v8.9c0,.98-.79,1.77-1.77,1.77h-1.77v-1.77c0-.98-.79-1.77-1.77-1.77H10.43c-.98,0-1.77.79-1.77,1.77h-.02ZM26.62,11.08v-2.11l-3.72-3.72h-11.81v5.83h15.53ZM11.45,33.11h15.15v-8.68h-15.15v8.68Z"/></svg>