<?xml version="1.0" encoding="UTF-8"?><svg id="Layer_1" xmlns="http://www.w3.org/2000/svg" viewBox="0 0 500 500"><path d="M448.74,87.34L368.88,7.48c-1.38-1.48-3.36-2.27-5.43-2.27H87.87c-21.32,0-38.79,17.47-38.79,38.79v411.99c0,21.42,17.37,38.79,38.79,38.79h324.24c21.42,0,38.79-17.37,38.79-38.79V92.76c.1-2.07-.69-4.05-2.17-5.43h0ZM371.15,31.37l53.69,53.69h-30.2c-12.93,0-23.49-10.56-23.49-23.49v-30.2ZM412.22,479.49H87.87c-12.93,0-23.49-10.56-23.49-23.49V44.01c0-12.93,10.56-23.49,23.49-23.49h267.88v41.06c0,21.42,17.37,38.79,38.79,38.79h41.06v355.53c.1,13.03-10.46,23.59-23.39,23.59h0Z" fill="#319241"/><path d="M338.66,162.59l9.91-3.22,10.17,31.25-9.91,3.22-10.17-31.25Z" fill="#319241"/><path d="M323.39,199.06l9.91-3.22,10.18,31.25-9.91,3.23-10.18-31.25Z" fill="#319241"/><path d="M147.76,214.25c-1.1,7.96,1.22,16.01,6.4,22.16l7.52,9.43v87.02h10.42v-78.81l7.53,5.02c1.75,1.17,4.03,1.17,5.78,0l12.73-8.5,12.73,8.49c1.75,1.17,4.03,1.17,5.78,0l12.73-8.49,12.73,8.49c1.75,1.17,4.03,1.17,5.78,0l12.73-8.49,12.73,8.49c1.75,1.17,4.03,1.17,5.78,0l12.73-8.49,10.42,6.94v158.69h-114.59v10.42h145.84c14.38-.02,26.02-11.67,26.04-26.04v-156.26c-.01-1.14-.41-2.25-1.12-3.15l30.1-80.13c4.05-10.77,2.57-22.83-3.97-32.29-6.21-9.18-16.58-14.67-27.66-14.64-14.13.13-26.71,8.96-31.64,22.19l-8.17,21.74-9.63-9.63v-18.68c0-2.88-2.33-5.21-5.21-5.21h-57.29c-2.88,0-5.21,2.33-5.21,5.21v8.94c-5.89-5.34-14.77-5.64-21.01-.71v-8.22c0-8.52-6.91-15.44-15.44-15.44s-15.44,6.91-15.44,15.44v8.23c-2.85-2.36-6.44-3.65-10.14-3.65-4.3-.01-8.42,1.72-11.42,4.81-6.18,6.37-6.22,16.48-.09,22.89l4.85,5.01c-1.76.81-3.37,1.93-4.73,3.32l-.03.02-.05.05c-1.21,1.25-2.22,2.68-2.97,4.25l-5.94-10.96-9.16,4.96,13.47,24.86c-.6.34-1.21.68-1.78,1.07-.21.14-.4.31-.61.46l-20.15-18.57-7.06,7.66,20.02,18.46c-2.3,3.52-3.79,7.5-4.36,11.66ZM257.75,239.99l-12.73,8.5-12.73-8.49c-1.75-1.17-4.03-1.17-5.78,0l-12.61,8.41c-.03-.52-.12-.97-.12-1.48-.03-11.45,8.23-21.24,19.52-23.12,11.29-1.89,22.29,4.68,25.98,15.51-.54.14-1.05.36-1.52.66ZM271.05,245.01l-.1-.07c-.63-10.95-6.52-20.91-15.82-26.73-9.3-5.82-20.84-6.76-30.96-2.54v-33.86h46.88v63.19ZM349.18,400.57c0,8.63-7,15.63-15.63,15.63h-20.83v-158.68l10.42-6.95,12.73,8.49c1.75,1.17,4.03,1.17,5.78,0l7.53-5.01v146.52ZM335.06,139.96c3.4-9.18,12.1-15.32,21.89-15.44,7.66-.02,14.81,3.78,19.1,10.12,4.6,6.66,5.64,15.15,2.78,22.73l-32.25,85.9-7.81,5.21-12.73-8.49c-1.75-1.17-4.03-1.17-5.78,0l-12.73,8.49-10.57-7.04,38.12-101.48ZM313.12,168.75l-27.64,73.58-4.01,2.68v-66.24l20.83-20.83,10.82,10.82ZM250.22,134.94h46.88v10.42h-46.88v-10.42ZM247.17,155.77h42.56l-15.63,15.63h-42.56l15.63-15.63ZM173.8,146.43c1.05-1.08,2.48-1.69,3.98-1.69,1.5,0,2.94.61,3.99,1.69l7.65,7.81c1.49,1.52,3.74,1.98,5.7,1.17,1.96-.81,3.24-2.73,3.22-4.85v-20.83c-.08-1.85.85-3.59,2.44-4.54,1.59-.95,3.57-.95,5.16,0,1.59.95,2.53,2.69,2.44,4.54v20.83c0,2.11,1.28,4.02,3.24,4.81,1.96.8,4.2.34,5.68-1.17l7.67-7.81c2.2-2.16,5.72-2.16,7.92,0,2.26,2.32,2.26,6.01,0,8.33l-15.34,15.63.16.16-2.42,2.42c-.42.43-.76.94-1,1.49-.07.16-.11.32-.17.49-.16.45-.25.91-.28,1.38,0,.11-.06.21-.06.32v45.94c-1.19,1.13-2.29,2.35-3.29,3.65l-9.84-20.94c-3.63-7.23-10.2-12.54-18.02-14.58-1.82-.47-3.69-.76-5.57-.84l-1.34-1.56c-1.04-1.19-1.83-2.12-1.95-2.25-1.35-1.41-1.93-3.38-1.56-5.3.19-1.09.69-2.1,1.44-2.91l.09-.09.13-.14c1.89-1.85,4.81-2.12,7.01-.66,2.21,1.48,5.18,1.05,6.88-.98,1.71-2.04,1.61-5.03-.23-6.95l-13.77-14.21c-2.24-2.34-2.22-6.03.04-8.35ZM158.08,215.67c.68-5.05,3.47-9.57,7.69-12.43,4.18-2.83,9.37-3.72,14.25-2.46,4.88,1.27,8.99,4.57,11.27,9.07l13.28,28.28c-.33,1.22-.59,2.45-.78,3.7l-2.74-1.83c-1.75-1.17-4.03-1.17-5.78,0l-12.76,8.48-11.55-7.71-1.12-1.4,13.43-10.38-6.38-8.24-13.54,10.47-1.16-1.44c-3.31-3.91-4.81-9.04-4.11-14.11Z" fill="#319241"/><path d="M110.29,413.63c3.96,7.98,12.11,13.02,21.02,12.99,3.65,0,7.25-.85,10.51-2.48l4.22-2.11,4.23,2.11c3.26,1.63,6.86,2.47,10.51,2.48,8.91.03,17.06-5.01,21.02-12.99l1.82-3.64c6.1-12.24,9.28-25.72,9.3-39.39-.02-15.08-12.23-27.29-27.31-27.31-5.08.02-10.06,1.46-14.36,4.17v-4.17c0-11.51-9.33-20.83-20.83-20.83v10.42c5.75,0,10.42,4.66,10.42,10.42v4.17c-4.3-2.71-9.28-4.15-14.36-4.17-15.08.02-27.29,12.23-27.31,27.31.02,13.67,3.2,27.16,9.3,39.4l1.82,3.63ZM126.48,353.7c4.48-.01,8.78,1.77,11.94,4.95l3.94,3.94c2.03,2.03,5.33,2.03,7.37,0l3.94-3.94c4.83-4.83,12.1-6.28,18.41-3.66,6.31,2.61,10.43,8.77,10.43,15.61-.01,12.06-2.82,23.95-8.2,34.75l-1.82,3.65c-2.21,4.44-6.75,7.24-11.7,7.22-2.03,0-4.03-.48-5.85-1.38l-6.56-3.28c-1.47-.73-3.19-.73-4.66,0l-6.55,3.28c-1.82.91-3.82,1.38-5.85,1.38-4.96.02-9.5-2.79-11.7-7.24l-1.82-3.64c-5.38-10.79-8.19-22.68-8.2-34.73.01-9.32,7.57-16.88,16.89-16.89Z" fill="#319241"/></svg>