<?xml version="1.0" encoding="UTF-8"?><svg id="Layer_1" xmlns="http://www.w3.org/2000/svg" viewBox="0 0 512 512"><path d="M379.33,8.63h-66.77c-10.15,0-18.41,7.87-18.41,17.54v20.11c0,5.33,4.49,9.68,10.01,9.68h83.58c5.4-.01,9.69-4.05,9.99-9.41v-20.38c.01-9.67-8.25-17.54-18.4-17.54ZM388,46.09s-.01.06-.01.07c-.01.01-.1.06-.26.06h-83.57c-.13,0-.22-.05-.28-.08v-19.97c0-4.3,3.9-7.8,8.68-7.8h66.77c4.78,0,8.67,3.5,8.67,7.8v19.92Z"/><path d="M496.99,253.75l-13.96-52.12c-2.61-9.66-12.52-16.15-24.65-16.15H53.63c-11.89,0-22.02,6.63-24.65,16.17l-13.97,52.13c-1.88,7.13-.15,13.94,4.89,19.17,4.85,5.13,11.87,7.96,19.76,7.96h432.69c8.09,0,15.13-2.85,19.82-8.02,4.98-5.22,6.69-11.99,4.82-19.14ZM481.23,262.51l-.2.21c-1.77,1.98-4.93,3.11-8.68,3.11H39.66c-3.71,0-6.84-1.15-8.81-3.25l-.07-.07c-1.38-1.43-1.73-2.85-1.2-4.86l13.95-52.04c.68-2.48,4.65-5.05,10.1-5.05h404.75c5.68,0,9.44,2.58,10.09,4.99l13.95,52.06c.53,2.05.19,3.47-1.19,4.9Z"/><g id="_296708920"><path d="M422.28,191.55c-3.06,0-5.62-2.55-5.62-5.62v-88.54l-29.29-44.27c-1.7-2.55-1.02-5.96,1.53-7.66s5.96-1.02,7.66,1.53l30.31,45.8c.68.85.85,2.04.85,3.06v90.25c.34,2.89-2.21,5.45-5.45,5.45h.01Z" fill-rule="evenodd"/></g><g id="_296709328"><path d="M270.39,191.55c-3.06,0-5.62-2.55-5.62-5.62v-90.25c0-1.02.34-2.21.85-3.06l30.31-45.8c1.7-2.55,5.11-3.24,7.66-1.53s3.24,5.11,1.53,7.66l-29.29,44.27v88.54c0,3.24-2.55,5.79-5.45,5.79h.01Z" fill-rule="evenodd"/></g><g id="_296708872"><path d="M331.01,191.55c-3.06,0-5.62-2.55-5.62-5.62v-88.54l-29.29-44.27c-1.7-2.55-1.02-5.96,1.53-7.66s5.96-1.02,7.66,1.53l30.31,45.8c.68.85.85,2.04.85,3.06v90.25c-.17,2.89-2.38,5.45-5.45,5.45h.01Z" fill-rule="evenodd"/></g><g id="_296709088"><path d="M422.28,101.3h-146.44c-3.06,0-5.62-2.55-5.62-5.62s2.55-5.62,5.62-5.62h146.44c3.06,0,5.62,2.55,5.62,5.62.17,3.06-2.38,5.62-5.62,5.62Z" fill-rule="evenodd"/></g><g id="_296708296"><path d="M440.15,511.5H72.02c-9.88,0-17.88-8-17.88-17.88v-216.93c0-3.06,2.55-5.62,5.62-5.62s5.62,2.55,5.62,5.62v216.93c0,3.75,3.06,6.81,6.81,6.81h368.14c3.75,0,6.81-3.06,6.81-6.81v-216.93c0-3.06,2.55-5.62,5.62-5.62s5.62,2.55,5.62,5.62v216.93c-.34,10.05-8.17,17.88-18.22,17.88h-.01Z" fill-rule="evenodd"/></g><g id="_296708608"><path d="M108.63,191.55c-3.06,0-5.62-2.55-5.62-5.62v-77.65c0-10.05,8.68-17.03,17.03-23.84,6.98-5.62,14.13-11.58,14.13-17.54v-28.78c0-3.06,2.55-5.62,5.62-5.62s5.62,2.55,5.62,5.62v28.61c0,11.41-9.71,19.24-18.22,26.22-6.3,5.11-12.94,10.39-12.94,15.15v77.65c.17,3.24-2.55,5.79-5.62,5.79h0ZM218.45,191.55c-3.06,0-5.62-2.55-5.62-5.62v-77.65c0-4.77-6.47-10.05-12.94-15.15-8.51-6.98-18.22-14.81-18.22-26.22v-28.61c0-3.06,2.55-5.62,5.62-5.62s5.62,2.55,5.62,5.62v28.61c0,5.96,7.15,11.92,14.13,17.54,8.34,6.81,17.03,13.79,17.03,23.84v77.65c-.17,3.06-2.72,5.62-5.62,5.62h0Z" fill-rule="evenodd"/></g><path d="M186.62.43h-49.95c-9.33,0-16.92,6.2-16.92,13.83v10.23c0,7.63,7.59,13.83,16.92,13.83h49.95c5.3,0,10.17-1.88,13.35-5.15,2.38-2.45,3.64-5.55,3.57-8.74v-10.17c0-7.63-7.59-13.83-16.92-13.83ZM194.52,24.62c.02.78-.32,1.54-1.03,2.26-1.47,1.52-4.04,2.42-6.87,2.42h-49.95c-4.52,0-7.9-2.54-7.9-4.81v-10.23c0-2.27,3.38-4.81,7.9-4.81h49.95c4.52,0,7.9,2.54,7.9,4.81v10.36Z"/><g id="_296708512"><path d="M193.42,85.64h-59.94c-3.06,0-5.62-2.55-5.62-5.62s2.55-5.62,5.62-5.62h59.94c3.06,0,5.62,2.55,5.62,5.62s-2.38,5.62-5.62,5.62Z" fill-rule="evenodd"/></g><g id="_296708200"><path d="M278.05,353.82h-43.76c-9.19,0-16.69-7.49-16.69-16.69v-60.28c0-3.06,2.55-5.62,5.62-5.62s5.62,2.55,5.62,5.62v60.28c0,3.06,2.55,5.62,5.62,5.62h43.76c3.06,0,5.62-2.55,5.62-5.62v-60.28c0-3.06,2.55-5.62,5.62-5.62s5.62,2.55,5.62,5.62v60.28c-.51,9.19-8,16.69-17.03,16.69h0Z" fill-rule="evenodd"/></g></svg>