<svg width="39" height="39" viewBox="0 0 39 39" fill="none" xmlns="http://www.w3.org/2000/svg">
<circle cx="19.5" cy="19.5" r="19.5" fill="white"/>
<path d="M19.7575 9H19.2425C19.1152 9 18.9879 9.00529 18.861 9.01587C16.3327 9.22656 14.4539 11.4469 14.6646 13.9752L14.8801 16.5616C15.0804 18.9643 17.0889 20.8125 19.5 20.8125C21.9111 20.8125 23.9196 18.9643 24.1199 16.5616L24.3354 13.9752C24.346 13.8484 24.3513 13.7211 24.3513 13.5938C24.3513 11.0567 22.2946 9 19.7575 9Z" fill="#30313D"/>
<path d="M24.6189 21.4196C23.2764 22.6731 21.4746 23.4375 19.5 23.4375C17.5254 23.4375 15.7236 22.6731 14.3811 21.4196L12.0723 22.2854C10.2243 22.9784 9 24.7451 9 26.7188V28.6875C9 29.4124 9.58763 30 10.3125 30H28.6875C29.4124 30 30 29.4124 30 28.6875V26.7188C30 24.7451 28.7757 22.9784 26.9277 22.2854L24.6189 21.4196Z" fill="#30313D"/>
</svg>
