<svg width="31" height="31" viewBox="0 0 31 31" fill="none" xmlns="http://www.w3.org/2000/svg">
<g clip-path="url(#clip0_13_119)">
<path d="M14.1907 30.9999C13.2172 31.0034 12.2829 30.617 11.5964 29.9269L1.07609 19.4102C-0.354588 17.9756 -0.354588 15.6539 1.07609 14.2193L14.2217 1.07489C15.039 0.258877 16.1923 -0.125692 17.3358 0.0364513L26.5362 1.34791C28.1473 1.5868 29.4121 2.85206 29.6503 4.46321L30.9618 13.6625C31.1201 14.8055 30.7366 15.9569 29.9246 16.7766L16.7826 29.9269C16.0965 30.6163 15.1633 31.0027 14.1907 30.9999ZM16.8136 2.38634C16.4726 2.38627 16.1455 2.52129 15.9039 2.7619L2.7631 15.9051C2.26326 16.4086 2.26326 17.2209 2.7631 17.7244L13.2786 28.2387C13.7863 28.727 14.5891 28.727 15.0968 28.2387L28.2411 15.0967C28.5243 14.808 28.6565 14.4038 28.5988 14.0035L27.2873 4.80538C27.2042 4.24071 26.761 3.79705 26.1964 3.7133L16.996 2.40184C16.9356 2.39245 16.8747 2.38731 16.8136 2.38634Z" fill="black"/>
<path d="M15.7131 13.8067C13.7377 13.8058 12.1372 12.2038 12.1381 10.2284C12.139 8.253 13.741 6.65243 15.7164 6.65332C17.6918 6.65421 19.2924 8.25628 19.2915 10.2317C19.291 11.1795 18.9144 12.0884 18.2442 12.7587C17.5738 13.4312 16.6627 13.8085 15.7131 13.8067ZM15.7131 9.03779C15.0546 9.03779 14.5209 9.57153 14.5209 10.23C14.5192 10.5462 14.6452 10.8496 14.8702 11.0717C15.3358 11.5372 16.0905 11.5372 16.556 11.0717C17.0209 10.6054 17.0197 9.85052 16.5534 9.38569C16.3303 9.16327 16.0282 9.03816 15.7131 9.03779Z" fill="black"/>
<path d="M15.7131 23.9229C13.7377 23.922 12.1372 22.3199 12.1381 20.3445C12.139 18.3692 13.741 16.7686 15.7164 16.7695C17.6918 16.7704 19.2924 18.3724 19.2915 20.3478C19.291 21.2968 18.9134 22.2068 18.2418 22.8773C17.5714 23.548 16.6615 23.9242 15.7131 23.9229ZM15.7131 19.1539C15.0546 19.1539 14.5209 19.6877 14.5209 20.3462C14.5192 20.6623 14.6452 20.9658 14.8702 21.1879C15.3358 21.6533 16.0905 21.6533 16.556 21.1879C17.0209 20.7216 17.0197 19.9667 16.5534 19.5018C16.3303 19.2794 16.0282 19.1543 15.7131 19.1539Z" fill="black"/>
<path d="M20.7706 16.4821H10.6557C9.99719 16.4821 9.46344 15.9484 9.46344 15.2899C9.46344 14.6314 9.99719 14.0977 10.6557 14.0977H20.7706C21.4291 14.0977 21.9628 14.6314 21.9628 15.2899C21.9628 15.9484 21.4291 16.4821 20.7706 16.4821Z" fill="black"/>
</g>
<defs>
<clipPath id="clip0_13_119">
<rect width="31" height="31" fill="white"/>
</clipPath>
</defs>
</svg>
