<?xml version="1.0" encoding="UTF-8"?><svg id="Layer_1" xmlns="http://www.w3.org/2000/svg" viewBox="0 0 500 500"><path d="M320.16,274.62c-.7-12.35-10.47-24.31-32.35-24.89-34.84-.92-47.17-1.98-82.2-6.27-22.37-2.74-40.82,11.14-57.79,25.97-28.67,25.05-45.49,35.8-78.22,55.22l73.31,83.9c36.16-37.88,57.91-41.27,94.52-40.56,34.41.66,38.53,3.2,72.08-11.2l148.25-69.46c37.5-17.57,11.88-54.18-18.52-40.64-36.71,16.34-97.94,35.25-120.86,38.97,1.38-3.19,2.02-6.85,1.79-11.05h0Z" fill="#fdd7ad" fill-rule="evenodd"/><path d="M320.16,274.62c-.56-9.81-6.84-19.38-20.38-23.18,3.95,4.64,6,10.7,6.3,16,.28,4.77-1.02,8.42-4.07,11.46-14.35,14.31-59.49,11.59-81.17,10.28-3.68-.22-6.84-.41-9.49-.52-4.71-.18-8.67,3.5-8.86,8.22-.18,4.71,3.5,8.69,8.22,8.86,2.44.1,5.54.28,9.11.5,36.02,2.18,76,2.98,94.26-15.23,1.65-1.65,3.08-3.42,4.29-5.33,1.38-3.19,2.02-6.85,1.79-11.05ZM124.63,388.58l10.47-10.39c33.72-31.44,63.63-30.55,96.01-29.91,28.26.5,41.02,5.2,69.36-6.95l153.47-70.82c10.97-5.14,15.91-12.46,12.87-19.11-.99-2.17-3.29-4.59-6.43-6.48,18.16,5.5,25.42,29.28-2.62,42.42l-148.25,69.46c-33.55,14.4-37.67,11.86-72.08,11.2-36.61-.7-58.37,2.68-94.52,40.56l-18.27-19.98h0Z" fill="#e6b17c" fill-rule="evenodd"/><path d="M31.45,359.28l72.38,82.84c4.98,5.69,13.7,6.28,19.4,1.31l22.08-19.29c5.69-4.98,6.28-13.7,1.31-19.4l-72.38-82.84c-4.98-5.69-13.7-6.28-19.4-1.31l-22.08,19.29c-5.69,4.97-6.28,13.7-1.31,19.4Z" fill="#2a92fa" fill-rule="evenodd"/><path d="M88.58,424.66l15.26,17.46c4.98,5.69,13.7,6.28,19.4,1.31l22.08-19.29c5.69-4.98,6.28-13.7,1.31-19.4l-17.77-20.34h0l-40.26,40.26h0Z" fill="#0e82f5" fill-rule="evenodd"/><path d="M398.37,58.77l6.15,6.73c3.9,4.27,9.17,6.18,14.9,5.42l9.04-1.2c4.94-.66,9.45.65,13.27,3.86,3.82,3.21,5.89,7.41,6.11,12.4l.39,9.11c.25,5.78,3.05,10.63,7.93,13.73l7.7,4.89c4.21,2.68,6.82,6.57,7.68,11.49.87,4.91-.25,9.47-3.29,13.42l-5.56,7.23c-3.52,4.58-4.5,10.11-2.75,15.62l2.75,8.69c1.51,4.76,1,9.42-1.5,13.74-2.49,4.32-6.28,7.09-11.15,8.16l-8.9,1.96c-5.65,1.24-9.94,4.85-12.15,10.19l-3.48,8.43c-1.9,4.61-5.29,7.86-9.98,9.56s-9.37,1.4-13.79-.91l-8.08-4.22c-5.12-2.67-10.73-2.68-15.86,0l-8.08,4.22c-4.42,2.31-9.1,2.62-13.79.91-4.69-1.71-8.07-4.95-9.98-9.56l-3.48-8.43c-2.21-5.34-6.5-8.95-12.15-10.19l-8.9-1.96c-4.87-1.07-8.66-3.85-11.15-8.16s-3-8.98-1.5-13.74l2.75-8.69c1.74-5.51.77-11.03-2.75-15.62l-5.56-7.23c-3.04-3.95-4.16-8.51-3.29-13.42.87-4.91,3.47-8.81,7.68-11.49l7.7-4.89c4.88-3.1,7.68-7.96,7.93-13.73l.39-9.11c.21-4.98,2.28-9.19,6.11-12.4s8.33-4.52,13.27-3.86l9.04,1.2c5.73.76,11-1.16,14.9-5.42l6.15-6.73c3.37-3.68,7.66-5.57,12.65-5.57s9.28,1.89,12.65,5.57h0Z" fill="#fdc72e" fill-rule="evenodd"/><path d="M398.37,58.77l6.15,6.73c3.9,4.27,9.17,6.18,14.9,5.42l9.04-1.2c4.94-.66,9.45.65,13.27,3.86,3.82,3.21,5.89,7.41,6.11,12.4l.39,9.11c.25,5.78,3.05,10.63,7.93,13.73l7.7,4.89c4.21,2.68,6.82,6.57,7.68,11.49.87,4.91-.25,9.47-3.29,13.42l-5.56,7.23c-3.52,4.58-4.5,10.11-2.75,15.62l2.75,8.69c1.51,4.76,1,9.42-1.5,13.74-2.49,4.32-6.28,7.09-11.15,8.16l-8.9,1.96c-5.65,1.24-9.94,4.85-12.15,10.19l-3.48,8.43c-.32.78-.69,1.52-1.09,2.22-3.82.79-7.6.24-11.21-1.65l-8.08-4.22c-5.12-2.67-10.73-2.68-15.86,0l-8.08,4.22c-4.42,2.31-9.1,2.62-13.79.91-4.69-1.71-8.07-4.95-9.98-9.56l-3.48-8.43c-2.21-5.34-6.5-8.95-12.15-10.19l-8.9-1.96c-4.87-1.07-8.66-3.85-11.15-8.16-2.49-4.32-3-8.98-1.5-13.74l2.75-8.69c1.74-5.51.77-11.03-2.75-15.62l-5.56-7.23c-3.04-3.95-4.16-8.51-3.29-13.42.57-3.22,1.89-6.01,3.91-8.3,1.4-.89,2.67-1.95,3.77-3.19l7.7-4.89c4.88-3.1,7.68-7.96,7.93-13.73l.39-9.11c.13-2.98.92-5.68,2.35-8.06,1.78-.34,3.63-.38,5.56-.12l9.04,1.2c5.73.76,11-1.16,14.9-5.42l6.15-6.73c3.37-3.68,7.66-5.57,12.65-5.57s9.28,1.89,12.65,5.57h0Z" fill="#fddb1e" fill-rule="evenodd"/><path d="M418.8,98.7c1.79-1.79,4.68-1.79,6.47,0s1.79,4.68,0,6.47l-72.62,72.62c-1.79,1.79-4.68,1.79-6.47,0s-1.79-4.68,0-6.47l72.62-72.62Z" fill="#e37200" fill-rule="evenodd"/><circle cx="362.11" cy="111.82" r="13.66" fill="#e37200"/><path d="M409.26,178.49c7.52,0,13.66-6.14,13.66-13.66s-6.14-13.66-13.66-13.66-13.66,6.14-13.66,13.66,6.14,13.66,13.66,13.66Z" fill="#e37200" fill-rule="evenodd"/><path d="M139.88,162.47h-27.88v45.26c0,7.67,6.27,13.94,13.94,13.94s13.94-6.27,13.94-13.94v-45.26Z" fill="#a83b00" fill-rule="evenodd"/><path d="M139.88,162.47h-18.86v45.26c0,6.09,3.96,11.3,9.43,13.19,5.47-1.89,9.43-7.1,9.43-13.19v-45.26h0Z" fill="#b54500" fill-rule="evenodd"/><path d="M192.08,118.96h33.4c10.61,0,19.29,8.68,19.29,19.29s-8.68,19.29-19.29,19.29h-33.4v-38.58Z" fill="#e37200" fill-rule="evenodd"/><path d="M192.08,118.96h33.4c1.8,0,3.55.25,5.21.72v37.14c-1.66.47-3.41.72-5.21.72h-33.4v-38.58h0Z" fill="#d96500" fill-rule="evenodd"/><path d="M152.99,107.12v62.25h-40.99c-17.12,0-31.12-14.01-31.12-31.12s14.01-31.12,31.12-31.12h40.99Z" fill="#d96500" fill-rule="evenodd"/><path d="M152.99,107.12v52.25c-1.51-.1-3.04-.16-4.6-.16h-27.88c-17.12,0-31.12-14.01-31.12-31.12,0-5.19,1.29-10.09,3.56-14.41,5.27-4.11,11.89-6.56,19.05-6.56h40.99,0Z" fill="#e37200" fill-rule="evenodd"/><path d="M261.13,142.82c-2.53,0-4.58-2.05-4.58-4.58s2.05-4.58,4.58-4.58h20.87c2.53,0,4.58,2.05,4.58,4.58s-2.05,4.58-4.58,4.58h-20.87ZM256.38,112.37c-2.18,1.25-4.97.5-6.22-1.68s-.5-4.97,1.68-6.22l17.65-10.19c2.18-1.25,4.97-.5,6.22,1.68s.5,4.97-1.68,6.22l-17.65,10.19ZM251.84,172.01c-2.18-1.25-2.93-4.04-1.68-6.22s4.04-2.93,6.22-1.68l17.65,10.19c2.18,1.25,2.93,4.04,1.68,6.22s-4.04,2.93-6.22,1.68l-17.65-10.19Z" fill="#fdc72e" fill-rule="evenodd"/><path d="M222.19,87.04v102.41c0,3.98-2.01,7.4-5.5,9.33s-7.45,1.82-10.82-.3c-17.86-11.2-37.42-29.11-65.99-29.11v-62.25c28.57,0,48.13-17.91,65.99-29.11,3.37-2.12,7.34-2.22,10.82-.3,3.48,1.93,5.5,5.34,5.5,9.33Z" fill="#fdc72e" fill-rule="evenodd"/><path d="M222.19,87.04v102.41c0,.1,0,.21,0,.31-2.64.57-5.38.09-7.81-1.44-17.86-11.2-37.42-29.11-65.99-29.11h-8.51v-52.09c28.57,0,48.13-17.91,65.99-29.11,3.37-2.12,7.34-2.22,10.82-.3,3.48,1.93,5.5,5.34,5.5,9.33h0Z" fill="#fddb1e" fill-rule="evenodd"/></svg>