<?xml version="1.0" encoding="UTF-8"?><svg id="Layer_1" xmlns="http://www.w3.org/2000/svg" xmlns:xlink="http://www.w3.org/1999/xlink" viewBox="0 0 13.91 13.91"><defs><style>.cls-1{fill:none;}.cls-2{clip-path:url(#clippath);}</style><clipPath id="clippath"><rect class="cls-1" width="13.91" height="13.91"/></clipPath></defs><g class="cls-2"><g id="sale_5794732_1"><g id="Group"><path id="Vector" d="M6.37,13.91c-.44,0-.86-.17-1.16-.48L.48,8.71c-.64-.64-.64-1.69,0-2.33L6.38.48C6.75.12,7.27-.06,7.78.02l4.13.59c.72.11,1.29.67,1.4,1.4l.59,4.13c.07.51-.1,1.03-.47,1.4l-5.9,5.9c-.31.31-.73.48-1.16.48ZM7.54,1.07c-.15,0-.3.06-.41.17L1.24,7.14c-.22.23-.22.59,0,.82l4.72,4.72c.23.22.59.22.82,0l5.9-5.9c.13-.13.19-.31.16-.49l-.59-4.13c-.04-.25-.24-.45-.49-.49l-4.13-.59s-.05,0-.08,0Z"/><path id="Vector_2" d="M7.05,6.19c-.89,0-1.6-.72-1.6-1.61,0-.89.72-1.6,1.61-1.6.89,0,1.6.72,1.6,1.61,0,.43-.17.83-.47,1.13-.3.3-.71.47-1.14.47ZM7.05,4.06c-.3,0-.53.24-.53.53,0,.14.06.28.16.38.21.21.55.21.76,0,.21-.21.21-.55,0-.76-.1-.1-.24-.16-.38-.16Z"/><path id="Vector_3" d="M7.05,10.73c-.89,0-1.6-.72-1.6-1.61,0-.89.72-1.6,1.61-1.6.89,0,1.6.72,1.6,1.61,0,.43-.17.83-.47,1.13-.3.3-.71.47-1.13.47ZM7.05,8.59c-.3,0-.53.24-.53.53,0,.14.06.28.16.38.21.21.55.21.76,0,.21-.21.21-.55,0-.76-.1-.1-.24-.16-.38-.16Z"/><path id="Vector_4" d="M9.32,7.4h-4.54c-.3,0-.53-.24-.53-.53s.24-.53.53-.53h4.54c.3,0,.53.24.53.53s-.24.53-.53.53Z"/></g></g></g></svg>