<?xml version="1.0" encoding="UTF-8"?><svg id="Layer_1" xmlns="http://www.w3.org/2000/svg" viewBox="0 0 500 500"><path d="M286.57,460.29h-73.14c-10.1,0-18.29-8.19-18.29-18.29v-54.86c0-10.1,8.19-18.29,18.29-18.29h73.14c10.1,0,18.29,8.19,18.29,18.29v54.86c0,10.1-8.19,18.29-18.29,18.29ZM231.71,423.71h36.57v-18.29h-36.57v18.29Z" fill="#319241"/><path d="M249.68,204.29c.1.01.21.01.31.02v-.02h-.31Z" fill="#319241"/><path d="M140.29,460.29h-73.14c-10.1,0-18.29-8.19-18.29-18.29v-54.86c0-10.1,8.19-18.29,18.29-18.29h73.14c10.1,0,18.29,8.19,18.29,18.29v54.86c0,10.1-8.19,18.29-18.29,18.29ZM85.43,423.71h36.57v-18.29h-36.57v18.29Z" fill="#319241"/><path d="M140.29,350.57h-73.14c-10.1,0-18.29-8.19-18.29-18.29v-54.86c0-10.1,8.19-18.29,18.29-18.29h73.14c10.1,0,18.29,8.19,18.29,18.29v54.86c0,10.1-8.19,18.29-18.29,18.29ZM85.43,314h36.57v-18.29h-36.57v18.29Z" fill="#319241"/><path d="M140.29,240.86h-73.14c-10.1,0-18.29-8.19-18.29-18.29v-54.86c0-10.1,8.19-18.29,18.29-18.29h73.14c10.1,0,18.29,8.19,18.29,18.29v54.86c0,10.1-8.19,18.29-18.29,18.29ZM85.43,204.29h36.57v-18.29h-36.57v18.29Z" fill="#319241"/><path d="M140.29,131.14h-73.14c-10.1,0-18.29-8.19-18.29-18.29v-54.86c0-10.1,8.19-18.29,18.29-18.29h73.14c10.1,0,18.29,8.19,18.29,18.29v54.86c0,10.1-8.19,18.29-18.29,18.29ZM85.43,94.57h36.57v-18.29h-36.57v18.29Z" fill="#319241"/><path d="M432.86,460.29h-73.14c-10.1,0-18.29-8.19-18.29-18.29v-54.86c0-10.1,8.19-18.29,18.29-18.29h73.14c10.1,0,18.29,8.19,18.29,18.29v54.86c0,10.1-8.19,18.29-18.29,18.29ZM378,423.71h36.57v-18.29h-36.57v18.29Z" fill="#319241"/><path d="M340.6,170.06c0,11.04-9.02,20.01-19.98,20.01-6.4,0-12.11-3.02-15.77-7.71-2.65-3.4-4.23-7.67-4.23-12.3,0-3.58.95-6.95,2.61-9.86,3.44-6.04,9.95-10.12,17.39-10.12,10.96,0,19.98,8.95,19.98,19.98Z" fill="#319241"/><path d="M389.91,166.25l-73.11,73.18c-1.26,1.21-2.9,1.83-4.46,1.83s-3.2-.62-4.44-1.83c-2.45-2.43-2.45-6.45,0-8.88l73.18-73.13c2.43-2.5,6.4-2.5,8.83,0,2.5,2.43,2.5,6.4,0,8.83Z" fill="#319241"/><path d="M397.25,226.71c0,11.03-8.95,20-19.98,20s-20.01-8.97-20.01-20,8.98-19.98,20.01-19.98,19.98,8.95,19.98,19.98Z" fill="#319241"/><path d="M262.96,204.97c-.02-.22-.04-.45-.06-.68h.01c.02.23.03.46.05.68Z" fill="#319241"/><path d="M304.85,167.72v14.64c-2.65-3.4-4.23-7.67-4.23-12.3,0-3.58.95-6.95,2.61-9.86,1.04,2.29,1.62,4.84,1.62,7.52Z" fill="#319241"/><path d="M340.6,170.06c0,11.04-9.02,20.01-19.98,20.01-6.4,0-12.11-3.02-15.77-7.71v-14.64c0-2.68-.58-5.23-1.62-7.52,3.44-6.04,9.95-10.12,17.39-10.12,10.96,0,19.98,8.95,19.98,19.98Z" fill="#319241"/><path d="M307.9,230.55l73.18-73.13c2.43-2.5,6.4-2.5,8.83,0,2.5,2.43,2.5,6.4,0,8.83l-73.11,73.18c-1.26,1.21-2.9,1.83-4.46,1.83s-3.2-.62-4.44-1.83c-2.45-2.43-2.45-6.45,0-8.88Z" fill="#319241"/><path d="M397.25,226.71c0,11.03-8.95,20-19.98,20s-20.01-8.97-20.01-20,8.98-19.98,20.01-19.98,19.98,8.95,19.98,19.98Z" fill="#319241"/><path d="M249.68,204.29c.1.01.21.01.31.02v-.02h-.31Z" fill="#319241"/><path d="M438.35,246.64c7.96-5.83,12.79-15.22,12.79-25.11,0-3.27-.49-6.52-1.56-9.6-1.46-4.33-2.13-8.85-2.13-13.48s.67-9.4,2.18-13.66c1.02-3,1.51-6.2,1.51-9.52,0-9.89-4.83-19.29-12.84-25.11-7.46-5.41-12.99-12.99-15.87-21.82-2.05-6.32-5.95-11.72-11.28-15.54-5.37-3.94-11.72-5.95-18.29-5.95-9.27,0-18.42-3-25.68-8.4-5.28-3.87-11.65-5.88-18.3-5.88s-12.99,2.06-18.24,5.88c-7.27,5.4-16.36,8.4-25.69,8.4-6.47,0-12.96,2.06-18.24,5.95-5.38,3.94-9.32,9.34-11.28,15.47-2.75,8.51-7.9,15.81-14.94,21.16h-47.06c-10.1,0-18.29,8.19-18.29,18.29v54.86c0,10.09,8.19,18.28,18.29,18.28h40.05c1.72,2.18,3.75,4.13,6.03,5.78,4.73,3.39,8.66,7.63,11.65,12.51h-57.73c-10.1,0-18.29,8.18-18.29,18.28v54.86c0,10.1,8.19,18.28,18.29,18.28h73.14c10.1,0,18.29-8.18,18.28-18.28v-42.34h.1c9.2,0,18.3,3,25.69,8.38,3.25,2.35,6.93,3.98,10.79,4.88v29.08c0,10.1,8.18,18.28,18.28,18.28h73.15c10.09,0,18.28-8.18,18.28-18.28v-54.86c0-10.1-8.19-18.28-18.28-18.28h-6.15c2.99-4.88,6.93-9.12,11.64-12.51ZM231.71,186h16.86c.96,4.14,1.46,8.32,1.46,12.45,0,1.92-.11,3.87-.35,5.84h.31v.02c-.1-.01-.21-.01-.31-.02h-17.97v-18.29ZM268.28,314h-36.57v-18.28h36.57v18.28ZM414.57,314h-36.57v-18.28h36.57v18.28ZM410.07,259.15c-15.63,15.72-37.26,25.47-61.14,25.47-2.53,0-5.03-.11-7.5-.33-13.49-1.16-26.09-5.44-37.1-12.12-1.89-1.68-5.44-3-9.13-5.65-1.89-1.35-4.61-3.62-7.35-7.32-5.42-5.45-10.12-11.61-13.94-18.34-6.1-10.74-9.97-22.91-10.95-35.89-.02-.22-.04-.45-.06-.68-.22-2.25-.34-4.72-.3-7.38.06-4.1.47-7.77,1.01-10.91,1.93-13.44,6.98-25.88,14.39-36.57,15.56-22.5,41.55-37.25,70.93-37.25,47.57,0,86.22,38.65,86.22,86.22,0,23.67-9.58,45.16-25.08,60.75Z" fill="#319241"/><path d="M304.85,182.36c-2.65-3.4-4.23-7.67-4.23-12.3,0-3.58.95-6.95,2.61-9.86,3.44-6.04,9.95-10.12,17.39-10.12,10.96,0,19.98,8.95,19.98,19.98s-9.02,20.01-19.98,20.01c-6.4,0-12.11-3.02-15.77-7.71Z" fill="#319241"/><path d="M389.91,166.25l-73.11,73.18c-1.26,1.21-2.9,1.83-4.46,1.83s-3.2-.62-4.44-1.83c-2.45-2.43-2.45-6.45,0-8.88l73.18-73.13c2.43-2.5,6.4-2.5,8.83,0,2.5,2.43,2.5,6.4,0,8.83Z" fill="#319241"/><path d="M397.25,226.71c0,11.03-8.95,20-19.98,20s-20.01-8.97-20.01-20,8.98-19.98,20.01-19.98,19.98,8.95,19.98,19.98Z" fill="#319241"/></svg>