<?xml version="1.0" encoding="UTF-8"?><svg id="Layer_1" xmlns="http://www.w3.org/2000/svg" viewBox="0 0 500 500"><path d="M382.11,268.37c2.78,1.66,52.19,17.82,52.19,17.82l-26.1,133.09h-91.9s-17.42-76.58-17.42-76.58l83.22-74.33h0Z" fill="#304298"/><polygon points="194.72 397.71 205.01 419.29 324.65 419.29 321.07 332.95 255.34 306.86 194.72 397.71" fill="#568e4c"/><path d="M221.37,272.76l-67.75,34.89s-4.33,112.54-1.61,111.64c2.72-.9,53,0,53,0l61.2-117.74-44.85-28.78h0Z" fill="#ffd217"/><path d="M63.04,290.7c.89,2.72,26.04,122.81,26.04,122.81l73.76,5.77,9.04-117.47-108.83-11.11Z" fill="#70bbf2"/><path d="M177.5,126.31c-4.35.21-9.15.84-12.65-1.75-2.35-1.74-3.61-4.85-3.14-7.74.47-2.89,2.65-5.44,5.43-6.35,1.95-.64,4.31-.64,5.6-2.23.51-.63.77-1.43,1.06-2.19,1.64-4.26,5.16-8.02,9.64-8.92,4.48-.9,9.68,1.76,10.72,6.21.37,1.6.23,3.29.72,4.86,1.07,3.39,4.68,5.14,7.47,7.35,6.5,5.15,9.08,13.73,10.82,21.84.6,2.79,1.12,5.77.06,8.41-1.59,3.98-6.56,5.9-10.72,4.89-4.16-1-7.45-4.34-9.42-8.15-1.99-3.84-1.82-9.17-4.41-12.49-2.55-3.28-7.33-3.93-11.18-3.74Z" fill="#73ba65"/><path d="M262.59,94.44c3.36-2.42,8.09-2.77,11.78-.89,1.19.61,2.35,1.45,3.69,1.49,1.5.04,2.82-.94,4.24-1.43,4.28-1.49,9.42,2.59,8.93,7.1,3.45-.27,6.31,3.2,6.53,6.65.22,3.45-1.48,6.73-3.43,9.58-4.3,6.3-10.44,11.83-17.93,13.25-2.71.51-5.79.6-7.7,2.59-1.3,1.35-1.76,3.32-3,4.73-.86.98-2.04,1.61-3.2,2.21-5.9,3.03-12.01,5.65-18.28,7.83-4.86,1.69-10.48,3.04-14.92.44-4.38-2.57-6.01-8.39-4.96-13.36,1.06-4.96,4.27-9.18,7.77-12.86,5.33-5.61,11.53-10.4,18.31-14.15,2.36-1.3,5.65-2.15,7.18-4.44,2.03-3.05,1.55-6.26,4.99-8.72Z" fill="#568e4c"/><path d="M183.39,123.48c-2.87-1.36-6.3-2.68-7.24-5.72-1.14-3.68,2.21-7.68.99-11.35-1.21-3.66-6.4-5.11-6.99-8.91-.53-3.38,2.96-6.06,3.65-9.41.3-1.45.06-2.97.34-4.43.69-3.62,4.53-5.99,8.22-6.11,3.69-.12,7.2,1.5,10.4,3.33,2.74,1.56,6.51,3.19,8.69.91.88-.92,1.17-2.24,1.75-3.37,2.03-3.96,7.09-5.03,11.5-5.65,2.18-.31,4.72-.51,6.28,1.04.58.57.95,1.33,1.48,1.95.84.98,2.03,1.56,3.19,2.12,3.27,1.58,6.53,3.15,9.8,4.73,1.55.75,3.13,1.52,4.35,2.73,2.8,2.77,3.09,7.26,2.17,11.09-.93,3.83-2.87,7.34-3.98,11.12-.25.85-.46,1.77-.18,2.61.28.85.99,1.46,1.63,2.09,2.03,1.97,3.6,4.43,4.4,7.14,1.4,4.77.3,10.09-2.43,14.25-2.73,4.16-6.95,7.21-11.56,9.07-8.22,3.32-17.85,2.93-25.78-1.04-4.37-2.19-8.31-5.44-13.08-6.53-1.16-.26-2.43-.43-3.28-1.26-1.89-1.82.93-3.16.84-4.9-.13-2.53-3.14-4.55-5.15-5.5Z" fill="#568e4c"/><path d="M211.1,127.17c-.11-1.3-.14-2.67.42-3.85,1.17-2.45,4.55-3.36,5.41-5.93.83-2.47-1.04-5.56.53-7.65,1.06-1.41,3.36-1.77,3.86-3.45.21-.69.04-1.47.36-2.12.57-1.2,2.32-1.23,3.26-2.17,2.07-2.06-1.27-5.92.29-8.38,1.23-1.92,4.28-1.29,6.16-2.58,1.68-1.15,1.96-3.46,2.86-5.29,2.21-4.5,9.26-5.53,12.67-1.86.68.74,1.24,1.62,2.09,2.15,1.3.81,2.95.62,4.49.62,2.56,0,5.57,1.01,6.21,3.49.3,1.16,0,2.4.3,3.56.81,3.09,5.4,4.13,5.88,7.28.15.98-.15,1.99.02,2.97.22,1.21,1.12,2.15,1.8,3.17,1.12,1.65,1.73,3.76,1.15,5.67-.38,1.24-1.22,2.29-2.04,3.29-1.34,1.64-2.67,3.29-4.01,4.93-1.64,2.01-3.39,4.11-5.81,5.04-.8.3-1.67.49-2.32,1.04-.89.77-1.12,2.03-1.28,3.2-.77,5.55-1.9,12-6.86,14.62-1.36.72-2.92,1.08-4.12,2.03-.95.75-1.6,1.81-2.32,2.78-2.56,3.45-6.48,6.13-10.77,6.24-11.42.3-17.53-20.18-18.24-28.8Z" fill="#73ba65"/><path d="M164.32,138.19c2.5-4.01,7.06-6.32,11.65-7.43,4.59-1.12,9.36-1.23,14.03-1.92,7.94-1.18,15.62-4.03,23.63-4.52,8.58-.52,17.07,1.72,25.38,3.93,13.78,3.67,27.76,7.43,39.99,14.78.45.27.92.57,1.11,1.06.2.51.05,1.08-.11,1.6-8.1,26.85-16.2,53.69-24.29,80.54-.61,2.03-1.4,4.28-3.3,5.24-1.31.66-2.85.55-4.31.41-10.62-1.01-21.18-2.56-31.64-4.64-11.22-2.23-22.79-5.31-31.37-12.88-4.37-3.86-7.31-7.38-7.23-13.22.09-7.31.03-14.5-.9-21.77-1.83-14.31-6.09-28.31-12.62-41.18Z" fill="#b2c1db"/><path d="M258.05,159.16c-.44-2.87-1.13-6.28.96-8.28.65-.62,1.52-1.03,2.02-1.77,1.05-1.57.04-3.87,1-5.49.61-1.04,1.88-1.52,2.64-2.46,1.19-1.46.85-3.4.02-5.2-8.15-3.12-16.67-5.41-25.11-7.65-8.31-2.21-16.8-4.45-25.38-3.93-8.01.48-15.69,3.34-23.63,4.52-1,.15-2.01.27-3.02.38,0,0,0,0,0,.01-.66,1.48-3.23,1.72-3.4,3.42-.15,1.56,2.18,2.16,2.74,3.63.88,2.29-3,4.13-2.6,6.55.12.73.62,1.33,1.12,1.87,2.15,2.33,4.66,4.33,7.42,5.88,2.08,1.17,4.68,2.81,4.23,5.16-.36,1.85-2.58,2.97-2.73,4.85-.07.91.38,1.77.81,2.57,1.15,2.11,2.3,4.23,3.45,6.34.63,1.17,1.27,2.35,1.62,3.63.23.86.33,1.76.36,2.65.12,3.02-.42,6.07-.05,9.07.37,3,1.95,6.16,4.81,7.13,1.27.43,2.66.39,3.94.78,2.59.79,4.36,3.22,5.35,5.74.99,2.52,1.4,5.24,2.35,7.77,2.21,5.87,8.23,10.68,14.42,9.68,1.34-.22,2.65-.7,3.73-1.52,1.31-.99,2.21-2.41,3.09-3.81,2.42-3.84,4.83-7.69,7.25-11.53,1.67-2.66,3.36-5.37,4.31-8.37.46-1.47.75-3.04,1.59-4.34,1.11-1.74,3.07-2.8,4.18-4.54.84-1.31,1.12-2.88,1.39-4.41,1.05-6.06,2.07-12.24,1.15-18.32Z" fill="#8da87b"/><path d="M228.82,121.91c-1.84-.7-3.83-1.25-5.18-2.68,1.2-.26,2.38.39,3.49.92,2.71,1.3,5.7,2,8.71,2.03.28,0,.59,0,.81-.19.16-.13.25-.34.31-.55.8-2.62-1.21-5.25-3.31-7.01-2.1-1.76-4.6-3.46-5.28-6.11,2.06.28,3.24,2.38,4.48,4.04,1.34,1.8,3.07,3.3,5.04,4.38.72.4,1.53.74,2.34.61,1.49-.24,2.28-2.04,2.01-3.52-.27-1.48-1.27-2.71-2.21-3.89-2.88-3.63-5.54-7.97-5-12.57,1.92,3.41,3.85,6.83,5.77,10.24.37.66.98,1.42,1.71,1.21.85-.25.78-1.47.55-2.33-1.01-3.63-1.75-7.34-2.21-11.08-.13-1.08-.19-2.31.56-3.1.09-.1.2-.19.33-.21.41-.06.59.49.61.89.23,3.77.66,7.53,1.28,11.25.13.78.35,1.68,1.07,2.03.78.38,1.75-.16,2.16-.91.42-.75.44-1.66.5-2.52.22-3.68,1.31-7.63,4.28-9.81.69-.51,1.87-.79,2.24-.02.18.37.06.81-.09,1.18-.48,1.22-1.24,2.3-1.9,3.44-1.94,3.34-3,7.1-4.05,10.81-.23.81-.37,1.86.33,2.32.44.29,1.03.18,1.54.07,2.89-.66,6.03-1.38,8.73-.15-1.02,1.61-3.37,1.41-5.27,1.37-2.27-.05-4.55.42-6.62,1.37-.65.3-1.37.8-1.3,1.51.06.61.68.98,1.26,1.2,2.76,1.03,6.14.68,8.32,2.67-4.37,1.83-9.67.14-13.94,2.18-.36.17-.74.4-.91.76-.31.66.22,1.44.88,1.74.66.3,1.41.27,2.13.35,1.45.16,2.83.81,3.89,1.82-1.64.94-3.61,1.28-5.47.96-1.56-.27-3.14-1-4.67-.59-.78.21-1.48.71-2.29.73-1.44.05-1.43-1.9-2.16-2.75-.88-1.03-2.24-1.66-3.49-2.13Z" fill="#85d375"/><path d="M194.68,124.86c-.63.02-1.51-.31-1.31-.91.1-.33.49-.46.82-.54,4.21-1.08,8.34-2.46,12.35-4.14.76-.32,1.53-.66,2.1-1.24.57-.59.9-1.48.6-2.25-.57-1.42-2.6-1.31-4.07-.89-6.57,1.9-13.12,5.1-19.9,4.21-.66-.09-1.34-.22-1.87-.62-.53-.4-.87-1.13-.62-1.74.23-.57.85-.87,1.43-1.05,1.92-.58,3.97-.43,5.98-.43,4.9.01,9.8-.9,14.37-2.67.73-.28,1.51-.64,1.88-1.34.46-.87.05-2.01-.7-2.64-.76-.63-1.78-.84-2.76-.9-4.68-.29-9.2,2.39-13.86,1.88-.82-.09-1.77-.4-2-1.18,6.08-1.9,13.13-.68,18.54-4.05-1.78-2.79-5.57-3.3-8.88-3.57-3.3-.28-7.11-.92-8.73-3.81-.28-.51-.44-1.24.02-1.6.19-.15.45-.19.69-.21,2.27-.21,4.48.69,6.59,1.57,2.39,1,4.77,2,7.16,3,1.25.52,2.81,1.01,3.86.16.91-.74.94-2.11.77-3.27-.66-4.45-3.02-9.05-1.29-13.2.15-.35.36-.73.72-.86.48-.18,1.04.17,1.27.63.23.46.22,1,.22,1.52-.04,4.03.38,8.07,1.24,12,.09.42.2.85.49,1.16.47.49,1.28.5,1.89.22.62-.29,1.09-.8,1.56-1.29,2.47-2.55,5.44-4.61,8.69-6.02.6-.26,1.43-.45,1.8.09.4.56-.12,1.3-.61,1.78-3.91,3.79-8.33,7.04-13.11,9.65-.88.48-1.92,1.2-1.79,2.19.1.73.84,1.23,1.58,1.3.73.07,1.45-.19,2.14-.45,2.37-.88,4.74-1.76,7.11-2.64-.43,1.61-2,2.61-3.51,3.31-1.51.7-3.16,1.33-4.12,2.69-.97,1.35-.72,3.7.88,4.17.91.27,1.86-.15,2.8-.28,1.46-.19.52,1.17.16,1.64-.38.48-1.07.44-1.34,1.1-.26.64.29,1.17.18,1.73-.36,1.9-2.18,1.61-3.8,2.27-5.25,2.12-9.69,5.34-15.59,5.52Z" fill="#73ba65"/><path d="M174.74,146.88c1.12,1.91,3.54,2.74,5.75,2.6,2.21-.15,4.28-1.09,6.3-2.01,9.47-4.29,19.45-8.32,29.84-8.05,5.32.14,10.61,1.41,15.92,1.02,1.45-.11,3.26-.71,3.34-2.17.07-1.35-1.44-2.18-2.75-2.53-8.3-2.22-17.18,1.27-25.64-.22-3.65-.64-7.31-2.21-10.94-1.48-2.57.52-4.75,2.12-7.03,3.41-2.28,1.29-4.98,2.31-7.47,1.53-2.6-.81-4.04-1.73-5.93.43-1.66,1.9-2.75,5.14-1.4,7.46Z" fill="#fff" opacity=".47"/><path d="M106.3,84.85c-15.88,8.05-11.39,57.82-8.81,71.58,7.75,41.42,38.02,150.9,41.42,157.06,8.74,15.8,33.18,6.21,39.93-1.31,13.45-14.99,12.51-26.16,9.91-42.01-2.31-14.1-28.08-101.17-37.04-131.53-8.5-28.79-22.17-65.58-45.41-53.79Z" fill="#ed9254"/><path d="M186.34,259.75c-1.16,2.98-2.69,5.59-4.23,7.1-3.29,3.25-6.95,6.38-10.55,9.3-3.2,2.6-9.87,5.4-13.94,6.14,10.34,7.26,28.28-5.7,31.54-8.51-.22-1.55-.47-3.14-.74-4.79-.31-1.88-1.04-5.07-2.09-9.25Z" fill="#fecc84"/><path d="M189.17,273.79c-.1-.69-.2-1.39-.31-2.1-3.45,2.88-17.98,13.15-28.21,9.84-1.09.34-2.12.61-3.02.77,10.34,7.26,28.28-5.7,31.54-8.51Z" fill="#db884f"/><path d="M129.04,164.83c5.07,2,14.04,1.65,18.02-.19,2.73-1.26,6.81-5.58,9.9-8.29-1.54-5.21-2.94-9.96-4.14-14.04-.46,1.39-.9,2.54-1.19,3.22-2.3,5.45-5.54,10-10.66,13.12-2.71,1.65-8.75,4.04-11.94,6.17Z" fill="#fecc84"/><path d="M147.07,164.64c2.73-1.26,6.81-5.58,9.9-8.29-.17-.58-.34-1.16-.51-1.73-3.06,2.72-7.01,6.86-9.67,8.09-3.42,1.58-10.53,2.05-15.68.89-.76.41-1.47.83-2.07,1.23,5.07,2,14.04,1.65,18.02-.19Z" fill="#db884f"/><path d="M136.12,129.18c-5.22,4.51-11.22,9.02-16.33,11.58,5.42,1.3,13.85-.01,18.67-1.49,5.85-1.8,9.57-8.6,10.53-9.65-1.62-5.1-3.4-10.29-5.37-15.28-.7,5.45-3.05,11-7.5,14.84Z" fill="#fecc84"/><path d="M138.48,139.27c5.85-1.8,9.57-8.6,10.53-9.65-.2-.64-.41-1.29-.62-1.94-1.17,1.51-4.81,7.75-10.37,9.46-3.88,1.19-10.11,2.27-15.21,1.97-1.02.61-2.02,1.17-2.99,1.65,5.42,1.3,13.85-.01,18.67-1.49Z" fill="#db884f"/><path d="M168.38,242.73c-5.05,3.37-12.49,7.67-18.56,10.03,4.14,3.55,15.4,1.15,19.92.11,4.35-1,8.8-4.35,13.15-6.2-1.08-3.99-2.28-8.33-3.56-12.92-2.89,3.66-7.23,6.5-10.95,8.99Z" fill="#fecc84"/><path d="M169.73,252.84c4.35-1,8.8-4.35,13.15-6.2-.17-.62-.34-1.26-.52-1.9-3.96,1.9-7.99,4.74-11.93,5.65-3.85.89-12.6,2.76-17.67,1.09-1.01.46-2,.88-2.96,1.25,4.14,3.55,15.4,1.15,19.92.11Z" fill="#db884f"/><path d="M165.19,209.58c-3.96,3.15-7.26,6.81-11.53,9.38-3.55,2.13-7.74,3.73-11.12,5.73,3.19.89,5.58,1.59,9.1,1.34,6.16-.44,15.42-4.1,18.4-5.44,1.41-.63,3.05-2.05,4.67-3.23-1.37-4.81-2.79-9.73-4.21-14.68-1.4,2.83-3.3,5.31-5.3,6.9Z" fill="#fecc84"/><path d="M151.59,226.02c6.16-.44,15.42-4.1,18.4-5.44,1.41-.63,3.05-2.05,4.67-3.23-.19-.65-.37-1.31-.56-1.97-1.39,1.05-2.77,2.17-3.97,2.71-2.98,1.33-12.24,5-18.4,5.44-2.34.17-4.18-.09-6.08-.54-1.09.54-2.16,1.09-3.15,1.68,3.19.89,5.58,1.59,9.1,1.34Z" fill="#db884f"/><path d="M134.58,194.54c4.16,3.41,13.51,2.17,17.98-.2,4.64-2.45,8.93-4.98,13.23-7.84-1.27-4.35-2.52-8.65-3.74-12.81-4.8,10.16-17.17,18.06-27.48,20.85Z" fill="#fecc84"/><path d="M152.5,194.36c4.64-2.46,8.93-4.98,13.23-7.84-.23-.79-.46-1.57-.69-2.35-4.22,2.79-8.44,5.27-12.99,7.68-3.5,1.85-9.97,3.01-14.62,1.8-.99.35-1.97.65-2.92.91,4.16,3.41,13.51,2.17,17.98-.2Z" fill="#db884f"/><path d="M140.94,311.59c-2.33-9.14-6.07-18.18-8.15-27.74-.96-4.42-2.28-8.59-3.16-13.1-.89-4.5-1.15-9.32-2.72-13.66-1.67-4.62-3.94-8.75-5.32-13.51-1.36-4.69-2.62-9.47-4.28-14.03-1.72-4.74-2.72-9.2-3.65-14-.82-4.23-.37-9.04-1.28-13.29-1.15-5.38-4.16-10.36-5.52-15.52-1.11-4.2-1.24-8.95-1.87-13.32-1.52-10.6-3.48-21.37-4.9-32.17-1.46-11.11-.81-21.98-.21-33.35.38-7.33,2.28-16.12,5.98-22.82-15.35,8.75-10.92,57.71-8.37,71.34,7.75,41.42,38.02,150.9,41.42,157.06,1.36,2.46,3.1,4.3,5.1,5.64-.41-2.45-2.61-5.71-3.07-7.53Z" fill="#c67b47"/><path d="M128.61,99.46c-.05.89-.1,1.78-.14,2.68-.03.62.92.67.96.05.05-.89.1-1.78.14-2.68.03-.62-.92-.67-.96-.05h0Z" fill="#c67b47"/><path d="M133.3,101.76c.16.85.26,1.7.23,2.57-.02.62.93.67.96.05.04-.95-.07-1.89-.25-2.82-.11-.61-1.05-.4-.93.2h0Z" fill="#c67b47"/><path d="M130.89,107.38c.19.66.47,1.29.66,1.95.17.59,1.11.39.93-.2-.19-.66-.47-1.29-.66-1.95-.17-.59-1.11-.39-.93.2h0Z" fill="#c67b47"/><path d="M125.56,109.03c.48.54.96,1.07,1.45,1.61.41.46,1.12-.18.71-.64-.48-.54-.96-1.07-1.45-1.61-.41-.46-1.12.18-.71.64h0Z" fill="#c67b47"/><path d="M131.08,115.45c-.36.48-.72.98-1.24,1.3-.52.32-.09,1.18.44.85.67-.41,1.14-1,1.6-1.62.37-.5-.43-1.02-.8-.53h0Z" fill="#c67b47"/><path d="M137.68,112.85c-.22.56-.44,1.13-.67,1.69-.23.58.68.87.91.3.22-.56.44-1.13.67-1.69.23-.58-.68-.87-.91-.3h0Z" fill="#c67b47"/><path d="M137.45,107.46c.19.46.26,1,.24,1.5-.02.62.93.67.96.05.02-.67-.09-1.36-.34-1.98-.23-.57-1.08-.13-.85.44h0Z" fill="#c67b47"/><path d="M139.86,117.55c-.88.62-1.51,1.57-1.8,2.61-.16.59.74.9.91.3.25-.9.76-1.66,1.53-2.2.5-.35-.14-1.06-.64-.71h0Z" fill="#c67b47"/><path d="M132.38,123.01c-.87.39-1.69.95-2.18,1.78-.32.53.48,1.06.8.53.42-.7,1.09-1.13,1.82-1.46.56-.25.12-1.1-.44-.85h0Z" fill="#c67b47"/><path d="M133.91,119.45c-.49.23-.9.61-1.3.96-.46.41.18,1.12.64.71.34-.31.68-.63,1.1-.82.56-.26.12-1.11-.44-.85h0Z" fill="#c67b47"/><path d="M126.42,120.71c-.32-.02-.64-.03-.96-.05-.62-.03-.67.92-.05.96.32.02.64.03.96.05.62.03.67-.92.05-.96h0Z" fill="#c67b47"/><path d="M125.89,91.17c-.32-.02-.64-.03-.96-.05-.62-.03-.67.92-.05.96.32.02.64.03.96.05.62.03.67-.92.05-.96h0Z" fill="#c67b47"/><path d="M120.62,88.46c-.5.21-1.06.38-1.37.87-.33.52.47,1.05.8.53.18-.29.68-.4,1.01-.54.24-.1.32-.43.21-.64-.13-.24-.4-.31-.64-.21h0Z" fill="#c67b47"/><path d="M116.02,94.76c-.02.38-.04.76-.06,1.15-.03.62.92.67.96.05.02-.38.04-.76.06-1.15.03-.62-.92-.67-.96-.05h0Z" fill="#c67b47"/><path d="M121.63,97.36c-.03.62.92.67.96.05s-.92-.67-.96-.05h0Z" fill="#c67b47"/><path d="M121.68,97.61c.19.46.26,1,.24,1.5-.02.62.93.67.96.05.02-.67-.09-1.36-.34-1.99-.23-.57-1.08-.13-.85.44h0Z" fill="#c67b47"/><path d="M118.89,105.65c-.03.62.92.67.96.05.03-.62-.92-.67-.96-.05h0Z" fill="#c67b47"/><path d="M118.89,105.65c-.03.78.13,1.51.52,2.19.31.53,1.16.1.85-.44-.31-.54-.44-1.08-.42-1.7.02-.62-.93-.67-.96-.05h0Z" fill="#c67b47"/><path d="M118.45,118.61c-.31.53-.66,1.03-.9,1.6-.24.57.67.87.91.3.2-.49.52-.92.79-1.38.31-.53-.49-1.06-.8-.53h0Z" fill="#c67b47"/><path d="M113.31,115.74c-.3.29-.5.66-.7,1.02-.13.23-.09.51.14.66.21.14.53.09.66-.14.16-.28.33-.63.54-.83.45-.42-.19-1.14-.64-.71h0Z" fill="#c67b47"/><path d="M122.5,131.33c-.03.62.92.67.96.05.03-.62-.92-.67-.96-.05h0Z" fill="#c67b47"/><path d="M122.66,131c-.6.54-1.21,1.09-1.7,1.73-.38.49.43,1.01.8.53.44-.58,1-1.06,1.54-1.55.46-.41-.18-1.12-.64-.71h0Z" fill="#c67b47"/><path d="M148.33,136.03c-.22.59-.27,1.21-.31,1.84-.03.62.92.67.96.05.03-.54.07-1.07.26-1.58.21-.58-.69-.88-.91-.3h0Z" fill="#c67b47"/><path d="M147.17,145.53c-.47.42-.94.84-1.41,1.27-.46.41.18,1.12.64.71.47-.42.94-.84,1.41-1.27.46-.41-.18-1.12-.64-.71h0Z" fill="#c67b47"/><path d="M141.96,144.41c-.43.2-.8.51-1.26.65-.59.17-.39,1.11.2.93.55-.16.98-.5,1.5-.73.56-.26.12-1.11-.44-.85h0Z" fill="#c67b47"/><path d="M144.77,138.62c-.34.15-.65.37-.99.52-.24.11-.32.42-.21.64.12.24.41.31.64.21.34-.15.65-.37.99-.52.24-.11.32-.42.21-.64-.12-.24-.41-.31-.64-.21h0Z" fill="#c67b47"/><path d="M137.07,140.97c-.46.42-.74.93-.97,1.5-.23.57.68.87.91.3.17-.42.37-.79.7-1.09.45-.42-.19-1.13-.64-.71h0Z" fill="#c67b47"/><path d="M130.53,143.59c-.24.43-.48.86-.52,1.36-.05.62.9.66.96.05.03-.32.21-.61.37-.89.13-.23.09-.51-.14-.66-.21-.14-.53-.09-.66.14h0Z" fill="#c67b47"/><path d="M124.68,147.93c-.03.62.92.67.96.05.03-.62-.92-.67-.96-.05h0Z" fill="#c67b47"/><path d="M124.68,147.93c-.03.51-.05,1.02-.08,1.53-.03.62.92.67.96.05.03-.51.05-1.02.08-1.53.03-.62-.92-.67-.96-.05h0Z" fill="#c67b47"/><path d="M129.07,155.25c-.02.45-.05.89-.07,1.34-.03.62.92.67.96.05.02-.45.05-.89.07-1.34.03-.62-.92-.67-.96-.05h0Z" fill="#c67b47"/><path d="M135.09,150.21s0,.04,0-.03c0,.02-.01.05-.02.07,0,.03-.02.05-.03.08.04-.1-.02.04-.03.05-.03.05-.07.1-.1.16-.02.02-.04.05-.06.07.06-.08-.03.02-.03.03-.19.18-.21.48-.04.68.17.19.49.21.68.04.29-.27.54-.67.58-1.07.03-.26-.2-.49-.45-.5-.27-.01-.48.19-.5.45h0Z" fill="#c67b47"/><path d="M141.71,151.9s0,.08,0,.13c0,.03-.03.22,0,.11-.01.05-.03.11-.04.16-.02.05-.02.05,0,0-.01.03-.09.1-.02.03-.19.18-.22.47-.04.68.17.19.49.22.68.04.29-.29.37-.69.39-1.08.01-.26-.19-.49-.45-.5-.26-.01-.49.19-.5.45h0Z" fill="#c67b47"/><path d="M136.36,156.89c-.47,0-.86.35-.91.81-.03.26.2.49.45.5.27.01.48-.19.5-.45,0-.05,0-.03,0,.05.02-.05.01-.03-.02.04,0-.02.02-.03.03-.05-.05.06-.06.07-.02.03.04-.03.03-.02-.03.02.02,0,.03-.02.05-.03-.08.02-.09.03-.04.02-.08,0-.1,0-.05,0,.26,0,.49-.18.5-.45.01-.25-.19-.5-.45-.5h0Z" fill="#c67b47"/><path d="M150.37,140.49c-.02.38-.04.76-.06,1.15-.03.62.92.67.96.05.02-.38.04-.76.06-1.15.03-.62-.92-.67-.96-.05h0Z" fill="#c67b47"/><path d="M155.72,162.24c-.02.31-.03.62-.17.9-.12.23-.1.51.14.66.2.13.54.09.66-.14.23-.44.3-.88.33-1.37.03-.62-.92-.67-.96-.05h0Z" fill="#c67b47"/><path d="M156.3,173c-.03.38-.19.75-.38,1.08-.3.54.5,1.07.8.53.26-.48.49-1,.53-1.55.05-.62-.91-.66-.96-.05h0Z" fill="#c67b47"/><path d="M152.24,171.2c-.37.48-.9.73-1.48.85-.6.13-.4,1.06.2.93.84-.18,1.55-.58,2.08-1.26.38-.49-.42-1.01-.8-.53h0Z" fill="#c67b47"/><path d="M151,165.4c-.57.33-1.2.54-1.77.86-.53.31-.1,1.16.44.85.57-.33,1.2-.54,1.77-.86.53-.31.1-1.16-.44-.85h0Z" fill="#c67b47"/><path d="M141.38,167.84c-.52.51-.73,1.22-.99,1.88-.22.58.69.88.91.3.19-.49.33-1.1.72-1.47.44-.43-.2-1.14-.64-.71h0Z" fill="#c67b47"/><path d="M144.86,171.81c-.03.38-.19.75-.38,1.08-.3.54.5,1.07.8.53.26-.48.49-1,.53-1.55.05-.62-.91-.67-.96-.05h0Z" fill="#c67b47"/><path d="M142.05,182.53c-.18.32-.33.61-.63.75-.24.11-.32.42-.21.64.12.24.41.32.64.21.47-.22.75-.64,1-1.08.13-.23.09-.51-.14-.66-.21-.14-.53-.09-.66.14h0Z" fill="#c67b47"/><path d="M137.38,182.06c-.68.2-1.28.55-1.89.91-.53.31-.09,1.17.44.85.53-.31,1.06-.65,1.65-.82.59-.17.39-1.11-.2-.94h0Z" fill="#c67b47"/><path d="M135.67,174.24c-.28.25-.56.49-.9.64-.24.11-.32.42-.21.64.12.24.41.31.64.21.41-.19.76-.48,1.1-.78.46-.41-.18-1.12-.64-.71h0Z" fill="#c67b47"/><path d="M129.88,168.25c-.74.22-1.27.69-1.56,1.4-.1.24.07.53.3.61.26.09.51-.06.61-.3.16-.39.45-.65.86-.77.25-.07.42-.3.37-.57-.05-.24-.32-.44-.57-.37h0Z" fill="#c67b47"/><path d="M127.8,179.39c-.22.59-.27,1.21-.31,1.84-.03.62.92.67.96.05.03-.54.07-1.07.26-1.58.21-.58-.69-.88-.91-.3h0Z" fill="#c67b47"/><path d="M127.56,187.17c-.02.35.05.66.28.93.17.2.49.21.68.04.2-.18.2-.48.04-.68-.09-.11.04.08-.02-.03-.02-.05-.02-.04,0,.02,0-.02-.01-.04-.02-.06,0-.05,0-.04,0,.03,0-.02,0-.04,0-.06,0-.04,0-.09,0-.13.01-.26-.19-.49-.45-.5-.26-.01-.49.19-.5.45h0Z" fill="#c67b47"/><path d="M152.32,176.95c-.46.82-.87,1.67-1.47,2.41-.39.48.41,1,.8.53.6-.74,1.01-1.59,1.47-2.41.3-.54-.5-1.06-.8-.53h0Z" fill="#c67b47"/><path d="M155.19,176.91c-.21.37-.42.74-.63,1.12-.13.23-.09.51.14.66.21.14.53.09.66-.14.21-.37.42-.74.63-1.12.13-.23.09-.51-.14-.66-.21-.14-.53-.09-.66.14h0Z" fill="#c67b47"/><path d="M158.55,166.92c.18.64.34,1.29.47,1.94.12.61,1.05.4.93-.2-.13-.65-.29-1.3-.47-1.94-.16-.59-1.1-.39-.94.2h0Z" fill="#c67b47"/><path d="M164.41,193.17c-.07,1.01-.3,1.98-.71,2.9-.25.56.66.86.91.3.44-1,.69-2.07.76-3.15.04-.62-.91-.67-.96-.05h0Z" fill="#c67b47"/><path d="M161.24,194.2c-.67.62-1.26,1.33-1.72,2.11-.31.53.49,1.06.8.53.42-.72.95-1.36,1.56-1.93.46-.42-.18-1.13-.64-.71h0Z" fill="#c67b47"/><path d="M159.99,200.6c-.02.64.11,1.28.09,1.92-.02.62.93.67.96.05.02-.64-.11-1.28-.09-1.92.02-.62-.93-.67-.96-.05h0Z" fill="#c67b47"/><path d="M166.36,199.79c-.03.64-.07,1.27-.1,1.91-.03.62.92.67.96.05.03-.64.07-1.27.1-1.91.03-.62-.92-.67-.96-.05h0Z" fill="#c67b47"/><path d="M167.38,203.44c-.68.8-1.44,1.52-2.04,2.38-.35.51.45,1.03.8.53.6-.86,1.36-1.58,2.04-2.38.4-.47-.41-.99-.8-.53h0Z" fill="#c67b47"/><path d="M160.45,210.75c-.74.44-1.45.93-2.09,1.5-.46.41.18,1.12.64.71.58-.52,1.22-.96,1.89-1.36.53-.31.09-1.17-.44-.85h0Z" fill="#c67b47"/><path d="M158.62,207.73c-.66.19-1.27.52-1.95.66-.6.13-.4,1.06.2.93.68-.14,1.29-.47,1.95-.66.59-.17.39-1.11-.2-.93h0Z" fill="#c67b47"/><path d="M153.52,202.86c-.46.12-.94.3-1.42.29-.62-.01-.67.94-.05.96.57.01,1.13-.16,1.68-.31.59-.16.39-1.1-.2-.93h0Z" fill="#c67b47"/><path d="M154.4,195.8c-.71-.02-1.38.18-2,.53-.53.31-.1,1.16.44.85.47-.27.96-.45,1.51-.43.62.02.67-.94.05-.96h0Z" fill="#c67b47"/><path d="M145.25,199.47c-.66.62-1.12,1.39-1.39,2.24-.19.59.72.89.91.3.23-.7.58-1.33,1.12-1.84.45-.42-.19-1.13-.64-.71h0Z" fill="#c67b47"/><path d="M144.75,210.01c-.39.85-.67,1.73-.91,2.63-.15.6.75.9.91.3.23-.91.52-1.78.91-2.63.26-.56-.66-.86-.91-.3h0Z" fill="#c67b47"/><path d="M151.8,211.25c-.77.49-1.21,1.28-1.48,2.12-.19.59.72.89.91.3.19-.59.47-1.23,1.01-1.58.52-.33.08-1.18-.44-.85h0Z" fill="#c67b47"/><path d="M145.88,219.1c-.38,0-.69.24-1.03.39-.24.11-.32.42-.21.64.12.24.41.31.64.21.14-.06.28-.14.41-.21.06-.03.11-.06.17-.09.05-.02.04-.02-.03,0,.04-.01.12,0-.02,0,.26,0,.49-.18.5-.45.01-.25-.19-.5-.45-.5h0Z" fill="#c67b47"/><path d="M165.02,188.33c-.32.09-.62.24-.84.49-.24.27-.39.59-.52.92-.23.57.68.87.91.3.15-.38.28-.67.67-.78.25-.07.42-.3.37-.57-.05-.24-.32-.44-.57-.37h0Z" fill="#c67b47"/><path d="M173.5,220.61c.13.47.31.93.29,1.42-.02.62.94.67.96.05.02-.59-.15-1.12-.31-1.68-.17-.59-1.1-.39-.93.2h0Z" fill="#c67b47"/><path d="M175.37,228.44c-.05.74-.26,1.44-.48,2.15-.18.59.73.89.91.3.24-.79.47-1.57.53-2.4.04-.62-.91-.67-.96-.05h0Z" fill="#c67b47"/><path d="M173.63,233.11c-.88.4-1.56,1.05-2.18,1.78-.4.47.41.99.8.53.51-.61,1.09-1.13,1.82-1.46.56-.25.12-1.1-.44-.85h0Z" fill="#c67b47"/><path d="M170.74,226.61c-.37.48-.91.79-1.42,1.09-.53.31-.09,1.17.44.85.66-.39,1.3-.8,1.78-1.42.38-.49-.42-1.01-.8-.53h0Z" fill="#c67b47"/><path d="M165.08,225.5c-.94-.05-1.87-.07-2.81.06-.61.08-.4,1.02.2.94.85-.11,1.7-.08,2.56-.04.62.03.67-.92.05-.96h0Z" fill="#c67b47"/><path d="M159.54,230.92c-.21.66-.59,1.2-1,1.75-.37.5.43,1.02.8.53.46-.61.87-1.24,1.11-1.97.19-.59-.72-.89-.91-.3h0Z" fill="#c67b47"/><path d="M165.09,231.87c-.69.83-1.26,1.73-1.73,2.7-.27.56.65.85.91.3.43-.89.99-1.72,1.62-2.48.39-.48-.41-1-.8-.53h0Z" fill="#c67b47"/><path d="M165.04,239.55c-.74.45-1.36,1.05-1.8,1.8-.31.53.49,1.06.8.53.36-.61.84-1.11,1.44-1.48.52-.32.09-1.17-.44-.85h0Z" fill="#c67b47"/><path d="M157.25,244.07c-.88.18-1.7.56-2.38,1.15-.47.4.17,1.12.64.71.56-.49,1.22-.77,1.95-.92.6-.13.4-1.06-.2-.93h0Z" fill="#c67b47"/><path d="M155.35,240.13c-.89.29-1.8.45-2.72.62-.61.12-.4,1.05.2.94.92-.17,1.83-.33,2.72-.62.58-.19.38-1.13-.2-.93h0Z" fill="#c67b47"/><path d="M152.23,232.86c-.64-.03-1.27-.07-1.91-.1-.62-.03-.67.92-.05.96.64.03,1.27.07,1.91.1.62.03.67-.92.05-.96h0Z" fill="#c67b47"/><path d="M146.88,228.4c-.61.92-1.08,1.91-1.55,2.91-.26.56.65.86.91.3.43-.92.87-1.83,1.44-2.68.34-.52-.46-1.04-.8-.53h0Z" fill="#c67b47"/><path d="M144.87,238.74c-.14.14-.23.29-.31.48-.03.07-.05.13-.08.2-.05.13.05-.08-.02.04-.01.02-.09.1-.02.03-.19.18-.22.47-.04.68.17.19.49.22.68.04.14-.14.23-.29.31-.48.03-.07.05-.13.08-.2.05-.13-.05.08.02-.04.01-.02.09-.1.02-.03.19-.18.22-.47.04-.68-.17-.19-.49-.22-.68-.04h0Z" fill="#c67b47"/><path d="M156.52,228.75c-.77-.41-1.6-.58-2.46-.37-.6.15-.4,1.08.2.93.6-.15,1.19-.05,1.73.24.54.29,1.07-.51.53-.8h0Z" fill="#c67b47"/><path d="M157.26,235.62c-.59-.02-1.27.2-1.6.73-.33.52.47,1.05.8.53.14-.22.52-.3.75-.3.62.02.67-.94.05-.96h0Z" fill="#c67b47"/><path d="M160.37,241.02c-.42.19-.76.48-1.1.78-.46.41.18,1.12.64.71.32-.28.53-.48.9-.64.24-.11.32-.42.21-.64-.12-.24-.41-.31-.64-.21h0Z" fill="#c67b47"/><path d="M181.19,248.49c-.02.64.11,1.28.09,1.92-.02.62.93.67.96.05.02-.64-.11-1.28-.09-1.92.02-.62-.93-.67-.96-.05h0Z" fill="#c67b47"/><path d="M183.24,253.46c-.2.69-.29,1.4-.49,2.08-.17.59.73.89.91.3.2-.69.29-1.4.49-2.08.17-.59-.73-.89-.91-.3h0Z" fill="#c67b47"/><path d="M183.25,259.19c-.78.7-1.52,1.42-2.11,2.28-.35.51.45,1.03.8.53.55-.8,1.23-1.45,1.95-2.1.46-.41-.18-1.12-.64-.71h0Z" fill="#c67b47"/><path d="M177.5,259.52c-.72.14-1.43.34-2.07.7-.53.31-.1,1.16.44.85.58-.33,1.19-.49,1.84-.62.6-.12.4-1.05-.2-.94h0Z" fill="#c67b47"/><path d="M177.83,253.41c-.65.18-1.29.38-1.88.71-.53.31-.1,1.16.44.85.52-.3,1.07-.47,1.64-.63.59-.16.39-1.1-.2-.93h0Z" fill="#c67b47"/><path d="M171.87,254.32c-.03.62.92.67.96.05.03-.62-.92-.67-.96-.05h0Z" fill="#c67b47"/><path d="M172.19,253.86c-.89-.05-1.72-.02-2.56.31-.57.23-.13,1.08.44.85.67-.27,1.36-.24,2.07-.21.62.03.67-.92.05-.96h0Z" fill="#c67b47"/><path d="M167.32,257.14c-.03.62.92.67.96.05.03-.62-.92-.67-.96-.05h0Z" fill="#c67b47"/><path d="M167.34,257.02c-.25.81-.46,1.64-.71,2.45-.18.59.73.89.91.3.25-.81.46-1.64.71-2.45.18-.59-.73-.89-.91-.3h0Z" fill="#c67b47"/><path d="M167.84,264.3c-.51.47-.91,1.04-1.17,1.68-.24.57.67.87.91.3.2-.49.52-.92.9-1.27.45-.42-.19-1.13-.64-.71h0Z" fill="#c67b47"/><path d="M170.94,261.42c-.23.75-.46,1.51-.7,2.26-.18.59.73.89.91.3.23-.75.46-1.51.7-2.26.18-.59-.73-.89-.91-.3h0Z" fill="#c67b47"/><path d="M176.54,264.21c-.19.45-.54.77-.89,1.08-.46.41.18,1.12.64.71.48-.43.91-.88,1.16-1.49.24-.57-.67-.87-.91-.3h0Z" fill="#c67b47"/><path d="M171,270.56c-.03.62.92.67.96.05.03-.62-.92-.67-.96-.05h0Z" fill="#c67b47"/><path d="M171.06,270.34c-.62.38-1.17.87-1.79,1.25-.52.32-.09,1.17.44.85.62-.38,1.17-.87,1.79-1.25.52-.32.09-1.17-.44-.85h0Z" fill="#c67b47"/><path d="M164.67,273.78c-.64.17-1.3.3-1.94.47-.59.16-.39,1.1.2.94.64-.17,1.3-.3,1.94-.47.59-.16.39-1.1-.2-.93h0Z" fill="#c67b47"/><path d="M161.49,256.73c-.51-.03-1.02-.05-1.53-.08-.62-.03-.67.92-.05.96.51.03,1.02.05,1.53.08.62.03.67-.92.05-.96h0Z" fill="#c67b47"/><path d="M153.11,257.07c-.59.17-1.13.4-1.6.8-.46.41.18,1.12.64.71.34-.3.73-.46,1.16-.58.59-.17.39-1.1-.2-.94h0Z" fill="#c67b47"/><path d="M154.52,264.65c-.47.82-1,1.6-1.47,2.41-.31.53.49,1.06.8.53.47-.82,1-1.6,1.47-2.41.31-.53-.49-1.06-.8-.53h0Z" fill="#c67b47"/><path d="M160.32,262.77c-.26.68-.47,1.38-.69,2.07-.18.59.73.89.91.3.21-.69.42-1.39.69-2.07.22-.58-.69-.88-.91-.3h0Z" fill="#c67b47"/><path d="M156.77,275.17c-.03.62.92.67.96.05.03-.62-.92-.67-.96-.05h0Z" fill="#c67b47"/><path d="M156.77,275.42c-.24.62-.43,1.26-.68,1.88-.22.58.69.88.91.3.24-.62.43-1.26.68-1.88.22-.58-.69-.88-.91-.3h0Z" fill="#c67b47"/><path d="M187.53,277.26c-.2.64-.43,1.26-.68,1.88-.23.58.68.87.91.3.24-.62.48-1.24.68-1.88.18-.59-.72-.89-.91-.3h0Z" fill="#c67b47"/><path d="M188.34,283.63c-.25,1.09-.65,2.13-.94,3.21-.16.59.75.9.91.3.29-1.08.68-2.12.94-3.21.14-.6-.77-.9-.91-.3h0Z" fill="#c67b47"/><path d="M186.12,291.54c-.5.46-.9,1.02-1.31,1.56-.37.5.43,1.02.8.53.36-.48.71-.97,1.15-1.37.45-.42-.19-1.13-.64-.71h0Z" fill="#c67b47"/><path d="M183.77,287.12c-.64.37-1.31.65-2.04.8-.6.13-.4,1.06.2.93.8-.17,1.56-.48,2.27-.88.53-.31.1-1.16-.44-.85h0Z" fill="#c67b47"/><path d="M183.52,282.06c-.62-.02-1.24.22-1.71.62-.47.4.17,1.11.64.71.28-.24.65-.39,1.02-.38.62.02.67-.94.05-.96h0Z" fill="#c67b47"/><path d="M176.99,284.6c-.82-.23-1.72-.18-2.4.38-.48.39.16,1.1.64.71.4-.33.99-.31,1.46-.18.59.16.9-.74.3-.91h0Z" fill="#c67b47"/><path d="M170.87,288.71c-.49.87-.89,1.77-1.15,2.74-.16.59.75.9.91.3.24-.88.6-1.72,1.04-2.51.3-.54-.5-1.06-.8-.53h0Z" fill="#c67b47"/><path d="M173.56,295.75c-.4.73-.68,1.51-1.08,2.24-.3.54.5,1.07.8.53.4-.73.68-1.51,1.08-2.24.3-.54-.5-1.07-.8-.53h0Z" fill="#c67b47"/><path d="M179.2,289.4c-.05.74-.26,1.44-.48,2.15-.18.59.73.89.91.3.24-.79.47-1.57.53-2.4.04-.62-.91-.67-.96-.05h0Z" fill="#c67b47"/><path d="M180.59,295.86c-.26,1.15-.53,2.29-.95,3.4-.22.58.69.88.91.3.42-1.1.69-2.25.95-3.4.13-.6-.77-.9-.91-.3h0Z" fill="#c67b47"/><path d="M176.82,298.34c-.25.81-.46,1.64-.71,2.45-.18.59.73.89.91.3.25-.81.46-1.64.71-2.45.18-.59-.73-.89-.91-.3h0Z" fill="#c67b47"/><path d="M174.51,306.17c-1.06.38-1.78,1.24-2.39,2.15-.35.51.45,1.04.8.53.54-.79,1.11-1.5,2.03-1.83.58-.21.14-1.06-.44-.85h0Z" fill="#c67b47"/><path d="M173.32,312.58c-.87.19-1.55.75-2.09,1.45-.38.49.43,1.01.8.53.38-.5.87-.9,1.49-1.04.6-.13.4-1.07-.2-.93h0Z" fill="#c67b47"/><path d="M182.17,303.11c-.57.69-1.02,1.45-1.46,2.22-.3.53.49,1.06.8.53.44-.77.89-1.53,1.46-2.22.39-.48-.41-1-.8-.53h0Z" fill="#c67b47"/><path d="M186.14,295.97c-.25.92-.64,1.76-1.24,2.5-.39.48.42,1,.8.53.65-.8,1.08-1.74,1.34-2.73.16-.59-.75-.9-.91-.3h0Z" fill="#c67b47"/><path d="M129.88,94.58c.33.2.55.6.91.82.22.14.52.09.66-.14.14-.21.09-.53-.14-.66-.33-.2-.56-.6-.91-.82-.22-.14-.52-.09-.66.14-.14.21-.09.53.14.66h0Z" fill="#f4a658"/><path d="M126.57,94.88c.12.66.1,1.31.07,1.98-.03.62.92.67.96.05.04-.75.05-1.49-.09-2.24-.11-.61-1.05-.4-.93.2h0Z" fill="#f4a658"/><path d="M124.28,101.53c-.03.51-.05,1.02-.08,1.53-.03.62.92.67.96.05.03-.51.05-1.02.08-1.53.03-.62-.92-.67-.96-.05h0Z" fill="#f4a658"/><path d="M127.94,104.79c0,.61.42,1.12.93,1.42.22.13.51.09.66-.14.14-.21.09-.53-.14-.66-.15-.09-.26-.18-.37-.31-.04-.05-.06-.09-.09-.14-.04-.07-.03-.06-.03-.12,0-.26-.18-.49-.45-.5-.25-.01-.5.19-.5.45h0Z" fill="#f4a658"/><path d="M130.96,102.08c-.02.4,0,.8.27,1.12.17.2.49.2.68.04.2-.18.2-.47.04-.68.08.1-.04-.11,0,0-.02-.07-.03-.14-.04-.2.01.12,0-.05,0-.07,0-.05,0-.11,0-.16.01-.26-.19-.49-.45-.5-.26-.01-.49.19-.5.45h0Z" fill="#f4a658"/><path d="M132.65,98.29c.18.2.36.4.54.6.17.19.48.21.68.04.19-.17.21-.48.04-.68-.18-.2-.36-.4-.54-.6-.17-.19-.48-.21-.68-.04-.19.17-.21.48-.04.68h0Z" fill="#f4a658"/><path d="M135.91,102.73c-.03.49,0,.94.18,1.4.1.24.43.32.64.21.25-.13.3-.4.21-.64-.12-.29-.09-.61-.08-.91.03-.62-.92-.67-.96-.05h0Z" fill="#f4a658"/><path d="M134.47,108.21c-.03.51-.05,1.02-.08,1.53-.03.62.92.67.96.05.03-.51.05-1.02.08-1.53.03-.62-.92-.67-.96-.05h0Z" fill="#f4a658"/><path d="M128.9,109.68c.37.64.67,1.33,1.04,1.97.31.53,1.16.1.85-.44-.37-.64-.67-1.33-1.04-1.97-.31-.53-1.16-.1-.85.44h0Z" fill="#f4a658"/><path d="M126.85,113.4c-.51.47-.91,1.04-1.17,1.68-.24.57.67.87.91.3.2-.49.52-.92.9-1.27.45-.42-.19-1.13-.64-.71h0Z" fill="#f4a658"/><path d="M133.09,112.67c.17.59.4,1.13.8,1.6.41.46,1.12-.18.71-.64-.3-.34-.46-.73-.58-1.16-.17-.59-1.1-.39-.93.2h0Z" fill="#f4a658"/><path d="M132.62,117.69c-.03.62.92.67.96.05.03-.62-.92-.67-.96-.05h0Z" fill="#f4a658"/><path d="M132.62,117.69c0,.07,0,.13-.01.2,0,.03-.04.24,0,.11,0,.03-.06.17,0,.05-.01.02-.02.04-.03.06-.06.09.07-.07-.02.01-.19.18-.21.48-.04.68.17.19.49.21.68.04.31-.3.37-.67.39-1.08.01-.26-.19-.49-.45-.5-.26-.01-.49.19-.5.45h0Z" fill="#f4a658"/><path d="M135.49,121.29c-.03.54-.07,1.07-.26,1.58-.21.58.69.88.91.3.22-.59.27-1.21.31-1.84.03-.62-.92-.67-.96-.05h0Z" fill="#f4a658"/><path d="M139.49,111.29c.2.68.55,1.28.91,1.89.31.53,1.17.09.85-.44-.31-.53-.65-1.06-.82-1.65-.17-.59-1.11-.39-.93.2h0Z" fill="#f4a658"/><path d="M146.89,133.98c-.04.55-.25,1.06-.45,1.57-.23.58.68.87.91.3.23-.59.45-1.19.5-1.83.05-.62-.91-.67-.96-.05h0Z" fill="#f4a658"/><path d="M141.43,140.17c-.49.23-.9.61-1.3.96-.46.41.18,1.12.64.71.34-.31.68-.63,1.1-.82.56-.26.12-1.11-.44-.85h0Z" fill="#f4a658"/><path d="M145.21,141.14c-.42.19-.76.48-1.1.78-.46.41.18,1.12.64.71.32-.28.53-.48.9-.64.24-.11.32-.42.21-.64-.12-.24-.41-.31-.64-.21h0Z" fill="#f4a658"/><path d="M147.34,139.75c-.04.75-.05,1.49.09,2.24.11.61,1.05.4.94-.2-.12-.66-.1-1.31-.07-1.98.03-.62-.92-.67-.96-.05h0Z" fill="#f4a658"/><path d="M143.33,147.07c-.23.59-.45,1.19-.5,1.83-.05.62.91.67.96.05.04-.55.25-1.06.45-1.57.23-.58-.68-.87-.91-.3h0Z" fill="#f4a658"/><path d="M146.08,149.07c-.03.62.92.67.96.05.03-.62-.92-.67-.96-.05h0Z" fill="#f4a658"/><path d="M146.15,149.03c-.41.55-.83,1.11-1.24,1.66-.37.5.43,1.02.8.53.41-.55.83-1.11,1.24-1.66.37-.5-.43-1.02-.8-.53h0Z" fill="#f4a658"/><path d="M140.9,147.36c-.67-.04-1.32-.09-1.97-.28-.59-.17-.9.73-.3.91.73.21,1.46.29,2.22.33.62.03.67-.92.05-.96h0Z" fill="#f4a658"/><path d="M137.5,145.52c-.42.19-.84.45-1.31.44-.62,0-.67.95-.05.96.66.01,1.22-.28,1.8-.54.56-.25.12-1.1-.44-.85h0Z" fill="#f4a658"/><path d="M132.41,142.98c-.03.62.92.67.96.05s-.92-.67-.96-.05h0Z" fill="#f4a658"/><path d="M132.46,143.41c.15.37.17.79.32,1.17.1.24.43.32.64.21.25-.13.3-.4.21-.64-.15-.37-.17-.79-.32-1.17-.1-.24-.43-.32-.64-.21-.25.13-.3.4-.21.64h0Z" fill="#f4a658"/><path d="M138.67,151.36c-.03.54-.07,1.07-.26,1.58-.21.58.69.88.91.3.22-.59.27-1.21.31-1.84.03-.62-.92-.67-.96-.05h0Z" fill="#f4a658"/><path d="M140.63,155.07c-.66.39-1.3.8-1.78,1.42-.38.49.42,1.01.8.53.37-.48.91-.79,1.42-1.09.53-.31.09-1.17-.44-.85h0Z" fill="#f4a658"/><path d="M154.09,160.87c-.24.79-.47,1.57-.53,2.4-.04.62.91.67.96.05.05-.74.26-1.44.48-2.15.18-.59-.73-.89-.91-.3h0Z" fill="#f4a658"/><path d="M155.1,166.93c.17.64.3,1.3.47,1.94.16.59,1.1.39.93-.2-.17-.64-.3-1.3-.47-1.94-.16-.59-1.1-.39-.93.2h0Z" fill="#f4a658"/><path d="M156.84,166.32c-.02.45-.05.89-.07,1.34-.03.62.92.67.96.05.02-.45.05-.89.07-1.34.03-.62-.92-.67-.96-.05h0Z" fill="#f4a658"/><path d="M159.1,171.95c-.28.51-.49,1.06-.71,1.61-.23.58.68.87.91.3.18-.47.36-.95.6-1.39.3-.54-.5-1.07-.8-.53h0Z" fill="#f4a658"/><path d="M154.33,172.94c-.52.46-1.1.82-1.69,1.18-.53.31-.09,1.17.44.85.66-.39,1.31-.8,1.89-1.32.46-.41-.18-1.12-.64-.71h0Z" fill="#f4a658"/><path d="M152.64,169.08c-.51.13-1.04.17-1.55.3-.59.16-.39,1.09.2.93.51-.13,1.04-.17,1.55-.3.59-.16.39-1.09-.2-.94h0Z" fill="#f4a658"/><path d="M146.25,167.29c-.03.62.92.67.96.05.03-.62-.92-.67-.96-.05h0Z" fill="#f4a658"/><path d="M146.63,166.85c-.65.18-1.29.38-1.88.71-.53.31-.1,1.16.44.85.52-.3,1.07-.47,1.64-.63.59-.16.39-1.1-.2-.93h0Z" fill="#f4a658"/><path d="M148.29,172.51c.12.69.09,1.36-.11,2.04-.17.59.74.9.91.3.24-.84.29-1.68.14-2.55-.11-.61-1.04-.4-.93.2h0Z" fill="#f4a658"/><path d="M146.79,179.13c.18.96.29,1.92.66,2.83.23.57,1.08.13.85-.44-.34-.82-.42-1.73-.58-2.6-.11-.61-1.05-.4-.93.2h0Z" fill="#f4a658"/><path d="M152.23,180.83c-.03.62.92.67.96.05s-.92-.67-.96-.05h0Z" fill="#f4a658"/><path d="M152.49,180.43c-1.02.56-1.76,1.39-2.41,2.34-.35.51.45,1.04.8.53.56-.82,1.17-1.54,2.04-2.02.54-.3.1-1.15-.44-.85h0Z" fill="#f4a658"/><path d="M147.2,185.35c-.03.62.92.67.96.05.03-.62-.92-.67-.96-.05h0Z" fill="#f4a658"/><path d="M143.53,177.01c-.62-.03-1.25-.04-1.86.11-.6.15-.4,1.09.2.93.53-.13,1.06-.12,1.6-.09.62.03.67-.92.05-.96h0Z" fill="#f4a658"/><path d="M136.97,168.9c-.03.62.92.67.96.05.03-.62-.92-.67-.96-.05h0Z" fill="#f4a658"/><path d="M137.13,168.57c-.22.19-.59.32-.89.45-.24.1-.32.42-.21.64.13.24.41.31.64.21.38-.16.77-.32,1.09-.59.47-.4-.17-1.11-.64-.71h0Z" fill="#f4a658"/><path d="M166.08,194.67c-.36.97-.48,2.08-.36,3.11.07.61,1.01.4.94-.2-.1-.86.03-1.8.33-2.6.21-.58-.69-.88-.91-.3h0Z" fill="#f4a658"/><path d="M163.47,197.67c-.52.77-.54,1.76-.38,2.65.11.61,1.04.4.93-.2-.11-.63-.13-1.37.25-1.92.35-.51-.45-1.04-.8-.53h0Z" fill="#f4a658"/><path d="M164.23,202.79c-.67.6-1.34,1.21-2.01,1.81-.46.41.18,1.12.64.71.67-.6,1.34-1.21,2.01-1.81.46-.41-.18-1.12-.64-.71h0Z" fill="#f4a658"/><path d="M159.39,204.78c-.03.62.92.67.96.05.03-.62-.92-.67-.96-.05h0Z" fill="#f4a658"/><path d="M159.89,204.33c-.96-.05-1.91-.1-2.87-.15-.62-.03-.67.92-.05.96.96.05,1.91.1,2.87.15.62.03.67-.92.05-.96h0Z" fill="#f4a658"/><path d="M157.51,199.55c-.47.42-.94.84-1.41,1.27-.46.41.18,1.12.64.71.47-.42.94-.84,1.41-1.27.46-.41-.18-1.12-.64-.71h0Z" fill="#f4a658"/><path d="M161.4,191.33c-.71.63-1.47,1.18-2.09,1.9-.17.2-.06.53.14.66.24.16.49.06.66-.14.56-.66,1.29-1.15,1.93-1.72.46-.41-.18-1.12-.64-.71h0Z" fill="#f4a658"/><path d="M155.71,195.07c-.26.96-.05,1.87.48,2.69.33.51,1.18.08.85-.44-.39-.6-.62-1.24-.42-1.95.16-.59-.74-.9-.91-.3h0Z" fill="#f4a658"/><path d="M162.79,206.83c-.34.45-.75.81-1.23,1.1-.53.32-.09,1.17.44.85.63-.38,1.15-.84,1.59-1.43.37-.49-.43-1.02-.8-.53h0Z" fill="#f4a658"/><path d="M153.8,206.45c.16.39.16.84.27,1.24.16.59,1.09.39.94-.2-.13-.49-.16-1-.35-1.47-.1-.24-.43-.32-.64-.21-.25.13-.3.4-.21.64h0Z" fill="#f4a658"/><path d="M155.79,211.36c-.26.64-.61,1.23-.87,1.87-.23.57.68.87.91.3.26-.64.61-1.23.87-1.87.23-.57-.68-.87-.91-.3h0Z" fill="#f4a658"/><path d="M154.1,200.21c-.75-.28-1.59-.47-2.4-.53-.62-.04-.67.91-.05.96.72.05,1.47.22,2.15.48.58.22.88-.69.3-.91h0Z" fill="#f4a658"/><path d="M149.41,197.73c-.05.89-.1,1.78-.14,2.68-.03.62.92.67.96.05.05-.89.1-1.78.14-2.68.03-.62-.92-.67-.96-.05h0Z" fill="#f4a658"/><path d="M149.98,205.05c-.04.7-.08,1.4-.11,2.1-.03.62.92.67.96.05.04-.7.08-1.4.11-2.1.03-.62-.92-.67-.96-.05h0Z" fill="#f4a658"/><path d="M153.45,211.94c-.01.19-.02.38-.03.57-.01.26.19.49.45.5.26.01.49-.19.5-.45.01-.19.02-.38.03-.57.01-.26-.19-.49-.45-.5-.26-.01-.49.19-.5.45h0Z" fill="#f4a658"/><path d="M152.44,215.83c-.68.2-1.28.55-1.89.91-.53.31-.09,1.17.44.85.53-.31,1.06-.65,1.65-.82.59-.17.39-1.11-.2-.94h0Z" fill="#f4a658"/><path d="M147.63,204.25c-.68-.04-1.38-.07-2.05.1-.6.15-.4,1.08.2.93.59-.15,1.19-.11,1.79-.08.62.03.67-.92.05-.96h0Z" fill="#f4a658"/><path d="M171.47,221.83c-.88.18-1.7.56-2.38,1.15-.47.4.17,1.12.64.71.56-.49,1.22-.77,1.95-.92.6-.13.4-1.06-.2-.93h0Z" fill="#f4a658"/><path d="M174.66,224.54c-.8.52-1.21,1.43-1.49,2.31-.19.59.72.89.91.3.19-.61.46-1.4,1.02-1.77.51-.33.08-1.19-.44-.85h0Z" fill="#f4a658"/><path d="M171.48,229.83c-.2.49-.54.91-.99,1.19-.52.32-.09,1.18.44.85.68-.42,1.16-1.01,1.46-1.74.24-.57-.67-.87-.91-.3h0Z" fill="#f4a658"/><path d="M168.68,232.46c-.39.15-.89.08-1.29.06-.62-.03-.67.92-.05.96.6.03,1.21.06,1.78-.16.24-.09.32-.43.21-.64-.13-.25-.4-.3-.64-.21h0Z" fill="#f4a658"/><path d="M166.66,228.26c-.64-.03-1.27-.07-1.91-.1-.62-.03-.67.92-.05.96.64.03,1.27.07,1.91.1.62.03.67-.92.05-.96h0Z" fill="#f4a658"/><path d="M168.39,225.55c-.75-.41-1.55-.69-2.36-.94-.59-.18-.89.73-.3.91.74.23,1.46.46,2.14.83.54.3,1.07-.5.53-.8h0Z" fill="#f4a658"/><path d="M166.09,234.8c-.4.55-.66,1.16-.91,1.79-.23.58.68.87.91.3.22-.55.45-1.08.8-1.57.36-.5-.44-1.02-.8-.53h0Z" fill="#f4a658"/><path d="M168.46,236c-.24.79-.47,1.57-.53,2.4-.04.62.91.67.96.05.05-.74.26-1.44.48-2.15.18-.59-.73-.89-.91-.3h0Z" fill="#f4a658"/><path d="M174.21,234.75c-.44.39-.96.69-1.4,1.07-.46.41.18,1.12.64.71.44-.39.96-.69,1.4-1.07.46-.41-.18-1.12-.64-.71h0Z" fill="#f4a658"/><path d="M176.24,231.31c-.26.48-.39,1.02-.66,1.5-.29.54.5,1.07.8.53.26-.48.39-1.02.66-1.5.29-.54-.5-1.07-.8-.53h0Z" fill="#f4a658"/><path d="M162.21,230.81c-.03.62.92.67.96.05s-.92-.67-.96-.05h0Z" fill="#f4a658"/><path d="M162.21,230.81c-.03.47-.16,1.02-.51,1.36-.44.43.2,1.14.64.71.54-.52.77-1.29.82-2.02.04-.62-.91-.67-.96-.05h0Z" fill="#f4a658"/><path d="M158.07,227.61c-.68-.04-1.38-.07-2.05.1-.6.15-.4,1.08.2.93.59-.15,1.19-.11,1.79-.08.62.03.67-.92.05-.96h0Z" fill="#f4a658"/><path d="M160.78,236.83c-.47.22-.75.64-1,1.08-.13.23-.09.51.14.66.21.14.53.09.66-.14.18-.32.33-.61.63-.75.24-.11.32-.42.21-.64-.12-.24-.41-.32-.64-.21h0Z" fill="#f4a658"/><path d="M162.26,244.22c-.03.62.92.67.96.05s-.92-.67-.96-.05h0Z" fill="#f4a658"/><path d="M162.22,243.88c-.36.31-.84.44-1.28.62-.57.24-.13,1.09.44.85.52-.22,1.04-.39,1.48-.76.47-.4-.17-1.11-.64-.71h0Z" fill="#f4a658"/><path d="M179.67,249.51c-.51.73-.54,1.65-.58,2.51-.03.62.92.67.96.05.04-.68.02-1.45.43-2.04.35-.51-.45-1.03-.8-.53h0Z" fill="#f4a658"/><path d="M180.72,253.83c-.03.6-.06,1.21-.27,1.77-.21.58.7.88.91.3.24-.65.28-1.35.32-2.03.03-.62-.92-.67-.96-.05h0Z" fill="#f4a658"/><path d="M179.82,256.77c-.76-.28-1.57-.27-2.36-.13-.61.11-.4,1.04.2.93.62-.11,1.25-.12,1.85.1.58.21.88-.7.3-.91h0Z" fill="#f4a658"/><path d="M177.19,255.18c-.03.62.92.67.96.05.03-.62-.92-.67-.96-.05h0Z" fill="#f4a658"/><path d="M177.57,254.74c-.52.15-1.03.34-1.56.49-.59.17-.39,1.1.2.94.52-.15,1.03-.34,1.56-.49.59-.17.39-1.1-.2-.93h0Z" fill="#f4a658"/><path d="M174.52,252.69c-.34.45-.75.81-1.23,1.1-.53.32-.09,1.17.44.85.63-.38,1.15-.84,1.59-1.43.37-.49-.43-1.02-.8-.53h0Z" fill="#f4a658"/><path d="M173.98,257.88c-.04.73-.09,1.45-.29,2.16-.17.59.74.9.91.3.23-.79.29-1.59.34-2.41.03-.62-.92-.67-.96-.05h0Z" fill="#f4a658"/><path d="M172.83,262.75c-.23.44-.3.88-.33,1.37-.03.62.92.67.96.05.02-.31.03-.62.17-.9.12-.23.1-.51-.14-.66-.2-.13-.54-.09-.66.14h0Z" fill="#f4a658"/><path d="M178.35,262.14c-.03.62.92.67.96.05.03-.62-.92-.67-.96-.05h0Z" fill="#f4a658"/><path d="M178.98,261.71c-.67-.23-1.35-.1-2.04-.13-.62-.02-.67.93-.05.96.59.02,1.22-.12,1.78.08.58.2.89-.71.3-.91h0Z" fill="#f4a658"/><path d="M183.69,256.45c-1,.54-1.85,1.28-2.7,2.04-.46.41.18,1.12.64.71.78-.7,1.57-1.39,2.5-1.9.54-.29.11-1.15-.44-.85h0Z" fill="#f4a658"/><path d="M183.92,260.95c-.7.64-1.3,1.38-1.91,2.1-.4.47.41.99.8.53.56-.66,1.11-1.33,1.75-1.92.46-.42-.18-1.13-.64-.71h0Z" fill="#f4a658"/><path d="M179.45,263.41c-.23.61-.43,1.22-.81,1.76-.36.5.44,1.03.8.53.43-.6.66-1.3.92-1.98.22-.58-.69-.88-.91-.3h0Z" fill="#f4a658"/><path d="M176.66,267.84c-.43.4-.78.88-1.22,1.28-.45.42.18,1.13.64.71.43-.4.78-.88,1.22-1.28.45-.42-.18-1.13-.64-.71h0Z" fill="#f4a658"/><path d="M172.75,267.37c-.25.1-.61.08-.86-.05-.23-.12-.51-.1-.66.14-.13.2-.09.54.14.66.57.3,1.22.34,1.82.1.24-.1.32-.43.21-.64-.13-.25-.4-.3-.64-.21h0Z" fill="#f4a658"/><path d="M169.58,257.84c-.04.61-.24,1.2-.46,1.76-.22.58.69.88.91.3.25-.65.46-1.32.51-2.02.05-.62-.91-.67-.96-.05h0Z" fill="#f4a658"/><path d="M164.96,257.25c-.45.43-.75,1.01-.8,1.64-.05.62.91.67.96.05.03-.37.22-.72.49-.98.45-.42-.19-1.14-.64-.71h0Z" fill="#f4a658"/><path d="M164.63,264.73c-.26.66-.46,1.31-.51,2.02-.04.62.91.67.96.05.04-.62.23-1.19.46-1.76.23-.58-.68-.87-.91-.3h0Z" fill="#f4a658"/><path d="M168.24,269.18c-.94-.26-1.73.12-2.31.86-.38.49.42,1.01.8.53.3-.39.71-.62,1.21-.48.59.16.9-.74.3-.91h0Z" fill="#f4a658"/><path d="M171.12,272.84c-.94.63-1.85,1.29-2.7,2.04-.46.41.18,1.12.64.71.78-.69,1.63-1.32,2.5-1.9.51-.34.07-1.2-.44-.85h0Z" fill="#f4a658"/><path d="M185.2,278.38c-.46.24-.95.49-1.45.64-.59.17-.39,1.11.2.93.59-.17,1.15-.44,1.69-.72.55-.29.11-1.14-.44-.85h0Z" fill="#f4a658"/><path d="M185.57,281.56c-.24.79-.47,1.57-.53,2.4-.04.62.91.67.96.05.05-.74.26-1.44.48-2.15.18-.59-.73-.89-.91-.3h0Z" fill="#f4a658"/><path d="M188.5,280.31c-.03.51-.05,1.02-.08,1.53-.03.62.92.67.96.05.03-.51.05-1.02.08-1.53.03-.62-.92-.67-.96-.05h0Z" fill="#f4a658"/><path d="M188.83,287.92c-.7.19-1.43.34-2.07.7-.54.3-.1,1.15.44.85.57-.32,1.21-.45,1.84-.62.59-.16.39-1.1-.2-.93h0Z" fill="#f4a658"/><path d="M184.84,288.71c-.42.19-.77.51-1.19.7-.56.26-.12,1.11.44.85.42-.19.77-.51,1.19-.7.56-.26.12-1.11-.44-.85h0Z" fill="#f4a658"/><path d="M182.02,283.96c-.37.17-.7.46-1.12.45-.62-.01-.67.94-.05.96.63.01,1.07-.31,1.61-.55.56-.26.12-1.11-.44-.85h0Z" fill="#f4a658"/><path d="M178.38,282.12c-.29.25-.71.46-1.09.63-.56.25-.12,1.1.44.85.45-.2.92-.45,1.29-.77.47-.4-.17-1.11-.64-.71h0Z" fill="#f4a658"/><path d="M177.57,287.84c-.24.75-.56,1.49-1.02,2.13-.36.5.44,1.03.8.53.51-.7.87-1.53,1.13-2.35.19-.59-.72-.89-.91-.3h0Z" fill="#f4a658"/><path d="M174.94,287.49c-.51-.52-1.22-.73-1.88-.99-.58-.22-.88.69-.3.91.49.19,1.1.33,1.47.72.43.44,1.14-.2.71-.64h0Z" fill="#f4a658"/><path d="M169.8,285.37c-.64.17-1.3.3-1.94.47-.59.16-.39,1.1.2.93.64-.17,1.3-.3,1.94-.47.59-.16.39-1.1-.2-.93h0Z" fill="#f4a658"/><path d="M172.76,291.54c-.05.64-.25,1.26-.29,1.9-.04.62.91.67.96.05.04-.64.24-1.26.29-1.9.05-.62-.91-.67-.96-.05h0Z" fill="#f4a658"/><path d="M168.14,295.83c.13.53.12,1.06.09,1.6-.03.62.92.67.96.05.03-.62.04-1.25-.11-1.86-.15-.6-1.09-.4-.93.2h0Z" fill="#f4a658"/><path d="M163.48,292.96c-.03.85.18,1.6.51,2.38.24.57,1.09.13.85-.44-.26-.62-.43-1.21-.41-1.89.02-.62-.93-.67-.96-.05h0Z" fill="#f4a658"/><path d="M166.92,303.88c-.03.62-.04,1.25.11,1.86.15.6,1.09.4.94-.2-.13-.53-.12-1.06-.09-1.6.03-.62-.92-.67-.96-.05h0Z" fill="#f4a658"/><path d="M173.83,300.96c-.62.35-1.34.5-1.96.85-.54.3-.1,1.15.44.85.62-.35,1.34-.5,1.96-.85.54-.3.1-1.15-.44-.85h0Z" fill="#f4a658"/><path d="M177.49,303.3c-.03.62.92.67.96.05.03-.62-.92-.67-.96-.05h0Z" fill="#f4a658"/><path d="M177.75,302.9c-.45.19-.92.31-1.37.5-.57.24-.13,1.09.44.85.45-.19.92-.31,1.37-.5.57-.24.13-1.09-.44-.85h0Z" fill="#f4a658"/><path d="M177.98,294.12c-.03.49,0,.94.18,1.4.1.24.43.32.64.21.25-.13.3-.4.21-.64-.12-.29-.09-.61-.08-.91.03-.62-.92-.67-.96-.05h0Z" fill="#f4a658"/><path d="M181.68,292.48c.41.18.64.64.76,1.05.17.59,1.11.39.94-.2-.22-.76-.64-1.43-1.39-1.75-.57-.24-.87.67-.3.91h0Z" fill="#f4a658"/><path d="M183.24,296.13c-.03.62.92.67.96.05.03-.62-.92-.67-.96-.05h0Z" fill="#f4a658"/><path d="M183.27,296c-.21.77-.54,1.47-1.14,2.03-.45.42.19,1.13.64.71.71-.66,1.15-1.51,1.4-2.44.16-.59-.75-.9-.91-.3h0Z" fill="#f4a658"/><path d="M185.01,300.73c-.73-.04-1.45-.09-2.16-.29-.59-.17-.9.74-.3.91.79.23,1.59.29,2.41.34.62.03.67-.92.05-.96h0Z" fill="#f4a658"/><path d="M179.01,304.02c-.26.68-.47,1.38-.69,2.07-.18.59.73.89.91.3.21-.69.42-1.39.69-2.07.22-.58-.69-.88-.91-.3h0Z" fill="#f4a658"/><path d="M179.12,307.83c-.65.76-1.48,1.35-2.3,1.91-.51.34-.07,1.2.44.85.89-.6,1.8-1.23,2.51-2.05.4-.46-.24-1.18-.64-.71h0Z" fill="#f4a658"/><path d="M175.74,308.34c-.59.27-1.01.78-1.25,1.37-.1.24.07.53.3.61.26.09.51-.06.61-.3.15-.37.42-.66.78-.82.56-.26.12-1.11-.44-.85h0Z" fill="#f4a658"/><path d="M168.77,314.04c-.64-.02-1.25.13-1.87.3-.59.16-.39,1.1.2.93.53-.14,1.06-.3,1.61-.28.62.02.67-.94.05-.96h0Z" fill="#f4a658"/><path d="M188.11,291.22c-.03.62.92.67.96.05.03-.62-.92-.67-.96-.05h0Z" fill="#f4a658"/><path d="M188.1,291.41c-.05.67-.23,1.33-.47,1.96-.22.58.69.88.91.3.27-.7.47-1.46.52-2.21.04-.62-.91-.67-.96-.05h0Z" fill="#f4a658"/><path d="M217.15,334.56c.25-2.83,55.69-232.16,55.69-232.16l155.7,37.52-50.52,226.2-160.87-31.55Z" fill="#ffd217"/><polygon points="272.84 102.4 313.51 94.88 456.88 127.33 428.54 139.92 272.84 102.4" fill="#ffed12"/><polygon points="456.88 127.33 436.51 265.81 399.94 262.17 428.54 139.92 456.88 127.33" fill="#edb220"/><polygon points="289.15 130.49 284.52 128.81 280.51 131.66 280.68 126.74 276.73 123.81 281.46 122.45 283.03 117.79 285.78 121.87 290.7 121.91 287.67 125.79 289.15 130.49" fill="#edb220"/><polygon points="290.7 202.6 284.15 197.86 276.54 200.57 279.02 192.88 274.09 186.48 282.17 186.46 286.74 179.79 289.25 187.47 297 189.76 290.48 194.52 290.7 202.6" fill="#edb220"/><polygon points="378.07 152.42 379.92 148.97 378.12 145.49 381.98 146.18 384.73 143.4 385.27 147.28 388.77 149.04 385.24 150.74 384.65 154.62 381.94 151.79 378.07 152.42" fill="#edb220"/><polygon points="341.17 213.43 336.11 207.9 328.69 208.94 332.38 202.42 329.1 195.69 336.44 197.18 341.83 191.98 342.67 199.43 349.28 202.95 342.47 206.05 341.17 213.43" fill="#edb220"/><polygon points="300.69 134.86 300.11 129.57 295.43 127.05 300.27 124.87 301.22 119.63 304.8 123.57 310.07 122.85 307.43 127.47 309.74 132.26 304.53 131.18 300.69 134.86" fill="#e5181f"/><polygon points="271.33 177.61 267.67 177.24 265.28 180.04 264.51 176.44 261.1 175.04 264.29 173.19 264.57 169.52 267.31 171.98 270.89 171.11 269.4 174.48 271.33 177.61" fill="#e5181f"/><polygon points="311.4 214.33 308.01 209.46 302.07 209.49 305.66 204.76 303.79 199.12 309.4 201.07 314.18 197.55 314.06 203.49 318.89 206.95 313.2 208.67 311.4 214.33" fill="#e5181f"/><polygon points="364.97 162.1 365 159.25 362.68 157.61 365.39 156.76 366.23 154.04 367.88 156.36 370.73 156.32 369.03 158.61 369.95 161.3 367.25 160.39 364.97 162.1" fill="#e5181f"/><polygon points="358.82 138.06 355.41 136.49 352.18 138.42 352.61 134.68 349.78 132.21 353.47 131.47 354.95 128.01 356.79 131.29 360.54 131.63 357.99 134.39 358.82 138.06" fill="#e5181f"/><polygon points="407.24 174.42 404.24 169.55 398.54 169.26 402.24 164.91 400.76 159.39 406.04 161.57 410.84 158.45 410.39 164.15 414.84 167.75 409.28 169.09 407.24 174.42" fill="#e5181f"/><path d="M450.09,227.52c4.9-8.91,1.34-11.5,1.02-18.66s16.77-26.89,16.77-26.89l-12.18-9.35.03-.04-12.34-9.54s-14.72,21.56-21.72,23.07c-7,1.52-10.41-1.27-17.78,5.75-7.37,7.01-50.68,59.7-52.23,67.58-1.55,7.87,39.21,39.33,46.42,35.83,7.22-3.51,47.11-58.83,52.01-67.75Z" fill="#88b4d3"/><path d="M444.87,225.13c4.69-8.22.97-10.35,1.01-16.76.04-6.41,16.13-25.27,16.13-25.27l-9.79-7.51.03-.04-8.44-6.52s-13.84,20.01-20.03,21.69c-6.19,1.67-10.98-2.17-17.74,4.46-6.75,6.63-46.99,55.86-48.7,63-1.71,7.14,32.54,33.57,39.01,30.1,6.47-3.47,43.82-54.92,48.51-63.14Z" fill="#9ed2f2"/><path d="M442.44,168.06h20.52c5.03,0,9.12,4.09,9.12,9.12v6.78h-38.76v-6.78c0-5.03,4.09-9.12,9.12-9.12Z" transform="translate(202.16 -240.1) rotate(37.7)" fill="#e5181f"/><path d="M469.55,178.99l-6.29-4.86c1.85,1.43,2.19,4.08.76,5.92l-7.14,9.24,6.29,4.86,7.14-9.24c1.43-1.85,1.09-4.5-.76-5.92Z" fill="#aa131f"/><rect x="425.93" y="183.42" width="38.76" height="4.31" transform="translate(206.47 -233.58) rotate(37.7)" fill="#e5181f"/><path d="M446.61,163.02c-.9-.63-2.01-1.24-3.05-.9-.43.14-.8.43-1.13.75-1.02.96-1.79,2.18-2.23,3.51-.25.77-.32,1.77.35,2.22.61.4,1.44.07,2.01-.4.56-.47,1.06-1.07,1.76-1.29.72-.22,1.48.04,2.17.33,1.62.7,3.11,1.69,4.4,2.89.52.49,1.03,1.03,1.69,1.28.66.26,1.55.13,1.9-.49.25-.44.16-1.01-.1-1.45-.26-.44-.65-.77-1.04-1.1-2.18-1.83-4.39-3.72-6.72-5.36Z" fill="#fff" opacity=".27"/><rect x="453.62" y="192.88" width="7.84" height="4.31" transform="translate(214.8 -239.08) rotate(37.7)" fill="#aa131f"/><path d="M401.82,198.79c-17.47,21.34-42.38,53.22-44.26,59.11-2.67,8.38,31.59,34.81,39.02,30.09,5.22-3.31,29.68-35.48,45.88-57.79l-40.64-31.41Z" fill="#eac113"/><path d="M442.53,230.25l-8.77-6.78c-15.48,20.95-34.28,45.24-38.78,48.1-5.33,3.38-24.44-9.24-33.85-19.75-1.89,2.85-3.13,4.99-3.5,6.13-2.67,8.38,31.59,34.81,39.02,30.09,5.22-3.31,29.68-35.48,45.88-57.79Z" fill="#e8ac15"/><path d="M402.02,198.53c-3.16,3.38,8.33,10.97,18.06,18.71,9.73,7.74,20.64,15.48,22.58,12.71,1.94-2.78-8.68-10.09-18.47-18.1-9.79-8.01-20.07-15.56-22.17-13.31Z" fill="#ffd217"/><path d="M409.98,198.1c-1.97,1.77-3.74,3.76-5.28,5.91-.77,1.09-1.51,2.28-1.6,3.61-.09,1.33.67,2.81,1.97,3.09,1.09.24,2.17-.4,3.02-1.12,2.22-1.89,3.72-4.57,6.16-6.16,2.78-1.82,14.24-3.73,7.79-7.84-4.05-2.58-8.74-.48-12.07,2.51Z" fill="#fff" opacity=".46"/><path d="M44.76,143.53c-13.78,11.28,1.32,58.92,6.8,71.8,16.48,38.79,69.6,139.18,74.25,144.46,11.93,13.55,33.74-1.08,38.71-9.88,9.91-17.54,6.59-28.24.64-43.16-5.29-13.27-49.19-92.76-64.48-120.48-14.5-26.29-35.76-59.27-55.93-42.76Z" fill="#ed9254"/><path d="M160.56,297.1c-.49,3.16-1.43,6.04-2.6,7.85-2.51,3.88-5.41,7.73-8.3,11.36-2.57,3.23-8.48,7.4-12.29,9,11.66,4.86,26.39-11.65,28.97-15.1-.55-1.47-1.14-2.97-1.75-4.51-.71-1.77-2.1-4.73-4.03-8.59Z" fill="#fecc84"/><path d="M166.35,310.2c-.24-.65-.5-1.31-.76-1.98-2.75,3.55-14.73,16.71-25.43,15.68-.99.57-1.94,1.05-2.78,1.4,11.66,4.86,26.39-11.65,28.97-15.1Z" fill="#db884f"/><path d="M84.18,216.74c5.38.86,14.07-1.41,17.56-4.06,2.4-1.82,5.45-6.91,7.88-10.23-2.62-4.76-5.01-9.09-7.07-12.82-.15,1.46-.33,2.67-.47,3.4-1.08,5.81-3.26,10.96-7.58,15.11-2.29,2.2-7.68,5.83-10.33,8.6Z" fill="#fecc84"/><path d="M101.74,212.67c2.4-1.82,5.45-6.91,7.88-10.23-.29-.53-.58-1.06-.87-1.58-2.4,3.31-5.37,8.2-7.7,9.98-3,2.28-9.84,4.27-15.12,4.24-.66.57-1.25,1.12-1.75,1.64,5.38.86,14.07-1.41,17.56-4.06Z" fill="#db884f"/><path d="M83.42,180.4c-4.13,5.53-9.01,11.22-13.46,14.83,5.57.1,13.52-2.99,17.91-5.47,5.32-3.01,7.5-10.46,8.21-11.69-2.68-4.63-5.54-9.31-8.54-13.76.49,5.48-.61,11.4-4.13,16.1Z" fill="#fecc84"/><path d="M87.89,189.75c5.32-3.01,7.5-10.46,8.21-11.69-.34-.59-.68-1.17-1.02-1.76-.82,1.73-3.03,8.6-8.1,11.47-3.53,2-9.38,4.39-14.43,5.2-.87.82-1.73,1.58-2.57,2.26,5.57.1,13.52-2.99,17.91-5.47Z" fill="#db884f"/><path d="M139.36,284.35c-4.2,4.38-10.55,10.18-15.97,13.79,4.81,2.57,15.29-2.19,19.48-4.18,4.03-1.91,7.66-6.15,11.51-8.89-1.91-3.66-4.02-7.64-6.26-11.85-2.04,4.19-5.66,7.91-8.76,11.13Z" fill="#fecc84"/><path d="M142.85,293.93c4.03-1.91,7.66-6.15,11.51-8.89-.3-.57-.61-1.16-.91-1.74-3.46,2.71-6.78,6.35-10.43,8.08-3.57,1.69-11.71,5.41-17.02,4.87-.89.66-1.77,1.29-2.62,1.86,4.81,2.57,15.29-2.19,19.48-4.18Z" fill="#db884f"/><path d="M129.1,252.66c-3.19,3.92-5.62,8.21-9.24,11.64-3.01,2.85-6.75,5.3-9.62,7.99,3.31.18,5.79.35,9.17-.65,5.92-1.75,14.18-7.33,16.8-9.27,1.24-.92,2.54-2.66,3.86-4.16-2.37-4.4-4.82-8.9-7.28-13.43-.76,3.06-2.08,5.89-3.7,7.88Z" fill="#fecc84"/><path d="M119.37,271.64c5.92-1.75,14.18-7.33,16.8-9.27,1.24-.92,2.54-2.66,3.86-4.16-.32-.6-.65-1.2-.97-1.8-1.13,1.32-2.23,2.71-3.3,3.5-2.62,1.94-10.88,7.52-16.8,9.27-2.25.66-4.1.81-6.06.78-.95.76-1.87,1.53-2.71,2.32,3.31.18,5.79.35,9.17-.65Z" fill="#db884f"/><path d="M95.98,244.56c4.79,2.43,13.66-.79,17.52-4.06,4-3.4,7.65-6.79,11.24-10.51-2.18-3.98-4.32-7.9-6.41-11.7-2.5,10.95-12.88,21.33-22.35,26.27Z" fill="#fecc84"/><path d="M113.44,240.53c4-3.4,7.65-6.79,11.24-10.51-.39-.72-.79-1.44-1.18-2.15-3.52,3.64-7.11,6.97-11.03,10.3-3.02,2.56-9.09,5.09-13.89,4.91-.89.55-1.78,1.06-2.66,1.52,4.79,2.43,13.66-.79,17.52-4.06Z" fill="#db884f"/><path d="M127.38,357.5c-4.24-8.42-9.84-16.45-13.93-25.34-1.89-4.11-4.07-7.9-5.91-12.12-1.83-4.21-3.12-8.85-5.59-12.75-2.63-4.15-5.73-7.7-8.1-12.05-2.34-4.29-4.6-8.68-7.2-12.78-2.7-4.26-4.64-8.4-6.58-12.88-1.71-3.95-2.31-8.75-4.11-12.71-2.28-5.01-6.29-9.23-8.73-13.97-1.99-3.86-3.14-8.48-4.69-12.61-3.77-10.03-8-20.12-11.71-30.36-3.81-10.54-5.52-21.29-7.38-32.53-1.2-7.24-1.24-16.24.93-23.57-13.11,11.85,1.76,58.71,7.18,71.47,16.48,38.79,69.6,139.18,74.25,144.46,1.86,2.11,3.96,3.54,6.19,4.41-.93-2.31-3.77-5.01-4.62-6.69Z" fill="#c67b47"/><path d="M69.69,152.99c.15.88.29,1.76.44,2.64.1.61,1.04.45.94-.16-.15-.88-.29-1.76-.44-2.64-.1-.61-1.04-.45-.94.16h0Z" fill="#c67b47"/><path d="M74.76,154.23c.34.8.62,1.6.78,2.46.11.61,1.05.45.94-.16-.17-.94-.48-1.83-.85-2.7-.24-.57-1.11-.17-.87.4h0Z" fill="#c67b47"/><path d="M73.62,160.23c.33.6.74,1.16,1.07,1.76.29.54,1.16.14.87-.4-.33-.6-.74-1.16-1.07-1.76-.29-.54-1.16-.14-.87.4h0Z" fill="#c67b47"/><path d="M68.76,162.99c.59.42,1.17.84,1.76,1.26.5.36,1.06-.42.56-.78-.59-.42-1.17-.84-1.76-1.26-.5-.36-1.06.42-.56.78h0Z" fill="#c67b47"/><path d="M75.54,168.08c-.25.54-.5,1.11-.93,1.53-.44.43.17,1.17.61.74.56-.54.9-1.22,1.21-1.93.26-.56-.64-.9-.89-.34h0Z" fill="#c67b47"/><path d="M81.43,164.12c-.1.6-.19,1.2-.29,1.79-.1.61.85.71.95.1.1-.6.19-1.2.29-1.79.1-.61-.86-.71-.95-.1h0Z" fill="#c67b47"/><path d="M80.04,158.9c.28.41.47.92.55,1.41.11.61,1.06.45.94-.16-.12-.66-.38-1.31-.76-1.86-.35-.51-1.09.11-.74.61h0Z" fill="#c67b47"/><path d="M84.56,168.24c-.73.8-1.13,1.86-1.19,2.93-.03.61.92.72.95.1.05-.93.39-1.78,1.02-2.48.42-.46-.37-1.01-.78-.56h0Z" fill="#c67b47"/><path d="M78.44,175.18c-.76.56-1.44,1.29-1.75,2.21-.2.58.7.93.89.34.26-.77.83-1.34,1.47-1.81.5-.37-.12-1.1-.61-.74h0Z" fill="#c67b47"/><path d="M79.17,171.38c-.43.33-.75.79-1.06,1.22-.36.5.42,1.06.78.56.27-.37.53-.76.89-1.04.49-.37-.12-1.11-.61-.74h0Z" fill="#c67b47"/><path d="M72.12,174.22c-.31.05-.63.1-.94.16-.61.1-.45,1.04.16.94.31-.05.63-.1.94-.16.61-.1.45-1.04-.16-.94h0Z" fill="#c67b47"/><path d="M65.25,145.48c-.31.05-.63.1-.94.16-.61.1-.45,1.04.16.94.31-.05.63-.1.94-.16.61-.1.45-1.04-.16-.94h0Z" fill="#c67b47"/><path d="M59.52,143.97c-.44.32-.96.6-1.15,1.14-.21.58.69.92.89.34.11-.32.58-.54.87-.74.21-.15.22-.48.06-.67-.18-.21-.46-.21-.67-.06h0Z" fill="#c67b47"/><path d="M56.38,151.11c.06.38.12.76.19,1.13.1.61,1.04.45.94-.16-.06-.38-.12-.76-.19-1.13-.1-.61-1.04-.45-.94.16h0Z" fill="#c67b47"/><path d="M62.42,152.45c.1.61,1.04.45.94-.16-.1-.61-1.04-.45-.94.16h0Z" fill="#c67b47"/><path d="M62.53,152.67c.28.41.47.92.55,1.41.11.61,1.06.45.94-.16-.12-.66-.38-1.31-.76-1.86-.35-.51-1.09.11-.74.61h0Z" fill="#c67b47"/><path d="M61.53,161.13c.1.61,1.04.45.94-.16-.1-.61-1.04-.45-.94.16h0Z" fill="#c67b47"/><path d="M61.53,161.13c.14.77.45,1.44.98,2.02.41.45,1.15-.15.74-.61-.42-.46-.66-.95-.77-1.57-.11-.61-1.05-.45-.94.16h0Z" fill="#c67b47"/><path d="M63.89,173.88c-.19.59-.43,1.15-.54,1.76-.11.61.84.7.95.1.09-.52.32-1.01.48-1.51.19-.59-.7-.93-.89-.34h0Z" fill="#c67b47"/><path d="M58.26,172.19c-.23.34-.35.75-.47,1.15-.08.25.02.52.28.62.23.09.54-.03.62-.28.1-.31.19-.69.35-.93.34-.51-.43-1.07-.78-.56h0Z" fill="#c67b47"/><path d="M70.58,185.43c.1.61,1.04.45.94-.16-.1-.61-1.04-.45-.94.16h0Z" fill="#c67b47"/><path d="M70.66,185.07c-.47.66-.94,1.32-1.29,2.06-.26.56.63.9.89.34.31-.66.75-1.25,1.17-1.84.36-.5-.42-1.06-.78-.56h0Z" fill="#c67b47"/><path d="M96.81,184.47c-.09.62,0,1.24.1,1.86.1.61,1.04.45.94-.16-.09-.54-.16-1.06-.09-1.6.08-.61-.87-.71-.95-.1h0Z" fill="#c67b47"/><path d="M97.73,193.99c-.37.51-.74,1.03-1.1,1.54-.36.5.42,1.06.78.56.37-.51.74-1.03,1.1-1.54.36-.5-.42-1.06-.78-.56h0Z" fill="#c67b47"/><path d="M92.4,194.02c-.38.29-.67.67-1.09.91-.54.3-.14,1.17.4.87.5-.28.85-.7,1.3-1.04.49-.37-.12-1.11-.61-.74h0Z" fill="#c67b47"/><path d="M93.89,187.76c-.3.22-.55.5-.85.72-.21.16-.22.48-.06.67.17.21.46.22.67.06.3-.22.55-.5.85-.72.21-.16.22-.48.06-.67-.17-.21-.46-.22-.67-.06h0Z" fill="#c67b47"/><path d="M86.88,191.71c-.36.51-.52,1.07-.62,1.67-.1.61.85.71.95.1.07-.44.19-.85.45-1.22.35-.51-.42-1.06-.78-.56h0Z" fill="#c67b47"/><path d="M81.06,195.68c-.15.47-.28.94-.22,1.44.08.61,1.02.45.94-.16-.04-.32.07-.64.17-.95.08-.25-.02-.52-.28-.62-.23-.09-.54.03-.62.28h0Z" fill="#c67b47"/><path d="M76.28,201.17c.1.61,1.04.45.94-.16-.1-.61-1.04-.45-.94.16h0Z" fill="#c67b47"/><path d="M76.28,201.17c.08.5.17,1.01.25,1.51.1.61,1.04.45.94-.16-.08-.5-.17-1.01-.25-1.51-.1-.61-1.04-.45-.94.16h0Z" fill="#c67b47"/><path d="M82.15,207.38c.07.44.15.88.22,1.32.1.61,1.04.45.94-.16-.07-.44-.15-.88-.22-1.32-.1-.61-1.04-.45-.94.16h0Z" fill="#c67b47"/><path d="M86.94,201.16s0,.04,0-.04c0,.02,0,.05,0,.07,0,.03,0,.05-.01.08.02-.1-.01.04-.02.05-.02.06-.04.12-.07.17-.01.03-.03.05-.04.08.04-.09-.02.02-.03.04-.15.22-.11.51.11.67.21.15.52.11.67-.11.23-.33.38-.77.34-1.17-.03-.26-.3-.44-.55-.39-.27.04-.43.29-.39.55h0Z" fill="#c67b47"/><path d="M93.77,201.39s.01.08.02.13c0,.03.02.22.02.11,0,.06,0,.11,0,.17,0,.05,0,.05,0,0,0,.03-.07.12,0,.03-.14.22-.11.51.11.67.2.15.53.11.67-.11.23-.35.21-.75.15-1.14-.04-.26-.29-.44-.55-.39-.26.04-.44.29-.39.55h0Z" fill="#c67b47"/><path d="M89.62,207.41c-.46.1-.77.52-.71.99.03.26.3.44.55.39.27-.04.43-.29.39-.55,0-.05,0-.03,0,.05,0-.05,0-.04-.01.04,0-.02.01-.03.02-.05-.04.07-.04.08-.02.04.03-.04.02-.03-.03.03.01-.01.03-.02.04-.04-.07.04-.08.05-.04.03-.08.02-.1.03-.05.01.26-.05.44-.28.39-.55-.04-.25-.29-.45-.55-.39h0Z" fill="#c67b47"/><path d="M99.77,188.37c.06.38.12.76.19,1.13.1.61,1.04.45.94-.16-.06-.38-.12-.76-.19-1.13-.1-.61-1.04-.45-.94.16h0Z" fill="#c67b47"/><path d="M109.67,208.46c.05.3.11.61.02.92-.07.25.02.52.28.62.23.09.55-.02.62-.28.13-.48.11-.93.03-1.41-.1-.61-1.04-.45-.94.16h0Z" fill="#c67b47"/><path d="M112.55,218.85c.05.37-.03.78-.13,1.14-.18.59.72.93.89.34.16-.52.26-1.09.18-1.63-.08-.61-1.03-.45-.94.16h0Z" fill="#c67b47"/><path d="M108.2,217.96c-.26.55-.72.91-1.27,1.15-.56.25-.16,1.12.4.87.78-.35,1.39-.9,1.76-1.68.27-.56-.63-.9-.89-.34h0Z" fill="#c67b47"/><path d="M105.74,212.57c-.49.44-1.06.78-1.54,1.22-.45.41.15,1.15.61.74.49-.44,1.06-.78,1.54-1.22.46-.41-.15-1.15-.61-.74h0Z" fill="#c67b47"/><path d="M96.87,217.02c-.4.61-.45,1.35-.56,2.05-.09.61.86.71.95.1.08-.52.09-1.14.39-1.6.34-.51-.44-1.07-.78-.56h0Z" fill="#c67b47"/><path d="M101.13,220.15c.05.37-.03.78-.13,1.14-.18.59.72.93.89.34.16-.52.26-1.09.18-1.63-.08-.61-1.03-.45-.94.16h0Z" fill="#c67b47"/><path d="M100.69,231.23c-.11.35-.19.67-.46.87-.21.16-.22.48-.06.67.17.21.47.22.67.06.41-.31.59-.79.74-1.27.08-.25-.02-.52-.28-.62-.23-.09-.54.03-.62.28h0Z" fill="#c67b47"/><path d="M96.03,231.77c-.62.34-1.13.81-1.65,1.29-.45.42.16,1.16.61.74.45-.42.9-.86,1.44-1.16.54-.3.14-1.17-.4-.87h0Z" fill="#c67b47"/><path d="M92.68,224.5c-.22.3-.44.6-.74.82-.21.16-.22.48-.06.67.17.21.47.22.67.06.36-.27.64-.64.9-1,.36-.5-.42-1.06-.78-.56h0Z" fill="#c67b47"/><path d="M85.73,219.9c-.68.37-1.09.95-1.22,1.7-.05.26.18.5.43.53.27.03.48-.17.53-.43.07-.41.3-.73.67-.94.23-.12.35-.39.23-.63-.1-.22-.41-.36-.64-.23h0Z" fill="#c67b47"/><path d="M86.1,231.23c-.09.62,0,1.24.1,1.86.1.61,1.04.45.94-.16-.09-.54-.16-1.06-.09-1.6.08-.61-.87-.71-.95-.1h0Z" fill="#c67b47"/><path d="M87.54,238.88c.06.35.19.63.48.85.21.16.52.1.67-.11.16-.22.1-.51-.11-.67-.11-.08.05.07-.03-.03-.03-.04-.03-.04,0,.02-.01-.02-.02-.04-.03-.06-.02-.05-.02-.04,0,.03,0-.02-.01-.04-.02-.06,0-.04-.02-.08-.02-.13-.04-.26-.29-.44-.55-.39-.26.04-.44.29-.39.55h0Z" fill="#c67b47"/><path d="M109.52,223.57c-.27.9-.49,1.82-.92,2.67-.28.55.62.89.89.34.43-.85.64-1.77.92-2.67.18-.59-.71-.93-.89-.34h0Z" fill="#c67b47"/><path d="M112.32,222.91c-.13.41-.25.82-.38,1.23-.08.25.02.52.28.62.23.09.54-.03.62-.28.13-.41.25-.82.38-1.23.08-.25-.02-.52-.28-.62-.23-.09-.54.03-.62.28h0Z" fill="#c67b47"/><path d="M113.45,212.43c.31.59.61,1.18.88,1.79.25.57,1.12.16.87-.4-.27-.61-.57-1.2-.88-1.79-.29-.54-1.16-.15-.87.4h0Z" fill="#c67b47"/><path d="M124.82,236.8c.15,1,.13,2-.07,2.99-.12.61.83.7.95.1.22-1.07.23-2.17.06-3.24-.09-.61-1.04-.45-.94.16h0Z" fill="#c67b47"/><path d="M121.94,238.49c-.52.75-.95,1.57-1.23,2.43-.19.59.7.93.89.34.26-.8.63-1.54,1.11-2.22.35-.51-.42-1.06-.78-.56h0Z" fill="#c67b47"/><path d="M122.1,245.01c.12.63.39,1.22.5,1.86.11.61,1.05.45.94-.16-.11-.63-.38-1.23-.5-1.86-.11-.61-1.06-.45-.94.16h0Z" fill="#c67b47"/><path d="M128.14,242.85c.1.63.21,1.26.31,1.89.1.61,1.04.45.94-.16-.1-.63-.21-1.26-.31-1.89-.1-.61-1.04-.45-.94.16h0Z" fill="#c67b47"/><path d="M129.93,246.19c-.49.93-1.08,1.79-1.48,2.77-.23.57.66.91.89.34.4-.97.99-1.84,1.48-2.77.29-.55-.61-.88-.89-.34h0Z" fill="#c67b47"/><path d="M124.74,254.82c-.62.59-1.22,1.22-1.72,1.91-.36.5.41,1.06.78.56.46-.63.99-1.2,1.56-1.73.45-.42-.16-1.16-.61-.74h0Z" fill="#c67b47"/><path d="M122.3,252.27c-.61.33-1.13.78-1.76,1.07-.56.25-.16,1.12.4.87.63-.29,1.16-.73,1.76-1.07.54-.29.14-1.17-.4-.87h0Z" fill="#c67b47"/><path d="M116.26,248.61c-.42.22-.86.5-1.33.59-.6.12-.45,1.06.16.94.56-.11,1.07-.4,1.57-.66.54-.29.15-1.16-.4-.87h0Z" fill="#c67b47"/><path d="M115.61,241.52c-.7.13-1.31.47-1.83.95-.46.41.15,1.15.61.74.4-.36.84-.64,1.38-.74.61-.11.45-1.06-.16-.94h0Z" fill="#c67b47"/><path d="M107.46,247.08c-.51.74-.79,1.6-.88,2.49-.06.61.89.71.95.1.07-.73.28-1.43.7-2.04.35-.51-.43-1.07-.78-.56h0Z" fill="#c67b47"/><path d="M109.24,257.47c-.2.92-.29,1.83-.32,2.77-.02.61.93.72.95.1.03-.93.12-1.85.32-2.77.13-.6-.82-.7-.95-.1h0Z" fill="#c67b47"/><path d="M116.39,257.17c-.64.64-.91,1.51-.99,2.39-.06.61.89.71.95.1.06-.61.2-1.31.65-1.76.43-.43-.17-1.17-.61-.74h0Z" fill="#c67b47"/><path d="M112.3,266.12c-.37.08-.62.39-.92.61-.21.15-.22.48-.06.67.17.21.46.22.67.06.12-.09.24-.19.36-.29.05-.04.1-.08.15-.12.04-.03.04-.03-.02.02.04-.02.12-.03-.02,0,.25-.05.44-.28.39-.55-.04-.25-.29-.45-.55-.39h0Z" fill="#c67b47"/><path d="M124.38,231.95c-.29.16-.55.37-.72.66-.18.31-.26.66-.31,1.01-.1.61.85.71.95.1.07-.4.13-.71.48-.9.23-.13.35-.39.23-.64-.1-.22-.41-.36-.64-.23h0Z" fill="#c67b47"/><path d="M139.6,261.65c.23.43.5.84.59,1.33.11.61,1.06.45.94-.16-.11-.58-.39-1.06-.66-1.57-.29-.54-1.16-.14-.87.4h0Z" fill="#c67b47"/><path d="M143.11,268.89c.11.73.05,1.46,0,2.2-.05.62.9.72.95.1.07-.82.12-1.64,0-2.46-.09-.61-1.03-.45-.94.16h0Z" fill="#c67b47"/><path d="M142.41,273.82c-.78.58-1.3,1.36-1.75,2.21-.29.55.61.88.89.34.37-.7.82-1.34,1.47-1.81.49-.37-.12-1.1-.61-.74h0Z" fill="#c67b47"/><path d="M138.19,268.1c-.26.55-.71.97-1.15,1.37-.45.42.16,1.16.61.74.56-.53,1.1-1.06,1.43-1.77.27-.56-.63-.89-.89-.34h0Z" fill="#c67b47"/><path d="M132.43,268.23c-.93.15-1.84.34-2.74.66-.58.21-.18,1.08.4.87.81-.3,1.64-.45,2.49-.59.61-.1.45-1.04-.16-.94h0Z" fill="#c67b47"/><path d="M128.18,274.71c-.07.69-.32,1.3-.6,1.92-.25.56.64.9.89.34.32-.7.59-1.4.66-2.16.06-.61-.89-.71-.95-.1h0Z" fill="#c67b47"/><path d="M133.81,274.45c-.49.96-.86,1.96-1.1,3.01-.14.6.81.69.95.1.22-.97.6-1.89,1.05-2.77.28-.55-.62-.88-.89-.34h0Z" fill="#c67b47"/><path d="M135.42,281.96c-.63.6-1.1,1.32-1.37,2.15-.19.59.7.93.89.34.22-.67.58-1.26,1.09-1.75.44-.42-.16-1.16-.61-.74h0Z" fill="#c67b47"/><path d="M128.78,288.05c-.82.37-1.54.91-2.08,1.63-.37.5.41,1.05.78.56.44-.59,1.03-1.02,1.7-1.32.56-.25.16-1.12-.4-.87h0Z" fill="#c67b47"/><path d="M126.08,284.61c-.8.47-1.66.82-2.52,1.19-.57.24-.17,1.11.4.87.86-.37,1.71-.72,2.52-1.19.53-.31.13-1.18-.4-.87h0Z" fill="#c67b47"/><path d="M121.46,278.18l-1.89.31c-.61.1-.45,1.04.16.94.63-.1,1.26-.21,1.89-.31.61-.1.45-1.04-.16-.94h0Z" fill="#c67b47"/><path d="M115.28,274.98c-.4,1.03-.65,2.1-.88,3.17-.13.6.82.7.95.1.22-.99.46-1.98.83-2.93.22-.58-.67-.92-.89-.34h0Z" fill="#c67b47"/><path d="M115.54,285.51c-.11.17-.16.34-.2.53-.01.07-.02.14-.04.21-.02.14.03-.09-.01.04,0,.03-.07.12-.01.03-.14.22-.11.51.11.67.2.15.53.11.67-.11.11-.17.16-.34.2-.53.01-.07.02-.14.04-.21.02-.14-.03.09.01-.04,0-.03.07-.12.01-.03.14-.22.11-.51-.11-.67-.2-.15-.53-.11-.67.11h0Z" fill="#c67b47"/><path d="M124.77,273.24c-.84-.24-1.69-.22-2.48.17-.55.27-.15,1.14.4.87.55-.27,1.15-.31,1.74-.14.59.17.94-.73.34-.89h0Z" fill="#c67b47"/><path d="M126.96,279.8c-.59.11-1.2.47-1.41,1.05-.21.58.69.92.89.34.09-.25.44-.41.67-.45.61-.11.45-1.06-.16-.94h0Z" fill="#c67b47"/><path d="M131.17,284.41c-.37.27-.64.63-.9,1-.36.5.42,1.06.78.56.25-.35.41-.58.74-.82.21-.15.22-.48.06-.67-.17-.21-.46-.22-.67-.06h0Z" fill="#c67b47"/><path d="M153.11,287.22c.12.63.39,1.22.5,1.86.11.61,1.05.45.94-.16-.11-.63-.38-1.23-.5-1.86-.11-.61-1.06-.45-.94.16h0Z" fill="#c67b47"/><path d="M156.18,291.63c-.05.71.01,1.43-.04,2.14-.04.62.91.72.95.1.05-.71-.01-1.43.04-2.14.04-.62-.91-.72-.95-.1h0Z" fill="#c67b47"/><path d="M157.42,297.22c-.61.85-1.18,1.71-1.57,2.68-.23.57.66.91.89.34.37-.9.89-1.68,1.46-2.47.36-.5-.42-1.06-.78-.56h0Z" fill="#c67b47"/><path d="M151.88,298.78c-.67.29-1.32.63-1.87,1.13-.45.41.15,1.15.61.74.49-.45,1.05-.74,1.66-1,.56-.25.16-1.12-.4-.87h0Z" fill="#c67b47"/><path d="M150.89,292.74c-.6.31-1.18.65-1.68,1.1-.45.41.15,1.15.61.74.44-.4.94-.69,1.47-.97.54-.29.15-1.16-.4-.87h0Z" fill="#c67b47"/><path d="M145.26,294.91c.1.61,1.04.45.94-.16s-1.04-.45-.94.16h0Z" fill="#c67b47"/><path d="M145.47,294.39c-.88.15-1.69.35-2.43.85-.51.35.1,1.08.61.74.59-.41,1.28-.53,1.98-.65.61-.1.45-1.04-.16-.94h0Z" fill="#c67b47"/><path d="M141.42,298.65c.1.61,1.04.45.94-.16-.1-.61-1.04-.45-.94.16h0Z" fill="#c67b47"/><path d="M141.42,298.52c-.07.85-.1,1.7-.16,2.55-.05.61.9.72.95.1.07-.85.1-1.7.16-2.55.05-.62-.9-.72-.95-.1h0Z" fill="#c67b47"/><path d="M143.47,305.53c-.4.57-.66,1.21-.78,1.89-.11.61.84.7.95.1.09-.52.31-1.01.61-1.44.35-.51-.42-1.07-.78-.56h0Z" fill="#c67b47"/><path d="M145.88,302.05c-.06.79-.13,1.57-.19,2.36-.05.62.9.72.95.1.06-.79.13-1.57.19-2.36.05-.61-.9-.72-.95-.1h0Z" fill="#c67b47"/><path d="M151.95,303.57c-.09.48-.36.86-.64,1.25-.36.5.42,1.06.78.56.38-.53.7-1.06.81-1.71.11-.61-.84-.7-.95-.1h0Z" fill="#c67b47"/><path d="M147.91,310.96c.1.61,1.04.45.94-.16-.1-.61-1.04-.45-.94.16h0Z" fill="#c67b47"/><path d="M147.92,310.73c-.53.5-.96,1.1-1.48,1.6-.44.42.16,1.16.61.74.53-.5.96-1.1,1.48-1.6.44-.42-.16-1.16-.61-.74h0Z" fill="#c67b47"/><path d="M142.42,315.47c-.59.31-1.2.57-1.79.88-.55.28-.15,1.15.4.87.59-.31,1.2-.57,1.79-.88.55-.28.15-1.15-.4-.87h0Z" fill="#c67b47"/><path d="M135.65,299.5c-.5.08-1.01.17-1.51.25-.61.1-.45,1.04.16.94.5-.08,1.01-.17,1.51-.25.61-.1.45-1.04-.16-.94h0Z" fill="#c67b47"/><path d="M127.53,301.64c-.54.29-1.02.63-1.39,1.13-.37.5.41,1.05.78.56.27-.36.61-.61,1.01-.82.54-.29.14-1.16-.4-.87h0Z" fill="#c67b47"/><path d="M130.54,308.73c-.28.9-.63,1.77-.92,2.67-.19.59.71.93.89.34.28-.9.63-1.77.92-2.67.19-.59-.71-.93-.89-.34h0Z" fill="#c67b47"/><path d="M135.8,305.65c-.11.72-.16,1.45-.22,2.17-.05.61.9.72.95.1.06-.72.11-1.45.22-2.17.09-.61-.86-.71-.95-.1h0Z" fill="#c67b47"/><path d="M135,318.52c.1.61,1.04.45.94-.16-.1-.61-1.04-.45-.94.16h0Z" fill="#c67b47"/><path d="M135.06,318.77c-.1.66-.15,1.32-.26,1.98-.09.61.86.71.95.1.1-.66.15-1.32.26-1.98.09-.61-.86-.71-.95-.1h0Z" fill="#c67b47"/><path d="M165.49,313.95c-.06.66-.15,1.32-.26,1.98-.1.61.86.71.95.1.1-.66.2-1.32.26-1.98.05-.61-.9-.72-.95-.1h0Z" fill="#c67b47"/><path d="M167.65,319.99c-.01,1.12-.18,2.22-.23,3.33-.03.61.92.72.95.1.05-1.11.21-2.22.23-3.33,0-.61-.94-.72-.95-.1h0Z" fill="#c67b47"/><path d="M167.19,328.19c-.39.56-.66,1.19-.94,1.81-.26.56.64.9.89.34.25-.54.48-1.1.83-1.59.35-.51-.42-1.06-.78-.56h0Z" fill="#c67b47"/><path d="M163.94,324.38c-.54.5-1.14.92-1.82,1.22-.56.25-.16,1.12.4.87.75-.34,1.42-.8,2.03-1.35.45-.42-.15-1.15-.61-.74h0Z" fill="#c67b47"/><path d="M162.6,319.5c-.61.12-1.17.48-1.54.98-.37.49.41,1.05.78.56.22-.29.55-.52.92-.59.61-.12.45-1.06-.16-.94h0Z" fill="#c67b47"/><path d="M156.78,323.38c-.85-.05-1.72.2-2.27.89-.38.49.4,1.04.78.56.32-.41.9-.52,1.39-.49.61.03.72-.92.1-.95h0Z" fill="#c67b47"/><path d="M151.68,328.71c-.29.95-.49,1.92-.54,2.92-.03.61.92.72.95.1.04-.91.21-1.8.48-2.68.18-.59-.72-.93-.89-.34h0Z" fill="#c67b47"/><path d="M155.82,335.01c-.23.8-.34,1.62-.57,2.42-.17.59.72.93.89.34.23-.8.34-1.62.57-2.42.17-.59-.72-.93-.89-.34h0Z" fill="#c67b47"/><path d="M159.96,327.59c.11.73.05,1.46,0,2.2-.05.62.9.72.95.1.07-.82.12-1.64,0-2.46-.09-.61-1.03-.45-.94.16h0Z" fill="#c67b47"/><path d="M162.72,333.6c0,1.18-.02,2.35-.19,3.52-.09.61.86.71.95.1.17-1.17.19-2.34.19-3.52,0-.61-.95-.72-.95-.1h0Z" fill="#c67b47"/><path d="M159.57,336.84c-.07.85-.1,1.7-.16,2.55-.05.61.9.72.95.1.07-.85.1-1.7.16-2.55.05-.62-.9-.72-.95-.1h0Z" fill="#c67b47"/><path d="M159,344.98c-.96.6-1.47,1.6-1.88,2.62-.23.57.66.91.89.34.35-.88.77-1.7,1.59-2.22.52-.33-.1-1.06-.61-.74h0Z" fill="#c67b47"/><path d="M159.22,351.49c-.81.38-1.36,1.07-1.73,1.87-.26.56.64.9.89.34.27-.57.65-1.07,1.24-1.34.56-.26.16-1.13-.4-.87h0Z" fill="#c67b47"/><path d="M165.82,340.35c-.4.8-.68,1.63-.95,2.48-.18.59.71.93.89.34.26-.85.54-1.69.95-2.48.28-.55-.62-.89-.89-.34h0Z" fill="#c67b47"/><path d="M168.16,332.51c-.04.95-.24,1.86-.67,2.71-.28.55.62.89.89.34.46-.92.68-1.93.73-2.95.03-.61-.92-.72-.95-.1h0Z" fill="#c67b47"/><path d="M69.87,147.95c.36.12.67.46,1.07.6.25.08.52-.03.62-.28.09-.24-.03-.53-.28-.62-.36-.12-.67-.46-1.07-.6-.25-.08-.52.03-.62.28-.09.24.03.53.28.62h0Z" fill="#f4a658"/><path d="M66.71,148.96c.26.62.38,1.26.49,1.92.1.61,1.04.45.94-.16-.12-.75-.28-1.47-.57-2.17-.24-.57-1.11-.17-.87.4h0Z" fill="#f4a658"/><path d="M65.91,155.94c.08.5.17,1.01.25,1.51.1.61,1.04.45.94-.16-.08-.5-.17-1.01-.25-1.51-.1-.61-1.04-.45-.94.16h0Z" fill="#f4a658"/><path d="M70.18,158.34c.13.6.65,1,1.21,1.19.25.08.52-.02.62-.28.09-.23-.03-.54-.28-.62-.16-.05-.3-.12-.43-.22-.05-.04-.08-.07-.12-.12-.05-.06-.04-.05-.06-.11-.05-.25-.28-.44-.55-.39-.25.04-.45.29-.39.55h0Z" fill="#f4a658"/><path d="M72.55,155.04c.07.39.18.78.51,1.04.2.16.52.09.67-.11.16-.22.09-.51-.11-.67.1.08-.06-.1,0,0-.04-.06-.06-.13-.08-.19.04.11,0-.05-.01-.07-.01-.05-.02-.11-.03-.16-.04-.26-.29-.44-.55-.39-.26.04-.44.29-.39.55h0Z" fill="#f4a658"/><path d="M73.38,150.98c.22.16.44.32.66.47.21.15.52.1.67-.11.15-.21.1-.52-.11-.67-.22-.16-.44-.32-.66-.47-.21-.15-.52-.1-.67.11-.15.21-.1.52.11.67h0Z" fill="#f4a658"/><path d="M77.52,154.61c.08.48.2.92.48,1.33.15.22.49.22.67.06.21-.18.21-.46.06-.67-.18-.26-.22-.57-.27-.87-.1-.61-1.04-.45-.94.16h0Z" fill="#f4a658"/><path d="M77.29,160.27c.08.5.17,1.01.25,1.51.1.61,1.04.45.94-.16-.08-.5-.17-1.01-.25-1.51-.1-.61-1.04-.45-.94.16h0Z" fill="#f4a658"/><path d="M72.17,162.92c.5.55.94,1.15,1.44,1.7.42.45,1.16-.15.74-.61-.5-.55-.94-1.15-1.44-1.7-.42-.45-1.16.15-.74.61h0Z" fill="#f4a658"/><path d="M70.97,166.98c-.4.57-.66,1.21-.78,1.89-.11.61.84.7.95.1.09-.52.31-1.01.61-1.44.35-.51-.43-1.06-.78-.56h0Z" fill="#f4a658"/><path d="M76.91,164.93c.29.54.63,1.02,1.13,1.39.5.37,1.05-.41.56-.78-.36-.27-.61-.61-.82-1.01-.29-.54-1.16-.14-.87.4h0Z" fill="#f4a658"/><path d="M77.52,169.93c.1.61,1.04.45.94-.16-.1-.61-1.04-.45-.94.16h0Z" fill="#f4a658"/><path d="M77.52,169.93c.01.07.02.13.03.2,0,.03.02.25.02.11,0,.03-.03.18,0,.05,0,.02-.01.04-.02.06-.04.11.06-.08-.01.02-.15.22-.11.51.11.67.21.15.52.11.67-.11.24-.36.21-.74.15-1.14-.04-.26-.29-.44-.55-.39-.26.04-.44.29-.39.55h0Z" fill="#f4a658"/><path d="M81.11,172.83c.09.54.16,1.06.09,1.6-.08.61.87.71.95.1.09-.62,0-1.24-.1-1.86-.1-.61-1.04-.45-.94.16h0Z" fill="#f4a658"/><path d="M82.86,162.2c.34.62.81,1.13,1.29,1.65.42.45,1.16-.16.74-.61-.42-.45-.86-.9-1.16-1.44-.3-.54-1.17-.14-.87.4h0Z" fill="#f4a658"/><path d="M94.96,182.77c.08.55-.02,1.09-.1,1.63-.1.61.86.71.95.1.1-.63.18-1.25.09-1.89-.09-.61-1.03-.45-.94.16h0Z" fill="#f4a658"/><path d="M90.96,189.99c-.43.33-.75.79-1.06,1.22-.36.5.42,1.06.78.56.27-.37.53-.76.89-1.04.49-.37-.12-1.11-.61-.74h0Z" fill="#f4a658"/><path d="M94.86,190.12c-.37.27-.64.63-.9,1-.36.5.42,1.06.78.56.25-.35.41-.58.74-.82.21-.15.22-.48.06-.67-.17-.21-.46-.22-.67-.06h0Z" fill="#f4a658"/><path d="M96.65,188.31c.12.75.28,1.47.57,2.17.24.57,1.11.17.87-.4-.26-.62-.38-1.26-.49-1.92-.1-.61-1.04-.45-.94.16h0Z" fill="#f4a658"/><path d="M94.31,196.32c-.1.63-.18,1.25-.09,1.89.09.61,1.03.45.94-.16-.08-.55.01-1.09.1-1.63.1-.61-.86-.71-.95-.1h0Z" fill="#f4a658"/><path d="M97.42,197.68c.1.61,1.04.45.94-.16-.1-.61-1.04-.45-.94.16h0Z" fill="#f4a658"/><path d="M97.48,197.62c-.28.63-.57,1.26-.85,1.89-.25.56.64.9.89.34.28-.63.57-1.26.85-1.89.25-.56-.64-.9-.89-.34h0Z" fill="#f4a658"/><path d="M92,197.12c-.66.11-1.31.2-1.98.15-.62-.04-.72.91-.1.95.76.05,1.49-.03,2.24-.16.61-.1.45-1.04-.16-.94h0Z" fill="#f4a658"/><path d="M88.28,196.06c-.37.27-.73.62-1.19.71-.6.12-.45,1.07.16.94.65-.13,1.13-.54,1.64-.92.5-.37-.12-1.1-.61-.74h0Z" fill="#f4a658"/><path d="M82.77,194.67c.1.61,1.04.45.94-.16-.1-.61-1.04-.45-.94.16h0Z" fill="#f4a658"/><path d="M82.9,195.09c.23.33.33.73.56,1.07.15.22.49.22.67.06.21-.18.21-.46.06-.67-.23-.33-.33-.73-.56-1.07-.15-.22-.49-.22-.67-.06-.21.18-.21.46-.06.67h0Z" fill="#f4a658"/><path d="M90.68,201.51c.09.54.16,1.06.09,1.6-.08.61.87.71.95.1.09-.62,0-1.24-.1-1.86-.1-.61-1.04-.45-.94.16h0Z" fill="#f4a658"/><path d="M93.39,204.72c-.56.53-1.1,1.06-1.43,1.77-.27.56.63.89.89.34.26-.55.71-.97,1.15-1.37.45-.42-.16-1.16-.61-.74h0Z" fill="#f4a658"/><path d="M107.78,207.48c-.07.82-.12,1.64,0,2.46.09.61,1.03.45.94-.16-.11-.73-.05-1.46,0-2.2.05-.62-.9-.72-.95-.1h0Z" fill="#f4a658"/><path d="M110.08,213.18c.31.59.57,1.2.88,1.79.28.55,1.15.15.87-.4-.31-.59-.57-1.2-.88-1.79-.28-.55-1.15-.15-.87.4h0Z" fill="#f4a658"/><path d="M111.65,212.21c.07.44.15.88.22,1.32.1.61,1.04.45.94-.16-.07-.44-.15-.88-.22-1.32-.1-.61-1.04-.45-.94.16h0Z" fill="#f4a658"/><path d="M115.06,217.22c-.17.56-.25,1.15-.35,1.72-.1.61.85.71.95.1.08-.5.15-1,.29-1.48.17-.59-.72-.93-.89-.34h0Z" fill="#f4a658"/><path d="M110.62,219.21c-.41.56-.89,1.04-1.4,1.51-.45.42.16,1.16.61.74.56-.53,1.11-1.07,1.56-1.69.36-.5-.41-1.06-.78-.56h0Z" fill="#f4a658"/><path d="M108.14,215.81c-.47.24-.98.39-1.45.63-.55.28-.15,1.15.4.87.47-.24.98-.39,1.45-.63.55-.28.15-1.15-.4-.87h0Z" fill="#f4a658"/><path d="M101.51,215.43c.1.61,1.04.45.94-.16-.1-.61-1.04-.45-.94.16h0Z" fill="#f4a658"/><path d="M101.79,214.92c-.6.31-1.18.65-1.68,1.1-.46.41.15,1.15.61.74.44-.4.94-.69,1.47-.97.54-.29.15-1.16-.4-.87h0Z" fill="#f4a658"/><path d="M104.63,220.09c.27.65.38,1.31.33,2.01-.04.62.91.72.95.1.06-.88-.08-1.71-.42-2.52-.23-.57-1.1-.17-.87.4h0Z" fill="#f4a658"/><path d="M104.58,226.89c.38.9.7,1.82,1.26,2.62.35.51,1.09-.11.74-.61-.51-.73-.78-1.6-1.12-2.41-.24-.57-1.11-.17-.87.4h0Z" fill="#f4a658"/><path d="M110.27,227.37c.1.61,1.04.45.94-.16-.1-.61-1.04-.45-.94.16h0Z" fill="#f4a658"/><path d="M110.44,226.92c-.88.77-1.42,1.74-1.84,2.81-.23.57.66.91.89.34.37-.92.81-1.75,1.56-2.41.46-.4-.14-1.14-.61-.74h0Z" fill="#f4a658"/><path d="M106.33,232.87c.1.61,1.04.45.94-.16-.1-.61-1.04-.45-.94.16h0Z" fill="#f4a658"/><path d="M100.95,225.51c-.62.1-1.23.22-1.79.51-.55.28-.15,1.15.4.87.49-.25,1.01-.34,1.55-.43.61-.1.45-1.04-.16-.94h0Z" fill="#f4a658"/><path d="M92.79,219c.1.61,1.04.45.94-.16-.1-.61-1.04-.45-.94.16h0Z" fill="#f4a658"/><path d="M92.88,218.65c-.18.23-.51.44-.77.63-.21.15-.22.48-.06.67.17.21.46.22.67.06.33-.24.68-.48.93-.81.37-.49-.4-1.05-.78-.56h0Z" fill="#f4a658"/><path d="M126.77,237.9c-.14,1.03-.02,2.14.32,3.11.2.58,1.07.18.87-.4-.28-.81-.35-1.76-.24-2.61.08-.61-.87-.71-.95-.1h0Z" fill="#f4a658"/><path d="M124.87,241.4c-.35.86-.15,1.84.2,2.67.24.57,1.1.17.87-.4-.25-.59-.42-1.31-.17-1.93.23-.57-.67-.91-.89-.34h0Z" fill="#f4a658"/><path d="M126.71,246.23c-.53.73-1.05,1.47-1.58,2.2-.36.5.42,1.06.78.56.53-.73,1.05-1.47,1.58-2.2.36-.5-.42-1.06-.78-.56h0Z" fill="#f4a658"/><path d="M122.41,249.22c.1.61,1.04.45.94-.16-.1-.61-1.04-.45-.94.16h0Z" fill="#f4a658"/><path d="M122.8,248.68c-.94.16-1.89.31-2.83.47-.61.1-.45,1.04.16.94.94-.16,1.89-.31,2.83-.47.61-.1.45-1.04-.16-.94h0Z" fill="#f4a658"/><path d="M119.45,244.52c-.37.51-.74,1.03-1.1,1.54-.36.5.42,1.06.78.56.37-.51.74-1.03,1.1-1.54.36-.5-.42-1.06-.78-.56h0Z" fill="#f4a658"/><path d="M121.48,235.65c-.56.77-1.18,1.47-1.63,2.31-.12.23.06.53.28.62.27.1.49-.05.62-.28.41-.76,1.01-1.4,1.52-2.09.36-.5-.41-1.06-.78-.56h0Z" fill="#f4a658"/><path d="M116.72,240.53c-.05.99.35,1.83,1.05,2.53.43.43,1.17-.17.74-.61-.51-.51-.87-1.08-.83-1.82.03-.61-.92-.72-.95-.1h0Z" fill="#f4a658"/><path d="M126.17,250.49c-.24.51-.55.95-.96,1.34-.45.42.16,1.16.61.74.53-.51.94-1.07,1.25-1.74.26-.56-.64-.9-.89-.34h0Z" fill="#f4a658"/><path d="M117.32,252.05c.24.34.34.78.53,1.15.28.55,1.15.15.87-.4-.23-.45-.37-.94-.66-1.36-.15-.21-.49-.22-.67-.06-.21.18-.21.46-.06.67h0Z" fill="#f4a658"/><path d="M120.32,256.42c-.12.68-.33,1.33-.44,2.01-.1.61.85.71.95.1.12-.68.33-1.33.44-2.01.1-.61-.85-.71-.95-.1h0Z" fill="#f4a658"/><path d="M116.27,245.89c-.8-.12-1.66-.12-2.46,0-.61.09-.45,1.03.16.94.72-.11,1.48-.1,2.2,0,.61.09.71-.86.1-.95h0Z" fill="#f4a658"/><path d="M111.15,244.49c.15.88.29,1.76.44,2.64.1.61,1.04.45.94-.16-.15-.88-.29-1.76-.44-2.64-.1-.61-1.04-.45-.94.16h0Z" fill="#f4a658"/><path d="M113.28,251.51c.11.69.23,1.38.34,2.08.1.61,1.04.45.94-.16-.11-.69-.23-1.38-.34-2.08-.1-.61-1.04-.45-.94.16h0Z" fill="#f4a658"/><path d="M118.15,257.49c.03.19.06.38.09.57.04.26.29.44.55.39.26-.04.44-.29.39-.55-.03-.19-.06-.38-.09-.57-.04-.26-.29-.44-.55-.39-.26.04-.44.29-.39.55h0Z" fill="#f4a658"/><path d="M118,261.51c-.62.34-1.13.81-1.65,1.29-.45.42.16,1.16.61.74.45-.42.9-.86,1.44-1.16.54-.3.14-1.17-.4-.87h0Z" fill="#f4a658"/><path d="M110.81,251.23c-.67.11-1.36.23-1.98.54-.55.27-.15,1.14.4.87.54-.27,1.14-.36,1.73-.46.61-.1.45-1.04-.16-.94h0Z" fill="#f4a658"/><path d="M137.88,263.27c-.82.37-1.54.91-2.08,1.63-.37.5.41,1.05.78.56.44-.59,1.03-1.02,1.7-1.32.56-.25.16-1.12-.4-.87h0Z" fill="#f4a658"/><path d="M141.58,265.23c-.67.68-.88,1.66-.96,2.58-.06.61.9.71.95.1.06-.63.15-1.47.62-1.95.43-.43-.18-1.18-.61-.74h0Z" fill="#f4a658"/><path d="M139.61,271.08c-.09.52-.33,1.01-.71,1.38-.44.43.17,1.17.61.74.57-.55.92-1.23,1.05-2.02.11-.61-.85-.7-.95-.1h0Z" fill="#f4a658"/><path d="M137.44,274.26c-.35.23-.85.27-1.25.33-.61.1-.45,1.04.16.94.6-.1,1.19-.2,1.71-.54.22-.14.22-.49.06-.67-.18-.22-.46-.21-.67-.06h0Z" fill="#f4a658"/><path d="M134.56,270.59c-.63.1-1.26.21-1.89.31-.61.1-.45,1.04.16.94.63-.1,1.26-.21,1.89-.31.61-.1.45-1.04-.16-.94h0Z" fill="#f4a658"/><path d="M135.67,267.57c-.82-.24-1.66-.34-2.51-.41-.62-.05-.72.9-.1.95.77.06,1.53.13,2.27.35.59.17.93-.72.34-.89h0Z" fill="#f4a658"/><path d="M135.41,277.09c-.27.62-.4,1.28-.5,1.94-.1.61.85.71.95.1.09-.59.21-1.15.45-1.7.25-.57-.65-.91-.89-.34h0Z" fill="#f4a658"/><path d="M137.99,277.75c-.07.82-.12,1.64,0,2.46.09.61,1.03.45.94-.16-.11-.73-.05-1.46,0-2.2.05-.62-.9-.72-.95-.1h0Z" fill="#f4a658"/><path d="M143.34,275.3c-.35.47-.79.88-1.13,1.35-.37.5.41,1.05.78.56.35-.47.79-.88,1.13-1.35.37-.5-.41-1.05-.78-.56h0Z" fill="#f4a658"/><path d="M144.57,271.51c-.15.53-.17,1.08-.32,1.6-.17.59.72.93.89.34.15-.53.17-1.08.32-1.6.17-.59-.72-.93-.89-.34h0Z" fill="#f4a658"/><path d="M130.77,274.03c.1.61,1.04.45.94-.16-.1-.61-1.04-.45-.94.16h0Z" fill="#f4a658"/><path d="M130.77,274.03c.07.46.06,1.03-.2,1.44-.34.51.44,1.07.78.56.41-.62.48-1.42.37-2.15-.09-.61-1.03-.45-.94.16h0Z" fill="#f4a658"/><path d="M126.03,271.8c-.67.11-1.36.23-1.98.54-.55.27-.15,1.14.4.87.54-.27,1.14-.36,1.73-.46.61-.1.45-1.04-.16-.94h0Z" fill="#f4a658"/><path d="M130.67,280.22c-.41.31-.59.79-.74,1.27-.08.25.02.52.28.62.23.09.54-.03.62-.28.11-.35.19-.67.46-.87.21-.16.22-.48.06-.67-.17-.21-.47-.22-.67-.06h0Z" fill="#f4a658"/><path d="M133.7,287.12c.1.61,1.04.45.94-.16-.1-.61-1.04-.45-.94.16h0Z" fill="#f4a658"/><path d="M133.59,286.8c-.29.38-.73.61-1.11.88-.5.36.11,1.09.61.74.46-.33.93-.6,1.28-1.06.37-.49-.41-1.05-.78-.56h0Z" fill="#f4a658"/><path d="M151.84,288.54c-.34.83-.17,1.73-.03,2.58.1.61,1.04.45.94-.16-.11-.68-.29-1.42-.02-2.08.23-.57-.66-.91-.89-.34h0Z" fill="#f4a658"/><path d="M153.79,292.54c.1.59.2,1.19.12,1.79-.08.61.87.71.95.1.09-.68-.02-1.37-.13-2.05-.1-.61-1.04-.45-.94.16h0Z" fill="#f4a658"/><path d="M153.56,295.6c-.8-.11-1.59.08-2.33.38-.57.24-.17,1.1.4.87.58-.24,1.19-.38,1.83-.3.61.08.71-.87.1-.95h0Z" fill="#f4a658"/><path d="M150.64,294.61c.1.61,1.04.45.94-.16-.1-.61-1.04-.45-.94.16h0Z" fill="#f4a658"/><path d="M150.92,294.09c-.48.26-.94.56-1.42.82-.54.29-.14,1.16.4.87.48-.26.94-.56,1.42-.82.54-.29.14-1.16-.4-.87h0Z" fill="#f4a658"/><path d="M147.49,292.75c-.24.51-.55.95-.96,1.34-.45.42.16,1.16.61.74.53-.51.94-1.07,1.25-1.74.26-.56-.64-.9-.89-.34h0Z" fill="#f4a658"/><path d="M148.09,297.94c.12.72.23,1.44.18,2.17-.04.61.91.72.95.1.05-.82-.06-1.62-.19-2.42-.1-.61-1.04-.45-.94.16h0Z" fill="#f4a658"/><path d="M148.01,302.94c-.13.48-.11.93-.03,1.41.1.61,1.04.45.94-.16-.05-.3-.11-.61-.02-.92.07-.25-.02-.52-.28-.62-.23-.09-.55.02-.62.28h0Z" fill="#f4a658"/><path d="M153.28,301.15c.1.61,1.04.45.94-.16-.1-.61-1.04-.45-.94.16h0Z" fill="#f4a658"/><path d="M153.8,300.6c-.7-.08-1.34.19-2.02.32-.61.11-.45,1.06.16.94.58-.11,1.16-.38,1.76-.31.61.07.71-.88.1-.95h0Z" fill="#f4a658"/><path d="M157.26,294.45c-.86.75-1.54,1.65-2.2,2.57-.36.5.42,1.06.78.56.61-.85,1.23-1.7,2.03-2.39.46-.4-.14-1.14-.61-.74h0Z" fill="#f4a658"/><path d="M158.46,298.79c-.55.78-.98,1.63-1.41,2.46-.29.55.61.88.89.34.4-.77.8-1.54,1.3-2.25.36-.5-.42-1.06-.78-.56h0Z" fill="#f4a658"/><path d="M154.62,302.16c-.1.64-.16,1.29-.41,1.89-.24.57.65.91.89.34.29-.68.36-1.41.47-2.13.09-.61-.86-.71-.95-.1h0Z" fill="#f4a658"/><path d="M152.84,307.09c-.34.48-.58,1.03-.91,1.51-.35.51.42,1.06.78.56.34-.48.58-1.03.91-1.51.35-.51-.42-1.06-.78-.56h0Z" fill="#f4a658"/><path d="M148.93,307.46c-.23.15-.58.21-.85.14-.25-.07-.52.01-.62.28-.09.22.02.55.28.62.63.17,1.26.07,1.8-.3.22-.15.22-.49.06-.67-.18-.22-.46-.21-.67-.06h0Z" fill="#f4a658"/><path d="M143.78,298.84c.09.6.02,1.22-.07,1.82-.09.61.86.71.95.1.1-.68.16-1.39.06-2.08-.09-.61-1.03-.45-.94.16h0Z" fill="#f4a658"/><path d="M139.14,299.26c-.35.51-.52,1.15-.43,1.77.09.61,1.03.45.94-.16-.05-.37.06-.76.27-1.06.35-.51-.43-1.07-.78-.56h0Z" fill="#f4a658"/><path d="M140.43,306.64c-.11.7-.17,1.38-.06,2.08.09.61,1.03.45.94-.16-.09-.62-.03-1.21.07-1.82.1-.61-.86-.71-.95-.1h0Z" fill="#f4a658"/><path d="M144.91,310.21c-.97-.05-1.67.49-2.07,1.34-.27.56.63.9.89.34.21-.45.56-.76,1.08-.73.61.03.72-.92.1-.95h0Z" fill="#f4a658"/><path d="M148.51,313.16c-.78.82-1.53,1.66-2.2,2.57-.36.5.41,1.06.78.56.62-.85,1.31-1.63,2.03-2.39.42-.44-.18-1.18-.61-.74h0Z" fill="#f4a658"/><path d="M163.45,315.54c-.4.34-.82.69-1.28.94-.54.29-.14,1.17.4.87.54-.29,1.03-.68,1.49-1.07.47-.4-.14-1.14-.61-.74h0Z" fill="#f4a658"/><path d="M164.5,318.57c-.07.82-.12,1.64,0,2.46.09.61,1.03.45.94-.16-.11-.73-.05-1.46,0-2.2.05-.62-.9-.72-.95-.1h0Z" fill="#f4a658"/><path d="M167.09,316.72c.08.5.17,1.01.25,1.51.1.61,1.04.45.94-.16-.08-.5-.17-1.01-.25-1.51-.1-.61-1.04-.45-.94.16h0Z" fill="#f4a658"/><path d="M169.05,324.08c-.65.34-1.32.64-1.87,1.13-.46.41.15,1.15.61.74.49-.44,1.08-.7,1.66-1,.54-.28.15-1.15-.4-.87h0Z" fill="#f4a658"/><path d="M165.32,325.71c-.37.28-.64.66-1.01.94-.49.37.12,1.11.61.74.37-.28.64-.66,1.01-.94.49-.37-.12-1.11-.61-.74h0Z" fill="#f4a658"/><path d="M161.55,321.67c-.32.24-.59.6-1,.68-.6.12-.45,1.06.16.94.62-.12.98-.53,1.46-.89.49-.37-.12-1.11-.61-.74h0Z" fill="#f4a658"/><path d="M157.6,320.66c-.23.3-.59.61-.93.85-.5.37.12,1.1.61.74.39-.29.8-.64,1.09-1.03.37-.49-.41-1.05-.78-.56h0Z" fill="#f4a658"/><path d="M158.04,326.42c-.07.79-.23,1.57-.54,2.3-.25.57.65.91.89.34.34-.8.52-1.68.6-2.54.06-.61-.9-.71-.95-.1h0Z" fill="#f4a658"/><path d="M155.4,326.64c-.61-.4-1.35-.45-2.05-.56-.61-.09-.71.86-.1.95.52.08,1.14.09,1.6.39.51.34,1.07-.44.56-.78h0Z" fill="#f4a658"/><path d="M149.92,325.68c-.59.31-1.2.57-1.79.88-.54.28-.15,1.15.4.87.59-.31,1.2-.57,1.79-.88.55-.28.15-1.15-.4-.87h0Z" fill="#f4a658"/><path d="M154.14,331.07c.09.64.03,1.28.12,1.92.09.61,1.03.45.94-.16-.09-.64-.03-1.28-.12-1.92-.09-.61-1.03-.45-.94.16h0Z" fill="#f4a658"/><path d="M150.55,336.26c.25.49.34,1.01.43,1.55.1.61,1.04.45.94-.16-.1-.62-.22-1.23-.51-1.79-.28-.55-1.15-.15-.87.4h0Z" fill="#f4a658"/><path d="M145.39,334.46c.15.83.52,1.53,1.01,2.21.36.5,1.09-.11.74-.61-.39-.54-.69-1.09-.81-1.76-.11-.61-1.05-.45-.94.16h0Z" fill="#f4a658"/><path d="M151.09,344.38c.1.62.22,1.23.51,1.79.28.55,1.15.15.87-.4-.25-.49-.34-1.01-.43-1.55-.1-.61-1.04-.45-.94.16h0Z" fill="#f4a658"/><path d="M157.21,340.04c-.53.48-1.2.78-1.73,1.26-.46.41.15,1.15.61.74.53-.48,1.2-.78,1.73-1.26.46-.41-.15-1.15-.61-.74h0Z" fill="#f4a658"/><path d="M161.29,341.53c.1.61,1.04.45.94-.16-.1-.61-1.04-.45-.94.16h0Z" fill="#f4a658"/><path d="M161.46,341.09c-.4.28-.83.5-1.23.78-.5.36.11,1.09.61.74.4-.28.83-.5,1.23-.78.5-.36-.11-1.09-.61-.74h0Z" fill="#f4a658"/><path d="M159.8,332.47c.08.48.2.92.48,1.33.15.22.49.22.67.06.21-.18.21-.46.06-.67-.18-.26-.22-.57-.27-.87-.1-.61-1.04-.45-.94.16h0Z" fill="#f4a658"/><path d="M163.06,330.07c.44.08.76.49.97.86.29.54,1.16.14.87-.4-.38-.69-.94-1.26-1.73-1.41-.61-.12-.7.84-.1.95h0Z" fill="#f4a658"/><path d="M165.36,333.3c.1.61,1.04.45.94-.16-.1-.61-1.04-.45-.94.16h0Z" fill="#f4a658"/><path d="M165.36,333.17c-.04.8-.21,1.56-.67,2.22-.35.51.43,1.07.78.56.55-.8.8-1.72.85-2.68.03-.61-.92-.72-.95-.1h0Z" fill="#f4a658"/><path d="M168.08,337.41c-.72.12-1.44.23-2.17.18-.62-.04-.72.91-.1.95.82.05,1.62-.06,2.42-.19.61-.1.45-1.04-.16-.94h0Z" fill="#f4a658"/><path d="M162.92,341.91c-.11.72-.16,1.45-.22,2.17-.05.62.9.72.95.1.06-.72.11-1.45.22-2.17.09-.61-.86-.71-.95-.1h0Z" fill="#f4a658"/><path d="M163.85,345.61c-.48.88-1.15,1.64-1.84,2.36-.42.44.18,1.18.61.74.74-.78,1.49-1.59,2.01-2.54.29-.54-.48-1.1-.78-.56h0Z" fill="#f4a658"/><path d="M160.66,346.84c-.52.39-.82.98-.93,1.61-.05.26.18.5.43.53.27.03.48-.17.53-.43.07-.39.27-.73.59-.97.49-.37-.12-1.11-.61-.74h0Z" fill="#f4a658"/><path d="M155.09,353.9c-.63.12-1.2.4-1.76.7-.54.29-.15,1.16.4.87.48-.26.97-.52,1.51-.62.61-.11.45-1.06-.16-.94h0Z" fill="#f4a658"/><path d="M169.06,327.45c.1.61,1.04.45.94-.16-.1-.61-1.04-.45-.94.16h0Z" fill="#f4a658"/><path d="M169.09,327.64c.1.66.06,1.35-.04,2.01-.09.61.86.71.95.1.11-.74.14-1.53.03-2.27-.09-.61-1.03-.45-.94.16h0Z" fill="#f4a658"/><polygon points="238.25 323.12 272.29 326.94 162.48 210.09 134.2 212.39 238.25 323.12" fill="#70bbf2"/><polygon points="208.11 163.24 162.48 210.09 272.29 326.94 316.31 278.38 208.11 163.24" fill="#5d98a8"/><polygon points="134.2 212.39 162.48 210.09 141.73 194.71 134.2 212.39" fill="#5d98a8"/><polygon points="168.27 144.4 129.85 182.06 141.73 194.71 181.66 157.18 168.27 144.4" fill="#5d98a8"/><path d="M195.47,220.07c-.72-1.31-.63-2.1.45-3.13l.96-.91c1.16-1.11,2.48-.93,3.52.16l7.27,7.63c.97,1.02.84,2.09-.07,2.96-.91.87-1.99.94-2.96-.07l-4.91-5.16-.03.03,3.93,7.19c.5.9.37,1.45-.44,2.22-.81.77-1.36.87-2.24.33l-6.99-4.27-.03.03,4.91,5.16c.97,1.02.84,2.09-.07,2.96-.91.87-1.99.94-2.96-.07l-7.27-7.63c-1.04-1.09-1.15-2.42.01-3.53l.96-.91c1.08-1.02,1.87-1.08,3.14-.3l6.41,3.93.03-.03-3.61-6.59Z" fill="#fff"/><path d="M202.58,214.09c-1.08-1.13-1.09-2.44-.05-3.44,1.05-1,2.35-.92,3.43.21l6.99,7.34c1.08,1.13,1.09,2.44.05,3.44-1.05,1-2.35.92-3.43-.21l-6.99-7.34Z" fill="#fff"/><path d="M221.21,208.22c.87-.83,1.94-.89,2.76-.02.83.87.72,1.93-.15,2.76l-5.01,4.77c-1.31,1.25-2.51,1.23-3.85-.18l-6.62-6.95c-1.08-1.13-1.09-2.44-.04-3.44,1.05-1,2.35-.92,3.43.21l5.94,6.23,3.55-3.38Z" fill="#fff"/><path d="M223.44,192.65c-.02-1.35.03-1.94.59-2.47.91-.87,2.26-.64,2.86,0,.46.49.52.96.52,1.84l.08,3.27,6.41,1.57c.49.13.94.31,1.29.68.84.88.65,2.36-.24,3.2-.53.51-1.16.82-2.12.58l-5.72-1.38.04,1.96,1.39,1.46c1.08,1.13,1.09,2.44.05,3.44-1.05,1-2.35.92-3.43-.21l-6.99-7.34c-1.08-1.13-1.09-2.44-.04-3.44,1.05-1,2.35-.92,3.43.21l1.99,2.09-.11-5.46Z" fill="#fff"/><polygon points="180.15 155.79 141.73 194.71 162.48 210.09 208.11 163.24 180.15 155.79" fill="#70bbf2"/><path d="M243.29,206.3c.91.93.9,2.41-.02,3.33l-35.41,34.96c-.93.91-2.41.9-3.33-.02h0c-.91-.92-.9-2.41.02-3.33l35.41-34.96c.93-.91,2.41-.9,3.33.02h0Z" fill="#fff"/><path d="M194.72,203.65c1.12,2.71,2.16,11.1,6.96,5.77,3.31-3.68-4.1-5.65-6.49-5.59l-.47-.17Z" fill="#fff"/><path d="M280.02,250l.04.05c-1.31.2-4.53-2.46-5.1.02-.52.03-.99.08-1.13.09-1.01.07-2,.23-3,.4-.75.13-1.57.11-2.34.2-.33-.22-.62-.38-.86-.47-3.26-1.17-6.19,1.16-8.26,3.53-1.96,2.24-8.87,8.71-9.43,8.14-.85-.88-1.89-1.78-3.02-2.56.25-.88.32-1.84.11-2.93-.37-1.95-2.19-5.22-4.5-4.98,1.18,1.87,1,4.01.02,5.97-1.63-.28-3.51.56-4.72,1.94-1.07,1.22-2.22,2.46-2.33,3.95-2.21.95-3.62.86-5.52-.18.67,2.69,4.4,5.74,6.89,4.55,3.06,3.81,5.84,8.18,9.14,6.22,2.38-1.41,3.21-2.49,3.21-2.49,1.21.79,10.45,9.8,11.62,10.26,1.1.43,3.7-1.96,4.05-3.47.29-1.27-6-5.95-5.1-6.57,2.48-1.68,9.56-9.35,11.36-9.92.55-.17,4.69,4.64,5.49,5.08,1.23-.59,3.39-2.6,3.96-3.88-1.57-1.82-6.76-7.65-10.29-10.76,1.62-.11,3.46-.54,4.74-.94.3.57.96.88,1.65.75,1.03-.19,1.7-1.07,2.53-1.55.31-.18.67-.31.99-.44-.07-.03-.14-.02-.22-.03Z" fill="#fff"/><path d="M49.65,227.33h396.72c11.23,0,20.34,9.11,20.34,20.34v8.88H29.31v-8.88c0-11.23,9.11-20.34,20.34-20.34Z" fill="#e5181f"/><path d="M37.56,238.81l42.93,176.86c1.68,6.91,7.87,11.78,14.98,11.78h308.41c7.11,0,13.3-4.87,14.98-11.78l42.93-176.86H37.56ZM97.84,409.38c0,2.28-1.85,4.13-4.13,4.13h-.6c-2.28,0-4.13-1.85-4.13-4.13v-56.14c0-2.28,1.85-4.13,4.13-4.13h.6c2.28,0,4.13,1.85,4.13,4.13v56.14ZM97.84,328.06c0,2.28-1.85,4.13-4.13,4.13h-.6c-2.28,0-4.13-1.85-4.13-4.13v-56.14c0-2.28,1.85-4.13,4.13-4.13h.6c2.28,0,4.13,1.85,4.13,4.13v56.14ZM121.36,409.38c0,2.28-1.85,4.13-4.13,4.13h-.6c-2.28,0-4.13-1.85-4.13-4.13v-56.14c0-2.28,1.85-4.13,4.13-4.13h.6c2.28,0,4.13,1.85,4.13,4.13v56.14ZM121.36,328.06c0,2.28-1.85,4.13-4.13,4.13h-.6c-2.28,0-4.13-1.85-4.13-4.13v-56.14c0-2.28,1.85-4.13,4.13-4.13h.6c2.28,0,4.13,1.85,4.13,4.13v56.14ZM144.89,409.38c0,2.28-1.85,4.13-4.13,4.13h-.6c-2.28,0-4.13-1.85-4.13-4.13v-56.14c0-2.28,1.85-4.13,4.13-4.13h.6c2.28,0,4.13,1.85,4.13,4.13v56.14ZM144.89,328.06c0,2.28-1.85,4.13-4.13,4.13h-.6c-2.28,0-4.13-1.85-4.13-4.13v-56.14c0-2.28,1.85-4.13,4.13-4.13h.6c2.28,0,4.13,1.85,4.13,4.13v56.14ZM168.42,409.38c0,2.28-1.85,4.13-4.13,4.13h-.6c-2.28,0-4.13-1.85-4.13-4.13v-56.14c0-2.28,1.85-4.13,4.13-4.13h.6c2.28,0,4.13,1.85,4.13,4.13v56.14ZM168.42,328.06c0,2.28-1.85,4.13-4.13,4.13h-.6c-2.28,0-4.13-1.85-4.13-4.13v-56.14c0-2.28,1.85-4.13,4.13-4.13h.6c2.28,0,4.13,1.85,4.13,4.13v56.14ZM191.94,409.38c0,2.28-1.85,4.13-4.13,4.13h-.6c-2.28,0-4.13-1.85-4.13-4.13v-56.14c0-2.28,1.85-4.13,4.13-4.13h.6c2.28,0,4.13,1.85,4.13,4.13v56.14ZM191.94,328.06c0,2.28-1.85,4.13-4.13,4.13h-.6c-2.28,0-4.13-1.85-4.13-4.13v-56.14c0-2.28,1.85-4.13,4.13-4.13h.6c2.28,0,4.13,1.85,4.13,4.13v56.14ZM217.15,410.16c0,1.85-1.5,3.35-3.35,3.35h-2.16c-1.85,0-3.35-1.5-3.35-3.35v-35.71c0-1.85,1.5-3.35,3.35-3.35h2.16c1.85,0,3.35,1.5,3.35,3.35v35.71ZM217.15,306.86c0,1.85-1.5,3.35-3.35,3.35h-2.16c-1.85,0-3.35-1.5-3.35-3.35v-35.71c0-1.85,1.5-3.35,3.35-3.35h2.16c1.85,0,3.35,1.5,3.35,3.35v35.71ZM240.68,410.16c0,1.85-1.5,3.35-3.35,3.35h-2.16c-1.85,0-3.35-1.5-3.35-3.35v-35.71c0-1.85,1.5-3.35,3.35-3.35h2.16c1.85,0,3.35,1.5,3.35,3.35v35.71ZM240.68,306.86c0,1.85-1.5,3.35-3.35,3.35h-2.16c-1.85,0-3.35-1.5-3.35-3.35v-35.71c0-1.85,1.5-3.35,3.35-3.35h2.16c1.85,0,3.35,1.5,3.35,3.35v35.71ZM264.2,410.16c0,1.85-1.5,3.35-3.35,3.35h-2.16c-1.85,0-3.35-1.5-3.35-3.35v-35.71c0-1.85,1.5-3.35,3.35-3.35h2.16c1.85,0,3.35,1.5,3.35,3.35v35.71ZM264.2,306.86c0,1.85-1.5,3.35-3.35,3.35h-2.16c-1.85,0-3.35-1.5-3.35-3.35v-35.71c0-1.85,1.5-3.35,3.35-3.35h2.16c1.85,0,3.35,1.5,3.35,3.35v35.71ZM287.73,410.16c0,1.85-1.5,3.35-3.35,3.35h-2.16c-1.85,0-3.35-1.5-3.35-3.35v-35.71c0-1.85,1.5-3.35,3.35-3.35h2.16c1.85,0,3.35,1.5,3.35,3.35v35.71ZM287.73,306.86c0,1.85-1.5,3.35-3.35,3.35h-2.16c-1.85,0-3.35-1.5-3.35-3.35v-35.71c0-1.85,1.5-3.35,3.35-3.35h2.16c1.85,0,3.35,1.5,3.35,3.35v35.71ZM307.45,409.38c0,2.28-1.85,4.13-4.13,4.13h-.6c-2.28,0-4.13-1.85-4.13-4.13v-56.14c0-2.28,1.85-4.13,4.13-4.13h.6c2.28,0,4.13,1.85,4.13,4.13v56.14ZM307.45,328.06c0,2.28-1.85,4.13-4.13,4.13h-.6c-2.28,0-4.13-1.85-4.13-4.13v-56.14c0-2.28,1.85-4.13,4.13-4.13h.6c2.28,0,4.13,1.85,4.13,4.13v56.14ZM330.97,409.38c0,2.28-1.85,4.13-4.13,4.13h-.6c-2.28,0-4.13-1.85-4.13-4.13v-56.14c0-2.28,1.85-4.13,4.13-4.13h.6c2.28,0,4.13,1.85,4.13,4.13v56.14ZM330.97,328.06c0,2.28-1.85,4.13-4.13,4.13h-.6c-2.28,0-4.13-1.85-4.13-4.13v-56.14c0-2.28,1.85-4.13,4.13-4.13h.6c2.28,0,4.13,1.85,4.13,4.13v56.14ZM354.5,409.38c0,2.28-1.85,4.13-4.13,4.13h-.6c-2.28,0-4.13-1.85-4.13-4.13v-56.14c0-2.28,1.85-4.13,4.13-4.13h.6c2.28,0,4.13,1.85,4.13,4.13v56.14ZM354.5,328.06c0,2.28-1.85,4.13-4.13,4.13h-.6c-2.28,0-4.13-1.85-4.13-4.13v-56.14c0-2.28,1.85-4.13,4.13-4.13h.6c2.28,0,4.13,1.85,4.13,4.13v56.14ZM378.02,409.38c0,2.28-1.85,4.13-4.13,4.13h-.6c-2.28,0-4.13-1.85-4.13-4.13v-56.14c0-2.28,1.85-4.13,4.13-4.13h.6c2.28,0,4.13,1.85,4.13,4.13v56.14ZM378.02,328.06c0,2.28-1.85,4.13-4.13,4.13h-.6c-2.28,0-4.13-1.85-4.13-4.13v-56.14c0-2.28,1.85-4.13,4.13-4.13h.6c2.28,0,4.13,1.85,4.13,4.13v56.14ZM401.55,409.38c0,2.28-1.85,4.13-4.13,4.13h-.6c-2.28,0-4.13-1.85-4.13-4.13v-56.14c0-2.28,1.85-4.13,4.13-4.13h.6c2.28,0,4.13,1.85,4.13,4.13v56.14ZM401.55,328.06c0,2.28-1.85,4.13-4.13,4.13h-.6c-2.28,0-4.13-1.85-4.13-4.13v-56.14c0-2.28,1.85-4.13,4.13-4.13h.6c2.28,0,4.13,1.85,4.13,4.13v56.14Z" fill="#e5181f"/><polygon points="41.87 256.55 457.49 256.55 454.76 267.79 43.24 262.17 41.87 256.55" fill="#aa131f"/><path d="M35.62,237.42c.45,2.24,2.51,3.88,4.7,4.53,2.19.65,4.53.48,6.82.32,33.32-2.33,66.79-2.58,100.14-.75,1.97.11,4.01.21,5.85-.51,1.84-.72,3.42-2.51,3.22-4.47-.17-1.72-1.64-3.08-3.26-3.65-1.63-.57-3.4-.51-5.12-.44-3.98.16-7.97.31-11.95.47-12.84.5-25.69,1.01-38.53.45-11.55-.5-23.04-1.86-34.6-2.17-4.64-.12-28.95-2.1-27.26,6.23Z" fill="#fff" opacity=".37"/><path d="M166.81,239.5c1.05,1.31,2.63,1.84,4.15,2.24,6.77,1.8,13.96,2.32,20.53-.06,1.24-.45,2.48-1.02,3.39-2.06s1.42-2.65.96-4.04c-.16-.46-.41-.88-.74-1.21-.82-.82-1.97-1-3.05-1.12-7.21-.84-14.49-.91-21.7-.21-2.76.27-6.32,2.98-3.55,6.47Z" fill="#fff" opacity=".37"/><path d="M209.05,361.17v-28.07c0-6.06,4.91-10.97,10.97-10.97h61.25c1.78,0,3.46.43,4.95,1.18-1.81-3.58-5.51-6.03-9.8-6.03h-61.25c-6.06,0-10.97,4.91-10.97,10.97v28.07c0,4.28,2.45,7.99,6.03,9.8-.75-1.49-1.18-3.17-1.18-4.95Z" fill="#aa131f"/><path d="M259.31,250.75c2.41,0,184.15,130,184.15,130,0,0,7.23,3.48,10.28,0,3.05-3.48,0-10.22,0-10.22l-174.34-140.19s-10.34-4.11-16.93,1.66c-8.87,7.76-3.16,18.75-3.16,18.75Z" fill="#232428"/><path d="M277.39,241.85c0,3.35-2.71,6.06-6.06,6.06s-6.06-2.71-6.06-6.06,2.71-6.06,6.06-6.06,6.06,2.71,6.06,6.06Z" fill="#e5181f"/><path d="M273.22,235.94c.85,1.04,1.37,2.38,1.37,3.83,0,3.35-2.71,6.06-6.06,6.06-.66,0-1.3-.11-1.89-.3,1.11,1.36,2.8,2.23,4.7,2.23,3.35,0,6.06-2.71,6.06-6.06,0-2.69-1.75-4.96-4.17-5.76Z" fill="#aa131f"/><path d="M240.14,250.75c-2.41,0-184.15,130-184.15,130,0,0-7.23,3.48-10.28,0s0-10.22,0-10.22l174.34-140.19s10.34-4.11,16.93,1.66c8.87,7.76,3.16,18.75,3.16,18.75Z" fill="#232428"/><path d="M222.05,241.85c0,3.35,2.71,6.06,6.06,6.06s6.06-2.71,6.06-6.06-2.71-6.06-6.06-6.06-6.06,2.71-6.06,6.06Z" fill="#e5181f"/><path d="M226.22,235.94c-.85,1.04-1.37,2.38-1.37,3.83,0,3.35,2.71,6.06,6.06,6.06.66,0,1.3-.11,1.89-.3-1.11,1.36-2.8,2.23-4.7,2.23-3.35,0-6.06-2.71-6.06-6.06,0-2.69,1.75-4.96,4.17-5.76Z" fill="#aa131f"/><circle cx="95.64" cy="378.79" r="71.64" fill="#00a651" stroke="#fff" stroke-miterlimit="10" stroke-width="5"/><path d="M110.57,352.33c0-7.6-5.35-13.51-15.48-13.51-7.18,0-13.23,3.1-18.3,8.02l-6.9-6.33c6.33-6.62,15.06-11.4,25.9-11.4,15.62,0,26.18,8.59,26.18,21.96,0,19.14-25.48,23.09-23.09,41.24h-10.28c-3.38-19.99,21.96-25.62,21.96-39.98ZM84.38,415.81c0-6.76,4.79-10.84,10.42-10.84s10.42,4.08,10.42,10.84-4.79,10.98-10.42,10.98-10.42-4.22-10.42-10.98Z" fill="#fff" stroke="#fff" stroke-miterlimit="10" stroke-width="2.65"/></svg>