<?xml version="1.0" encoding="UTF-8"?><svg id="Layer_1" xmlns="http://www.w3.org/2000/svg" viewBox="0 0 55.49 48.33"><defs><style>.cls-1{fill:currentColor;}</style></defs><path class="cls-1" d="M43.83,10.41c-3.49-3.61-8-5.9-12.9-6.6l1.4-1.4c.55-.55.55-1.45,0-2-.55-.55-1.45-.55-2,0l-3.59,3.59c-.55.55-.55,1.45,0,2l3.59,3.59c.28.28.64.41,1,.41s.72-.14,1-.41c.55-.55.55-1.45,0-2l-.8-.8c3.89.76,7.46,2.69,10.27,5.59,3.54,3.66,5.49,8.48,5.49,13.58,0,10.77-8.77,19.54-19.54,19.54s-19.54-8.77-19.54-19.54c0-4.11,1.26-8.04,3.65-11.37,2.34-3.26,5.56-5.69,9.32-7.03.74-.26,1.12-1.07.86-1.81-.26-.74-1.07-1.12-1.81-.86-4.3,1.54-7.99,4.32-10.67,8.05-2.73,3.81-4.18,8.32-4.18,13.02,0,5.98,2.33,11.59,6.55,15.82,4.23,4.23,9.84,6.55,15.82,6.55s11.59-2.33,15.82-6.55,6.55-9.84,6.55-15.82-2.23-11.36-6.29-15.55Z"/><path class="cls-1" d="M13.2,25.96c0,8.02,6.53,14.55,14.55,14.55s14.55-6.53,14.55-14.55-6.53-14.55-14.55-14.55-14.55,6.53-14.55,14.55ZM28.61,27.22c-2.04-.72-3.22-1.29-4.08-1.96-1.05-.83-1.54-2.26-1.26-3.73.3-1.6,1.41-2.87,2.91-3.32.02,0,.04-.01.06-.02v-.57c0-.78.63-1.42,1.42-1.42s1.42.63,1.42,1.42v.48c.99.23,1.68.68,1.96.89.63.47.75,1.36.29,1.98-.47.63-1.36.75-1.98.29-.3-.22-1.13-.71-2.34-.34-.72.22-.9.92-.94,1.13-.08.42.01.81.22.97.74.58,2.07,1.09,3.27,1.52,2.2.78,3.42,2.81,3.04,5.07-.19,1.11-.74,2.13-1.57,2.89-.57.52-1.23.89-1.95,1.1v.68c0,.78-.63,1.42-1.42,1.42s-1.42-.63-1.42-1.42v-.54c-.94-.11-1.73-.4-2.79-1.09-.65-.43-.84-1.31-.41-1.96.43-.65,1.31-.84,1.96-.41.98.64,1.35.7,2.64.69,1.27,0,2.01-.96,2.16-1.83.07-.43.1-1.47-1.19-1.93Z"/></svg>