<?xml version="1.0" encoding="UTF-8"?><svg id="Layer_1" xmlns="http://www.w3.org/2000/svg" viewBox="0 0 25 32"><defs><style>.cls-1{fill:none;}</style></defs><path d="M14.66,0c1.27,0,2.46.49,3.36,1.39l5.59,5.59c.9.9,1.39,2.09,1.39,3.36v15.97c0,2.62-2.13,4.76-4.75,4.76H4.75c-2.62,0-4.75-2.13-4.75-4.76V4.75C0,2.13,2.13,0,4.75,0h9.9ZM4.75,2.02c-1.51,0-2.73,1.23-2.73,2.73v21.56c0,1.51,1.23,2.73,2.73,2.73h15.49c1.51,0,2.73-1.23,2.73-2.73v-15.97c0-.18-.02-.36-.05-.54h-2.97c-1.8,0-3.37-1.01-4.18-2.49l-3.42,3.42c-.19.19-.45.3-.71.3-.02,0-.03,0-.05,0-.29-.01-.55-.15-.73-.37l-1.46-1.8-1.18,1.18c-.39.39-1.03.39-1.43,0-.39-.39-.39-1.03,0-1.43l1.97-1.97c.2-.2.48-.31.77-.29.29.01.55.15.73.37l1.46,1.8,3.48-3.48v-2.95c-.18-.04-.36-.05-.54-.05H4.75ZM17.22,5.05c0,1.51,1.23,2.73,2.73,2.73h1.6l-4.33-4.33v1.6Z"/><path class="cls-1" d="M14.66,0c1.27,0,2.46.49,3.36,1.39l5.59,5.59c.9.9,1.39,2.09,1.39,3.36v15.97c0,2.62-2.13,4.76-4.75,4.76H4.75c-2.62,0-4.75-2.13-4.75-4.76V4.75C0,2.13,2.13,0,4.75,0h9.9ZM4.75,2.02c-1.51,0-2.73,1.23-2.73,2.73v21.56c0,1.51,1.23,2.73,2.73,2.73h15.49c1.51,0,2.73-1.23,2.73-2.73v-15.97c0-.18-.02-.36-.05-.54h-2.97c-1.8,0-3.37-1.01-4.18-2.49l-3.42,3.42c-.19.19-.45.3-.71.3-.02,0-.03,0-.05,0-.29-.01-.55-.15-.73-.37l-1.46-1.8-1.18,1.18c-.39.39-1.03.39-1.43,0-.39-.39-.39-1.03,0-1.43l1.97-1.97c.2-.2.48-.31.77-.29.29.01.55.15.73.37l1.46,1.8,3.48-3.48v-2.95c-.18-.04-.36-.05-.54-.05H4.75ZM17.22,5.05c0,1.51,1.23,2.73,2.73,2.73h1.6l-4.33-4.33v1.6Z"/><path d="M4.98,14.33h9.77c.56,0,1.01-.45,1.01-1.01s-.45-1.01-1.01-1.01H5.99v-7.27c0-.56-.45-1.01-1.01-1.01s-1.01.45-1.01,1.01v8.28c0,.56.45,1.01,1.01,1.01Z"/><path d="M4.98,19.86h9.77c.56,0,1.01-.45,1.01-1.01s-.45-1.01-1.01-1.01H4.98c-.56,0-1.01.45-1.01,1.01s.45,1.01,1.01,1.01Z"/><path d="M17.78,22.05H5.09c-.56,0-1.01.45-1.01,1.01s.45,1.01,1.01,1.01h12.69c.56,0,1.01-.45,1.01-1.01s-.45-1.01-1.01-1.01Z"/></svg>