<?xml version="1.0" encoding="UTF-8"?><svg id="Layer_1" xmlns="http://www.w3.org/2000/svg" viewBox="0 0 500 500"><path d="M448.74,87.34L368.88,7.48c-1.38-1.48-3.36-2.27-5.43-2.27H87.87c-21.32,0-38.79,17.47-38.79,38.79v411.99c0,21.42,17.37,38.79,38.79,38.79h324.24c21.42,0,38.79-17.37,38.79-38.79V92.76c.1-2.07-.69-4.05-2.17-5.43h0ZM371.15,31.37l53.69,53.69h-30.2c-12.93,0-23.49-10.56-23.49-23.49v-30.2ZM412.22,479.49H87.87c-12.93,0-23.49-10.56-23.49-23.49V44.01c0-12.93,10.56-23.49,23.49-23.49h267.88v41.06c0,21.42,17.37,38.79,38.79,38.79h41.06v355.53c.1,13.03-10.46,23.59-23.39,23.59h0Z" fill="#319241"/><path d="M182.76,225.86c-4.26-5.46-6.8-12.32-6.8-19.76,0-5.75,1.53-11.17,4.19-15.84,5.53-9.7,15.98-16.26,27.94-16.26,17.61,0,32.1,14.38,32.1,32.1s-14.49,32.15-32.1,32.15c-10.28,0-19.46-4.85-25.33-12.39Z" fill="#319241"/><path d="M319.41,199.98l-117.45,117.57c-2.02,1.94-4.66,2.94-7.17,2.94s-5.14-1-7.13-2.94c-3.94-3.9-3.94-10.36,0-14.27l117.57-117.49c3.9-4.02,10.28-4.02,14.19,0,4.02,3.9,4.02,10.28,0,14.19Z" fill="#319241"/><path d="M331.2,297.11c0,17.72-14.38,32.13-32.1,32.13s-32.15-14.41-32.15-32.13,14.43-32.1,32.15-32.1,32.1,14.38,32.1,32.1Z" fill="#319241"/><path d="M250,392.37c-14.48,0-25.93-18.02-39.01-22.28-13.54-4.41-33.38,3.26-44.65-4.95-11.38-8.29-10.16-29.59-18.45-40.97-8.21-11.28-28.9-16.64-33.3-30.17-4.26-13.08,9.16-29.52,9.16-44s-13.42-30.92-9.16-44c4.41-13.54,25.09-18.9,33.3-30.17,8.29-11.38,7.07-32.68,18.45-40.97,11.28-8.21,31.12-.54,44.65-4.95,13.08-4.26,24.53-22.28,39.01-22.28s25.93,18.02,39.01,22.28c13.54,4.41,33.38-3.26,44.65,4.95s10.16,29.59,18.45,40.97c8.21,11.28,28.9,16.64,33.3,30.17,4.26,13.08-9.16,29.52-9.16,44s13.42,30.92,9.16,44c-4.41,13.54-25.09,18.9-33.3,30.17-8.29,11.38-7.07,32.68-18.45,40.97-11.28,8.21-31.12.54-44.65,4.95-13.08,4.26-24.53,22.28-39.01,22.28Z" fill="none" stroke="#319241" stroke-miterlimit="10" stroke-width="12"/></svg>