<?xml version="1.0" encoding="UTF-8"?><svg id="Layer_1" xmlns="http://www.w3.org/2000/svg" viewBox="0 0 55.49 48.33"><defs><style>.cls-1{fill:#011223;}</style></defs><path class="cls-1" d="M25.89,38.37c-.34,0-.67-.15-.9-.4l-5.49-6.18c-.44-.49-.4-1.25.1-1.7.49-.44,1.25-.4,1.7.1l4.59,5.17,8.32-9.35c.44-.49,1.2-.54,1.7-.1.49.44.54,1.2.1,1.7l-9.21,10.36c-.23.26-.55.4-.9.4h0Z"/><path class="cls-1" d="M42.09,48.33H13.41c-1.17,0-2.29-.49-3.09-1.34-.8-.85-1.21-2.01-1.13-3.18l.03-.49,1.91-27.79c.15-2.21,2-3.94,4.22-3.94h24.78c2.21,0,4.07,1.73,4.22,3.94l1.95,28.28c.08,1.17-.33,2.32-1.13,3.18s-1.92,1.34-3.09,1.34h0ZM15.36,14.64c-.62,0-1.14.48-1.18,1.1l-.06.86h0l-1.89,27.42c-.02.33.09.65.32.89.23.24.53.38.86.38h28.68c.33,0,.64-.13.86-.38.23-.24.34-.56.32-.89l-1.95-28.28c-.04-.62-.56-1.1-1.18-1.1H15.36ZM12.6,16.5h0Z"/><path class="cls-1" d="M35.51,19.27c-.84,0-1.52-.68-1.52-1.52v-8.46c0-3.44-2.8-6.25-6.25-6.25s-6.25,2.8-6.25,6.25v8.46c0,.84-.68,1.52-1.52,1.52s-1.52-.68-1.52-1.52v-8.46c0-5.12,4.17-9.29,9.29-9.29s9.29,4.17,9.29,9.29v8.46c0,.84-.68,1.52-1.52,1.52h0Z"/></svg>