<?xml version="1.0" encoding="UTF-8"?><svg id="Layer_1" xmlns="http://www.w3.org/2000/svg" viewBox="0 0 55.49 48.33"><defs><style>.cls-1{fill:#aeb5ba;}</style></defs><path class="cls-1" d="M13.51,38.33h21.66v-10H13.51v10ZM28.51,35c0-.22.09-.43.24-.59l1.08-1.08-1.08-1.08c-.16-.16-.24-.37-.24-.59v-1.67h1.67v1.32l.83.83.83-.83v-1.32h1.67v1.67c0,.22-.09.43-.24.59l-1.08,1.08,1.08,1.08c.16.16.24.37.24.59v1.67h-1.67v-1.32l-.83-.83-.83.83v1.32h-1.67v-1.67ZM21.84,30.83c0-.22.09-.43.24-.59.16-.16.37-.24.59-.24h3.33c.22,0,.43.09.59.24.16.16.24.37.24.59v5.83h-1.67v-1.67h-1.67v1.67h-1.67v-5.83ZM15.17,30h5v1.67h-1.67v5h-1.67v-5h-1.67v-1.67Z"/><path class="cls-1" d="M22.32,9.17h4.03l2.57-4.5c.27-.47.41-1.01.41-1.56,0-.55-.15-1.08-.42-1.56-.27-.47-.67-.86-1.14-1.14C27.31.14,26.77,0,26.22,0h-3.76c-.55,0-1.08.14-1.56.42-.47.27-.87.66-1.14,1.14-.27.47-.42,1.01-.42,1.56,0,.55.14,1.08.41,1.56l2.57,4.5Z"/><path class="cls-1" d="M25.17,31.66h-1.67v1.67h1.67v-1.67Z"/><path class="cls-1" d="M16.61,8.39l1.29.78h2.5l-2.1-3.68c-.32-.56-.52-1.17-.6-1.81-.08-.64-.02-1.28.16-1.9-.97.08-1.94.18-2.9.34-.24.04-.46.13-.67.26-.2.13-.37.3-.51.5-.13.2-.22.43-.26.66-.04.24-.03.48.03.71.21.85.59,1.66,1.11,2.36.52.71,1.18,1.3,1.94,1.75Z"/><path class="cls-1" d="M33.35,11.18c-.08-.11-.18-.19-.3-.26-.12-.06-.25-.09-.38-.09h-16.67c-.22,0-.43.09-.59.24-.16.16-.24.37-.24.59s.09.43.24.59c.16.16.37.24.59.24h16.67c.19-.45.42-.89.67-1.32Z"/><path class="cls-1" d="M28.28,9.17h2.5l1.29-.78c.76-.45,1.41-1.05,1.94-1.75.52-.71.9-1.51,1.11-2.36.06-.23.07-.48.03-.71-.04-.24-.13-.46-.26-.66-.13-.2-.3-.37-.51-.5-.2-.13-.43-.22-.67-.26-.96-.16-1.93-.26-2.9-.34.18.61.23,1.26.16,1.9-.08.64-.28,1.25-.6,1.81l-2.1,3.68Z"/><path class="cls-1" d="M15.17,15c0,.22.09.43.24.59.16.16.37.24.59.24h15.87c.04-.56.13-1.12.26-1.67h-16.13c-.22,0-.43.09-.59.24-.16.16-.24.37-.24.59Z"/><path class="cls-1" d="M42.67,17.5c-.59,0-1.16-.21-1.61-.59-.45-.38-.75-.91-.85-1.49s0-1.18.31-1.69c.3-.51.77-.89,1.32-1.09v-1.75c-1.39.2-2.66.89-3.57,1.95-.92,1.06-1.42,2.41-1.42,3.82s.51,2.76,1.42,3.82c.92,1.06,2.19,1.75,3.57,1.95v-1.75c-.49-.17-.91-.49-1.21-.91-.3-.42-.46-.92-.46-1.44h1.67c0,.16.05.33.14.46.09.14.22.24.37.31.15.06.32.08.48.05.16-.03.31-.11.43-.23.12-.12.2-.26.23-.43.03-.16.02-.33-.05-.48-.06-.15-.17-.28-.31-.37-.14-.09-.3-.14-.46-.14Z"/><path class="cls-1" d="M31.88,17.5h-15.87c-.06,0-.11-.01-.17-.02-3.29,2.29-5.98,5.35-7.84,8.9-1.86,3.56-2.83,7.51-2.83,11.52,0,2.76,1.1,5.41,3.06,7.37,1.95,1.95,4.6,3.05,7.37,3.06h17.49c2.76,0,5.41-1.1,7.37-3.06,1.95-1.95,3.05-4.6,3.06-7.37,0-3.64-.81-7.23-2.34-10.53-2.44-.35-4.69-1.51-6.38-3.31-1.69-1.8-2.71-4.11-2.9-6.57ZM36.84,39.16c0,.22-.09.43-.24.59-.16.16-.37.24-.59.24H12.67c-.22,0-.43-.09-.59-.24-.16-.16-.24-.37-.24-.59v-11.67c0-.22.09-.43.24-.59.16-.16.37-.24.59-.24h23.33c.22,0,.43.09.59.24.16.16.24.37.24.59v11.67Z"/><path class="cls-1" d="M43.5,10.9v1.75c.49.17.91.49,1.21.91.3.42.46.92.46,1.44h-1.67c0-.16-.05-.33-.14-.46-.09-.14-.22-.24-.37-.31-.15-.06-.32-.08-.48-.05-.16.03-.31.11-.43.23-.12.12-.2.26-.23.43-.03.16-.02.33.05.48.06.15.17.28.31.37.14.09.3.14.46.14.59,0,1.16.21,1.61.59.45.38.75.91.85,1.49.1.58,0,1.18-.31,1.69-.3.51-.77.89-1.32,1.09v1.75c1.39-.2,2.66-.89,3.57-1.95.92-1.06,1.42-2.41,1.42-3.82s-.51-2.76-1.42-3.82c-.92-1.06-2.19-1.75-3.57-1.95h0Z"/><path class="cls-1" d="M42.67,7.5c-1.81,0-3.59.54-5.09,1.54-1.51,1.01-2.68,2.44-3.38,4.11-.69,1.67-.88,3.52-.52,5.3.35,1.78,1.23,3.41,2.51,4.69,1.28,1.28,2.92,2.15,4.69,2.51,1.78.35,3.62.17,5.3-.52,1.67-.69,3.11-1.87,4.11-3.38,1.01-1.51,1.54-3.28,1.54-5.09,0-2.43-.97-4.76-2.69-6.48-1.72-1.72-4.05-2.68-6.48-2.69ZM42.67,24.16c-1.48,0-2.93-.44-4.17-1.26-1.23-.82-2.19-2-2.76-3.37s-.72-2.88-.43-4.33c.29-1.45,1-2.79,2.05-3.84,1.05-1.05,2.39-1.76,3.84-2.05,1.45-.29,2.96-.14,4.33.43,1.37.57,2.54,1.53,3.37,2.76.82,1.23,1.26,2.68,1.26,4.17,0,1.99-.79,3.89-2.2,5.3-1.41,1.41-3.31,2.2-5.3,2.2Z"/></svg>