<?xml version="1.0" encoding="UTF-8"?><svg id="Layer_1" xmlns="http://www.w3.org/2000/svg" xmlns:xlink="http://www.w3.org/1999/xlink" viewBox="0 0 1080 1080"><defs><style>.cls-1{clip-path:url(#clippath-4);}.cls-2,.cls-3,.cls-4{fill:#fff;}.cls-5{fill:#257d3a;}.cls-3{fill-rule:evenodd;}.cls-6{clip-path:url(#clippath-1);}.cls-7{clip-path:url(#clippath-3);}.cls-4{clip-rule:evenodd;}</style><clipPath id="clippath-1"><path class="cls-4" d="M532.4,472.56c55.28,116.37,68.78,215.92,40.47,298.65-6.74,67.04-49.74,141.77-156.71,227.34,443.02-135.5,246.27-339.49,116.24-525.99"/></clipPath><clipPath id="clippath-3"><path class="cls-4" d="M572.88,771.22c28.3-82.73,14.81-182.28-40.47-298.65-58.88-84.44-104.07-165.3-70.02-234.59-251.81,170.27,133.09,308.51,110.49,533.24"/></clipPath><clipPath id="clippath-4"><path class="cls-4" d="M560.53,380.54c21.43-79.39,72.87-86.05,87.53-159.43,4.28,51.29-27.4,120.43-95.04,207.41,166.07-126.65,194.6-242.34,85.58-347.06-4.42,138.16-229.04,210.77-78.08,299.09"/></clipPath></defs><rect class="cls-5" x="-3.32" y="-.51" width="1086.64" height="1080.51"/><path class="cls-3" d="M532.4,472.56c55.28,116.37,68.78,215.92,40.47,298.65-6.74,67.04-49.74,141.77-156.71,227.34,443.02-135.5,246.27-339.49,116.24-525.99"/><g class="cls-6"><rect class="cls-2" x="416.16" y="472.56" width="443.02" height="525.99"/></g><path class="cls-3" d="M572.88,771.22c28.3-82.73,14.81-182.28-40.47-298.65-58.88-84.44-104.07-165.3-70.02-234.59-251.81,170.27,133.09,308.51,110.49,533.24"/><g class="cls-7"><rect class="cls-2" x="210.58" y="237.97" width="390.61" height="533.24"/></g><path class="cls-3" d="M560.53,380.54c21.43-79.39,72.87-86.05,87.53-159.43,4.28,51.29-27.4,120.43-95.04,207.41,166.07-126.65,194.6-242.34,85.58-347.06-4.42,138.16-229.04,210.77-78.08,299.09"/><g class="cls-1"><rect class="cls-2" x="409.57" y="81.45" width="338.05" height="347.06"/></g></svg>