<?xml version="1.0" encoding="UTF-8"?><svg id="Layer_1" xmlns="http://www.w3.org/2000/svg" xmlns:xlink="http://www.w3.org/1999/xlink" viewBox="0 0 1080 1080"><defs><style>.cls-1{clip-path:url(#clippath-4);}.cls-2{fill:url(#linear-gradient-2);}.cls-3,.cls-4,.cls-5{fill:#319241;}.cls-6{fill:#fff;}.cls-7{clip-path:url(#clippath-1);}.cls-4,.cls-8{fill-rule:evenodd;}.cls-9{clip-path:url(#clippath-3);}.cls-5,.cls-10{clip-rule:evenodd;}.cls-10,.cls-8{fill:url(#linear-gradient);}</style><clipPath id="clippath-1"><path class="cls-5" d="M532.84,476.42c52.12,109.71,64.84,203.55,38.16,281.55-6.36,63.2-46.89,133.65-147.74,214.32,417.65-127.74,232.17-320.05,109.58-495.86"/></clipPath><linearGradient id="linear-gradient" x1="385.95" y1="506.62" x2="584.55" y2="506.62" gradientUnits="userSpaceOnUse"><stop offset="0" stop-color="#3c3"/><stop offset="1" stop-color="#cf6"/></linearGradient><clipPath id="clippath-3"><path class="cls-10" d="M571,757.97c26.68-77.99,13.96-171.84-38.16-281.55-55.5-79.61-98.11-155.83-66.01-221.15-237.39,160.52,125.47,290.84,104.16,502.7"/></clipPath><linearGradient id="linear-gradient-2" x1="229.44" x2="597.68" xlink:href="#linear-gradient"/><clipPath id="clippath-4"><path class="cls-5" d="M559.35,389.67c20.2-74.84,68.69-81.13,82.52-150.3,4.03,48.35-25.83,113.53-89.6,195.53,156.56-119.4,183.45-228.46,80.68-327.18-4.17,130.25-215.92,198.7-73.6,281.96"/></clipPath></defs><circle class="cls-6" cx="540" cy="540" r="536.17"/><path class="cls-4" d="M532.84,476.42c52.12,109.71,64.84,203.55,38.16,281.55-6.36,63.2-46.89,133.65-147.74,214.32,417.65-127.74,232.17-320.05,109.58-495.86"/><g class="cls-7"><rect class="cls-3" x="423.26" y="476.42" width="417.65" height="495.86"/></g><path class="cls-8" d="M571,757.97c26.68-77.99,13.96-171.84-38.16-281.55-55.5-79.61-98.11-155.83-66.01-221.15-237.39,160.52,125.47,290.84,104.16,502.7"/><g class="cls-9"><rect class="cls-2" x="229.44" y="255.27" width="368.23" height="502.7"/></g><path class="cls-4" d="M559.35,389.67c20.2-74.84,68.69-81.13,82.52-150.3,4.03,48.35-25.83,113.53-89.6,195.53,156.56-119.4,183.45-228.46,80.68-327.18-4.17,130.25-215.92,198.7-73.6,281.96"/><g class="cls-1"><rect class="cls-3" x="417.04" y="107.71" width="318.69" height="327.18"/></g></svg>