<?xml version="1.0" encoding="UTF-8"?><svg id="Layer_1" xmlns="http://www.w3.org/2000/svg" viewBox="0 0 39 39"><defs><style>.cls-1{fill:#fff;}</style></defs><circle class="cls-1" cx="19.5" cy="19.5" r="19.5"/><path d="M19.76,9h-.51c-.13,0-.25,0-.38.02-2.53.21-4.41,2.43-4.2,4.96l.22,2.59c.2,2.4,2.21,4.25,4.62,4.25s4.42-1.85,4.62-4.25l.22-2.59c.01-.13.02-.25.02-.38,0-2.54-2.06-4.59-4.59-4.59Z"/><path d="M24.62,21.42c-1.34,1.25-3.14,2.02-5.12,2.02s-3.78-.76-5.12-2.02l-2.31.87c-1.85.69-3.07,2.46-3.07,4.43v1.97c0,.72.59,1.31,1.31,1.31h18.38c.72,0,1.31-.59,1.31-1.31v-1.97c0-1.97-1.22-3.74-3.07-4.43l-2.31-.87Z"/></svg>